<svg width="563" height="500" viewBox="0 0 563 500" fill="none" xmlns="http://www.w3.org/2000/svg">
<g opacity="0.5">
<path d="M493.763 438.306C490.183 427.446 484.343 418.026 467.833 415.076C455.573 412.886 442.303 422.846 440.953 422.256C440.123 421.896 431.423 412.856 428.353 409.326C430.123 413.586 434.093 423.206 433.993 423.766C433.853 424.536 425.453 430.366 421.933 432.766C429.163 430.716 436.853 425.156 441.533 428.436C448.173 433.096 457.123 440.206 464.833 441.766C475.503 443.996 486.093 439.286 493.763 438.306Z" fill="#325FF8"/>
<path d="M397.633 457.996C394.633 452.066 394.883 439.616 370.423 438.316C363.623 437.956 349.423 443.996 348.163 443.576C347.053 443.226 338.213 436.516 335.583 434.346C337.193 437.346 341.013 444.436 340.983 445.056C340.983 445.906 334.863 451.736 332.243 453.776L346.353 450.206C348.963 456.326 360.503 462.756 367.063 463.916C390.183 468.056 392.463 462.126 397.633 457.996Z" fill="#325FF8"/>
<path d="M379.593 404.256C378.063 398.326 373.953 386.516 355.003 383.806C348.773 382.916 331.663 389.076 329.583 388.406C328.483 388.056 320.173 381.556 317.583 379.406C319.193 382.406 323.013 389.496 322.983 390.116C322.983 390.966 316.863 396.796 314.243 398.836L328.353 395.266C332.943 401.386 345.193 409.766 351.713 411.096C359.053 412.596 377.653 406.206 379.593 404.256Z" fill="#325FF8"/>
<path d="M287.763 442.146C286.53 437.914 284.492 433.959 281.763 430.496C278.933 427.126 271.643 423.186 263.813 424.036C259.453 424.516 246.553 430.746 245.203 430.616C243.683 430.476 234.633 424.236 231.403 422.006C234.193 425.756 234.403 426.866 237.153 430.616C233.843 433.926 232.973 434.876 230.373 437.476C235.184 435.999 240.127 434.994 245.133 434.476C248.643 437.976 254.613 442.876 256.833 443.806C267.953 448.506 275.653 447.366 287.763 442.146Z" fill="#325FF8"/>
<path d="M279.133 384.996C276.883 380.206 272.453 366.296 254.933 363.796C247.313 362.716 242.143 364.386 234.453 368.036C228.133 371.036 219.113 365.376 213.293 361.496C217.293 365.176 219.553 367.976 227.213 371.656C220.953 373.826 216.573 376.726 212.093 378.656C218.463 376.926 223.403 376.656 229.783 374.906C231.643 382.016 239.303 385.966 246.233 388.406C253.163 390.846 267.293 392.596 279.133 384.996Z" fill="#325FF8"/>
<path d="M158.113 408.996C154.003 399.056 142.873 391.376 132.113 391.516C126.193 391.596 112.413 398.136 110.843 398.076C109.273 398.016 100.083 392.576 96.9432 390.706C100.056 394.69 103.767 398.168 107.943 401.016L92.3132 405.286L110.373 403.496C122.833 415.306 143.123 417.876 158.143 409.496L158.113 408.996Z" fill="#325FF8"/>
<path d="M386.633 297.596C379.293 287.446 381.353 285.736 382.483 277.596C378.333 280.706 378.293 281.936 375.993 281.906C370.103 281.826 370.063 273.366 370.453 271.096C371.004 267.938 372.122 264.906 373.753 262.146C364.873 260.456 355.933 263.506 347.533 266.836C335.443 271.636 333.993 279.836 334.463 283.616C345.703 292.476 357.923 301.726 372.213 302.536C368.983 300.796 367.003 296.636 368.423 293.246C369.843 289.856 375.003 288.556 377.423 291.306C378.603 292.666 384.403 298.596 386.633 297.596Z" fill="#325FF8"/>
<path d="M555.173 216.996C552.083 209.836 551.023 195.996 549.973 188.306C549.373 190.796 546.483 198.036 545.283 198.216C543.693 198.436 542.623 196.646 542.143 195.116C540.245 189.02 540.151 182.505 541.873 176.356C526.423 176.416 502.503 180.226 485.873 199.926C482.323 204.136 482.253 212.376 485.723 216.656C487.723 219.166 500.533 226.426 509.263 234.136C509.873 230.516 509.873 230.516 509.123 225.826C514.833 228.996 537.883 229.596 546.413 228.026C544.123 223.476 540.953 214.946 543.113 211.026C544.373 208.716 547.993 209.416 549.843 211.286C551.693 213.156 552.853 215.766 555.173 216.996Z" fill="#325FF8"/>
<path d="M544.193 114.346C542.283 106.236 541.953 99.5663 539.563 88.3463C539.313 90.8463 533.273 101.276 531.183 99.8863C525.813 96.2863 529.323 73.1463 532.963 71.4463C500.463 72.8163 487.783 96.1663 488.513 100.286C488.923 102.616 498.353 112.936 502.663 115.546C511.213 120.716 521.303 121.286 531.193 119.826C529.154 117.802 527.661 115.294 526.853 112.536C526.103 109.956 528.263 106.046 530.913 105.706C536.193 104.996 540.893 113.726 544.193 114.346Z" fill="#325FF8"/>
<path d="M391.533 127.906C382.583 121.576 387.743 117.776 387.403 111.236C384.633 116.236 380.783 119.366 377.093 118.156C367.973 115.156 370.583 99.4064 372.543 96.0464C360.543 96.0464 349.543 104.796 341.893 114.046C344.323 120.046 352.453 139.806 369.723 137.476C368.243 134.416 366.723 131.136 367.113 127.746C367.503 124.356 370.703 121.076 374.003 121.916C376.433 122.536 377.853 124.916 379.743 126.616C381.353 127.987 383.338 128.843 385.44 129.073C387.542 129.303 389.665 128.897 391.533 127.906Z" fill="#325FF8"/>
<path d="M310.503 105.186C307.808 97.6537 306.606 89.6685 306.963 81.6764C307.001 83.2184 306.633 84.7433 305.896 86.0982C305.159 87.4531 304.078 88.5905 302.763 89.3964C301.423 90.1597 299.867 90.4588 298.339 90.2472C296.811 90.0357 295.396 89.3252 294.313 88.2264C292.563 86.2264 289.713 76.5964 294.533 71.7764C286.533 68.4664 262.433 74.3364 253.973 92.4964C253.333 93.8664 261.033 104.496 273.543 107.966C280.413 109.886 287.543 110.456 294.703 110.966C293.253 109.116 290.393 100.886 294.303 97.6464C295.513 96.6464 299.043 96.8364 300.603 96.9564C304.923 97.2364 306.993 102.676 310.503 105.186Z" fill="#325FF8"/>
<path d="M152.443 137.626C147.289 131.575 144.595 123.809 144.893 115.866C143.773 117.686 143.193 125.546 142.673 125.946C134.913 131.946 132.083 106.626 133.893 105.946C130.023 108.366 113.993 115.616 110.323 117.716C100.223 123.506 93.2532 133.396 86.6332 142.966C94.0409 151.028 103.979 156.32 114.803 157.966C113.595 157.402 112.519 156.589 111.645 155.581C110.772 154.573 110.12 153.393 109.733 152.116C118.156 155.553 127.227 157.109 136.313 156.676C140.503 156.476 144.953 155.676 148.023 152.866C145.413 150.186 134.233 136.116 142.113 132.716C145.053 131.416 149.603 136.156 152.443 137.626Z" fill="#325FF8"/>
<path d="M75.0333 267.996C69.9133 262.696 65.7633 255.926 66.0933 248.996C64.9833 250.606 63.1533 258.776 62.7433 259.206C62.3333 259.636 56.9533 259.126 53.2933 249.206C52.6733 247.556 51.6733 242.746 51.0833 240.276C26.9133 245.396 14.4633 264.476 7.83325 272.996C15.572 280.316 25.4367 284.988 36.0033 286.336C34.8388 285.877 33.7849 285.176 32.911 284.28C32.0371 283.383 31.363 282.312 30.9333 281.136C39.3232 284.186 58.7433 284.906 69.2233 281.806C66.6133 279.426 62.2933 273.106 61.2233 271.016C59.9132 268.486 60.9233 264.426 64.1133 264.226C67.3032 264.026 72.1933 266.696 75.0333 267.996Z" fill="#325FF8"/>
<path d="M249.193 38.7763C245.75 32.2883 243.935 25.0611 243.903 17.7163C242.653 20.4263 232.523 25.9463 231.573 23.5163C230.033 19.5963 228.853 7.51629 228.363 3.32629C220.033 6.83629 210.543 7.09629 202.443 11.1063C192.273 16.1063 178.853 38.1063 179.443 38.8263C187.373 48.7163 197.023 55.8263 207.843 58.2663C205.768 55.563 204.085 52.5802 202.843 49.4063C216.028 52.5728 229.922 50.6629 241.763 44.0563C238.663 42.1663 230.293 33.5963 230.993 30.0563C238.393 30.6263 242.973 34.4063 249.193 38.7763Z" fill="#325FF8"/>
<path d="M237.053 181.496C233.773 175.216 230.243 170.816 229.463 163.766C228.353 166.296 226.613 169.236 223.853 169.146C221.323 169.056 218.113 149.726 221.923 143.876C213.523 146.056 190.993 149.656 177.123 167.966C175.123 170.616 173.123 173.586 174.683 176.516C177.013 180.886 193.113 190.186 201.243 194.046L197.403 184.186C200.87 188.248 205.348 191.323 210.383 193.102C215.419 194.881 220.834 195.299 226.083 194.316C224.293 190.566 219.133 177.866 220.943 176.316C221.484 175.936 222.095 175.667 222.74 175.525C223.386 175.382 224.053 175.369 224.703 175.486C229.421 175.896 233.82 178.037 237.053 181.496Z" fill="#325FF8"/>
<path d="M70.8232 124.996C66.8232 120.416 65.7232 116.806 61.1332 107.336C60.7532 111.696 59.2232 115.076 56.8232 115.516C48.8232 116.976 48.1232 92.7363 50.1232 90.2363C44.4032 92.2363 44.4832 92.5263 41.4232 92.9663C32.978 94.2812 25.008 97.7292 18.2674 102.984C11.5268 108.239 6.2386 115.127 2.9032 122.996C8.80998 129.146 15.9076 134.029 23.7632 137.346C21.309 135.051 19.1945 132.418 17.4832 129.526C30.7532 136.816 47.0332 134.186 61.9132 131.366C59.5932 130.156 52.7132 124.636 53.0632 123.046C53.5332 120.956 56.3332 120.566 58.4432 120.836C62.8041 121.392 67.0117 122.806 70.8232 124.996Z" fill="#325FF8"/>
<path d="M143.033 211.066C138.984 205.512 136.875 198.779 137.033 191.906C136.893 195.126 136.103 197.666 134.183 201.566C125.763 200.346 124.253 189.056 125.823 184.976C110.513 187.096 88.3932 201.866 85.4832 217.536C85.2732 218.686 103.693 235.196 112.803 234.396C112.454 231.961 111.365 229.692 109.683 227.896C120.603 230.476 131.163 230.536 141.263 225.626C130.143 212.206 132.703 206.976 134.953 206.546C137.203 206.116 140.833 210.236 143.033 211.066Z" fill="#325FF8"/>
<path d="M383.313 194.996C379.273 189.44 377.181 182.704 377.363 175.836C377.223 179.056 376.433 181.586 374.513 185.496C366.093 184.276 364.583 172.976 366.153 168.906C350.843 170.996 328.763 185.796 325.813 201.456C325.593 202.616 344.023 219.126 353.133 218.326C352.777 215.89 351.689 213.62 350.013 211.816C360.933 214.396 371.493 214.456 381.593 209.556C370.463 196.136 373.033 190.906 375.283 190.476C377.533 190.046 381.113 194.166 383.313 194.996Z" fill="#325FF8"/>
<path d="M308.393 241.666C304.361 236.106 302.271 229.373 302.443 222.506C302.303 225.726 301.513 228.256 299.593 232.156C291.173 230.936 289.663 219.646 291.233 215.566C275.923 217.686 253.803 232.466 250.893 248.126C250.683 249.276 269.103 265.796 278.213 264.986C277.859 262.553 276.771 260.285 275.093 258.486C286.013 261.066 296.573 261.126 306.673 256.226C295.553 242.806 298.113 237.576 300.363 237.146C302.613 236.716 306.193 240.836 308.393 241.666Z" fill="#325FF8"/>
<path d="M233.523 118.206C230.413 112.906 226.523 106.906 225.893 100.796C220.403 104.966 212.523 108.896 212.773 105.796C212.943 103.726 218.683 94.4563 219.713 93.4263C212.083 90.8563 203.903 89.4263 195.963 90.7463C188.023 92.0663 180.333 96.2063 175.963 102.946C173.753 106.346 172.373 110.336 169.503 113.186C174.363 120.066 182.593 123.946 190.903 125.326C199.213 126.706 207.703 125.886 216.083 125.056C214.183 120.166 213.783 115.966 212.913 112.926C220.903 112.936 222.103 114.806 233.523 118.206Z" fill="#325FF8"/>
<path d="M361.763 32.0863C357.313 28.6163 354.543 23.4963 355.213 13.8263C352.923 18.8263 348.213 27.3763 347.293 26.1263C344.563 22.2063 342.953 11.5263 348.533 0.376334C336.413 -0.833666 323.763 0.786335 313.003 6.51633C302.243 12.2463 293.543 22.3663 291.003 34.2863C302.504 40.0333 314.795 44.0404 327.473 46.1763C324.733 44.9314 322.405 42.9296 320.763 40.4063C329.718 43.5269 339.434 43.716 348.503 40.9463C347.123 36.5563 347.083 31.4863 347.383 31.1063C348.003 30.3363 357.673 30.9963 361.763 32.0863Z" fill="#325FF8"/>
<path d="M61.6233 199.566C59.1033 195.126 56.0233 183.306 55.3633 178.246C55.3633 181.846 53.1933 186.066 51.7433 189.666C46.6833 190.276 46.6833 190.276 41.4333 188.846C40.2833 183.126 43.4333 169.636 45.4333 166.486C17.6433 168.936 0.163259 196.326 0.433259 196.806C7.16326 208.256 29.9933 215.906 46.4333 213.316C44.7233 206.606 43.4333 202.646 42.6433 196.776C47.9933 194.336 51.3533 192.066 53.9333 194.646C56.5133 197.226 58.3933 199.046 61.6233 199.566Z" fill="#325FF8"/>
<path d="M137.633 63.2863C134.013 57.1163 132.633 47.7563 134.043 40.7463C131.833 45.2963 128.413 50.5863 123.363 50.1463C121.767 44.8489 121.434 39.2512 122.391 33.8018C123.348 28.3525 125.568 23.2031 128.873 18.7663C101.383 13.5763 80.7732 54.7663 81.0232 55.4763C81.2732 56.1863 99.7633 74.7163 118.843 73.9963C115.973 72.3706 113.828 69.7145 112.843 66.5663C116.533 62.8763 119.423 61.2463 123.503 55.1663C130.043 57.5063 129.213 59.9163 137.633 63.2863Z" fill="#325FF8"/>
<path d="M213.363 239.266C212.083 243.956 208.173 250.146 202.453 250.606C201.933 250.606 200.193 240.806 204.333 228.216C197.843 230.416 184.273 234.936 181.383 238.676C175.633 246.116 171.163 261.776 171.263 262.336C171.463 263.406 195.733 270.856 205.963 273.396C201.793 265.736 199.703 263.226 201.963 258.846C205.623 251.786 218.443 261.536 222.493 264.746C222.503 264.746 214.313 248.206 213.363 239.266Z" fill="#325FF8"/>
<path d="M139.003 272.476C137.933 276.406 134.653 281.586 129.863 281.976C129.423 281.976 127.963 273.766 131.433 263.216C125.993 265.056 114.633 268.846 112.203 271.976C107.393 278.216 103.653 291.336 103.733 291.806C103.903 292.696 124.223 298.936 132.803 301.066C129.303 294.646 127.563 292.546 129.463 288.876C132.523 282.956 143.263 291.126 146.653 293.816C146.653 293.816 139.763 279.996 139.003 272.476Z" fill="#325FF8"/>
<path d="M304.343 173.406C301.145 164.904 299.782 155.822 300.343 146.756C298.257 151.425 297.42 156.556 297.913 161.646C296.723 162.356 295.523 160.736 295.113 159.416C292.938 152.42 291.766 145.151 291.633 137.826C284.967 139.768 278.801 143.133 273.561 147.689C268.321 152.245 264.132 157.884 261.283 164.216C260.433 166.166 259.703 168.366 260.393 170.366C260.863 171.726 273.533 180.516 279.653 181.546L278.363 176.836C286.103 177.476 293.533 180.046 300.873 182.586C297.993 177.586 293.503 170.136 296.243 164.816C296.543 164.236 297.733 163.456 298.003 164.046C300.263 168.926 300.903 170.776 304.343 173.406Z" fill="#325FF8"/>
<path d="M463.523 154.596C460.185 156.289 456.559 157.341 452.833 157.696C452.562 152.366 453.807 147.068 456.423 142.416C450.593 143.566 444.713 144.546 438.923 145.866C419.503 150.286 415.373 159.186 411.373 162.506C417.673 167.606 439.563 177.366 442.863 177.286C442.422 174.937 442.734 172.508 443.753 170.346C446.741 173.458 450.831 175.272 455.143 175.396L454.313 162.696C461.033 163.196 461.803 164.286 468.103 168.006L463.523 154.596Z" fill="#325FF8"/>
<path d="M441.083 74.1563C442.833 66.5163 445.163 57.8063 445.903 50.9563C439.363 48.8863 427.753 49.4663 421.693 52.6663C411.393 58.1163 399.533 71.5563 398.153 74.6663C396.773 77.7763 399.023 80.3463 401.393 82.6663C405.763 86.9963 442.883 102.226 449.663 102.226C450.203 102.226 439.873 81.9663 440.883 81.2263C443.083 79.6263 451.543 78.8763 457.723 88.1363L456.563 62.4063C452.963 68.0377 447.475 72.2031 441.083 74.1563Z" fill="#325FF8"/>
<path d="M462.863 230.096C456.593 241.096 459.053 245.416 463.293 251.936C459.223 250.766 448.293 246.336 448.083 247.516C447.513 251.406 454.083 260.826 458.643 264.086C452.403 265.756 437.443 265.136 425.363 258.846C421.783 256.986 418.063 254.666 416.723 250.846C415.573 247.576 416.343 243.846 418.033 240.846C419.723 237.846 435.533 223.596 435.893 223.616C436.253 223.636 440.893 235.086 447.543 240.236C450.673 239.626 455.943 234.116 462.863 230.096Z" fill="#325FF8"/>
<path d="M479.063 356.906C471.943 350.273 462.575 346.582 452.843 346.576C443.203 346.646 424.073 354.396 421.843 354.316C416.133 354.126 408.003 350.046 402.353 348.896C406.653 353.816 409.923 356.636 416.213 358.416C410.663 360.496 405.003 363.276 400.393 368.566C405.753 366.636 422.303 360.716 425.393 360.686C428.483 360.656 431.563 361.686 434.593 362.546C443.463 364.996 456.583 369.356 479.063 356.906Z" fill="#325FF8"/>
<path d="M363.483 335.936C357.383 331.426 349.293 330.376 341.743 331.216C334.193 332.056 317.273 337.296 316.093 337.066C315.223 336.896 304.303 330.496 299.623 327.746C302.704 332.417 306.983 336.175 312.013 338.626C306.416 339.2 301.045 341.14 296.373 344.276C300.993 344.276 313.713 341.046 315.373 341.396C317.033 341.746 346.963 355.286 370.553 343.446C370.573 343.446 366.283 337.996 363.483 335.936Z" fill="#325FF8"/>
<path d="M282.153 310.076C283.153 307.586 272.793 295.326 259.153 299.826C254.663 301.306 253.273 306.236 248.613 307.006C243.383 307.876 235.953 303.896 231.303 301.356C234.543 303.176 238.103 305.406 238.923 309.026C239.563 311.816 238.343 314.726 236.633 317.026C240.463 313.946 243.633 310.456 248.523 310.246C257.853 316.266 274.043 315.806 282.153 310.076Z" fill="#325FF8"/>
<path d="M512.193 391.526C507.523 395.836 502.563 398.526 498.623 402.136C499.623 396.456 500.773 395.276 502.733 389.996C499.483 388.186 493.453 381.276 490.203 379.466L512.013 386.866C515.013 381.866 540.783 363.526 562.403 389.146C546.913 397.996 534.143 402.166 512.193 391.526Z" fill="#325FF8"/>
<path d="M551.223 323.586C550.053 318.226 551.413 301.246 532.423 296.886C526.773 295.596 520.743 296.606 515.263 298.486C510.343 300.176 498.023 305.676 496.683 305.086C495.853 304.726 488.493 296.266 485.423 292.736C487.193 297.006 491.163 306.616 491.063 307.176C490.923 307.946 482.523 313.776 479.003 316.176C486.243 314.176 490.693 311.936 496.823 311.936C504.683 311.936 512.823 321.686 520.193 324.426C527.563 327.166 541.633 326.726 551.223 323.586Z" fill="#325FF8"/>
<path d="M209.763 465.666C208.233 459.736 206.763 446.326 182.553 444.766C175.763 444.336 161.053 450.766 159.733 450.366C158.633 450.016 150.343 442.976 147.733 440.806C149.343 443.806 154.433 452.156 154.403 452.806C154.403 453.656 147.013 458.216 144.403 460.256L158.513 456.686C161.306 462.818 166.268 467.701 172.443 470.396C192.453 479.516 208.903 469.176 209.763 465.666Z" fill="#325FF8"/>
<path d="M73.7632 331.206C64.7632 329.916 49.6832 337.916 48.3432 337.786C46.8132 337.636 37.7632 331.406 34.5432 329.176C37.3332 332.916 39.5432 334.976 42.3132 338.726C38.4832 341.206 36.4332 342.806 33.5132 344.646C38.3227 343.164 43.2666 342.159 48.2732 341.646C58.6332 354.976 77.5732 355.276 89.6332 350.056C89.6132 350.096 92.3432 333.876 73.7632 331.206Z" fill="#325FF8"/>
<path d="M206.763 337.216C199.693 330.656 189.763 327.826 180.113 327.906C170.463 327.986 161.043 333.176 152.023 336.566C149.953 337.346 135.293 329.386 129.643 330.236C133.943 335.146 137.543 336.576 142.733 339.466C135.733 342.946 132.293 344.616 127.733 349.896C133.093 347.976 149.643 342.056 152.733 342.026C155.823 341.996 176.623 347.606 185.833 347.606C191.643 347.606 201.473 343.996 206.763 337.216Z" fill="#325FF8"/>
<path d="M268.873 488.736C262.958 492.084 257.233 495.756 251.723 499.736C255.783 493.166 258.083 492.126 261.353 486.656C258.353 484.526 250.743 477.926 247.693 475.796L268.643 485.366C274.553 480.676 281.973 474.776 290.543 476.366C301.453 478.366 308.443 483.756 315.943 490.746C304.183 496.106 302.943 497.506 289.633 496.556C282.119 495.937 274.928 493.229 268.873 488.736Z" fill="#325FF8"/>
</g>
</svg>
