<svg width="590" height="494" viewBox="0 0 590 494" fill="none" xmlns="http://www.w3.org/2000/svg">
<g opacity="0.5">
<path d="M426.374 311.646C422.664 307.016 417.314 303.986 411.804 301.796C402.078 298.026 391.622 296.516 381.227 297.382C370.833 298.249 360.771 301.468 351.804 306.796L361.694 309.446C351.72 311.951 341.221 311.372 331.583 307.786L335.583 327.886C342.196 322.635 350.41 319.811 358.854 319.886C357.436 322.228 355.478 324.197 353.144 325.626L375.224 323.686C383.224 322.986 391.224 322.276 398.914 319.936C406.354 317.626 418.894 313.706 426.374 311.646Z" fill="#325FF8"/>
<path d="M337.614 189.996C334.144 185.666 329.124 182.826 323.964 180.776C314.854 177.238 305.059 175.819 295.32 176.628C285.581 177.437 276.154 180.453 267.754 185.446L277.014 187.926C267.673 190.272 257.841 189.732 248.814 186.376L252.564 205.206C258.757 200.271 266.455 197.61 274.374 197.666C273.039 199.859 271.206 201.706 269.024 203.056L289.703 201.236C297.183 200.576 304.704 199.916 311.904 197.716C318.854 195.566 330.604 191.896 337.614 189.996Z" fill="#325FF8"/>
<path d="M468.414 259.636C459.034 249.366 446.314 241.566 432.414 241.296C418.514 241.026 403.324 242.746 393.564 252.656C394.294 254.566 398.834 259.296 399.564 259.716C394.144 258.526 386.174 255.486 380.754 254.296C382.907 260.261 383.089 266.76 381.274 272.836C388.274 269.886 393.064 265.326 400.684 264.836C400.116 268.255 399.811 271.711 399.774 275.176C421.764 266.396 449.174 273.476 468.414 259.636Z" fill="#325FF8"/>
<path d="M589.024 315.706C564.424 295.086 525.744 293.566 499.604 312.196L511.254 315.496C497.425 316.479 483.559 314.212 470.764 308.876C474.25 317.538 475.308 326.987 473.824 336.206C479.434 330.996 502.404 320.316 516.824 328.096L503.064 330.096C521.444 331.976 540.214 333.826 558.224 329.726C569.364 327.178 579.879 322.417 589.144 315.726" fill="#325FF8"/>
<path d="M546.934 395.646C528.554 380.246 499.654 379.106 480.124 393.026L488.824 395.486C478.493 396.227 468.132 394.535 458.574 390.546C461.179 397.018 461.968 404.079 460.854 410.966C465.044 407.076 482.204 399.096 492.974 404.906L482.694 406.406C496.424 407.806 510.444 409.196 523.904 406.136C532.228 404.237 540.086 400.687 547.014 395.696" fill="#325FF8"/>
<path d="M324.174 463.226C305.794 447.826 276.894 446.686 257.364 460.606L266.064 463.066C255.733 463.806 245.372 462.114 235.814 458.126C238.419 464.598 239.208 471.659 238.094 478.546C242.294 474.656 259.454 466.676 270.214 472.486L259.934 473.986C273.664 475.386 287.684 476.776 301.144 473.716C309.468 471.817 317.326 468.267 324.254 463.276" fill="#325FF8"/>
<path d="M320.154 358.226C309.444 347.226 307.964 344.226 273.424 344.606C272.014 344.606 265.484 340.386 262.554 337.456C263.726 340.331 265.165 343.09 266.854 345.696C260.454 346.696 251.264 353.606 249.694 354.256C248.584 354.726 233.824 353.466 227.694 352.566L232.694 366.316C239.014 363.446 242.874 361.956 249.754 361.036C248.574 363.206 296.994 376.356 320.154 358.226Z" fill="#325FF8"/>
<path d="M398.854 419.566C375.818 404.986 348.534 398.612 321.424 401.476C325.251 403.805 329.297 405.754 333.504 407.296C328.674 408.886 323.264 407.476 318.974 404.766C314.684 402.056 311.294 398.146 307.974 394.306C310.523 402.449 310.974 411.103 309.284 419.466C316.246 416.201 324.026 415.093 331.624 416.286C329.137 417.096 326.869 418.465 324.994 420.286C338.243 424.557 352.187 426.254 366.074 425.286C363.684 425.066 363.604 426.286 362.074 428.076C375.324 425.676 385.974 423.706 398.854 419.566Z" fill="#325FF8"/>
<path d="M572.764 245.466C557.254 233.566 548.184 233.806 530.764 236.386C519.274 238.096 510.884 243.386 507.264 243.636C500.364 244.166 494.424 239.636 487.104 239.636C492.654 241.556 495.774 244.726 501.274 247.526C496.414 250.056 493.844 252.466 492.274 256.686C503.624 250.796 506.274 249.206 511.914 249.686C516.734 250.136 549.194 254.836 553.574 254.906C560.644 255.046 568.374 252.046 572.764 245.466Z" fill="#325FF8"/>
<path d="M538.444 185.836C526.684 176.726 506.614 173.836 492.254 177.776C487.734 179.006 483.374 180.906 478.724 181.476C473.311 182.116 467.841 180.926 463.184 178.096L465.874 192.266C468.734 190.736 476.244 186.556 477.124 186.896C480.404 188.176 492.854 193.896 500.124 194.186C509.644 194.556 530.994 192.926 538.444 185.836Z" fill="#325FF8"/>
<path d="M133.684 285.066C128.214 280.066 109.044 273.686 101.684 273.066C94.3236 272.446 76.0735 275.066 75.8835 276.636C75.7535 277.636 82.8835 283.486 86.2035 284.456C77.8348 285.833 69.2555 283.978 62.2035 279.266L66.2035 298.586C71.1297 294.214 77.1752 291.299 83.6636 290.166C82.9791 293.893 80.8608 297.203 77.7635 299.386C85.4531 299.297 93.1006 298.236 100.524 296.226C98.4382 298.054 96.6767 300.221 95.3136 302.636C108.815 298.478 121.715 292.572 133.684 285.066Z" fill="#325FF8"/>
<path d="M313.264 280.476C309.434 280.866 306.104 278.146 302.684 276.366C290.314 269.926 274.903 275.746 261.453 272.076C265.879 274.577 270.009 277.569 273.764 280.996C265.674 285.646 255.514 282.336 246.824 278.946C248.442 282.835 251.529 285.929 255.414 287.556C251.914 291.056 250.304 293.806 247.904 297.146C254.684 296.936 259.404 293.566 265.754 291.146C276.084 288.906 267.834 300.736 265.874 303.446C275.094 301.376 280.424 299.446 288.104 297.246C298.304 294.296 313.544 282.776 313.264 280.476Z" fill="#325FF8"/>
<path d="M115.874 403.846C108.435 394.034 99.2351 385.692 88.7435 379.246C90.0735 382.176 93.3635 389.546 92.9835 390.196C92.6035 390.846 62.2136 393.496 60.9136 393.196C59.6136 392.896 47.0836 388.336 41.9136 387.196C44.2236 392.386 54.5936 399.596 54.6436 400.356C54.6436 400.866 49.5836 409.356 47.6436 412.306C52.4536 409.026 56.8036 406.226 61.6436 402.946C65.2036 406.516 90.5736 412.706 98.9436 414.056L97.9436 422.166C101.624 417.626 112.144 408.396 115.874 403.846Z" fill="#325FF8"/>
<path d="M247.544 402.256C244.674 401.256 221.774 394.066 211.194 396.006C207.364 396.716 197.064 401.806 191.644 404.446C185.344 402.746 181.324 400.636 175.104 396.446C176.034 399.916 183.244 407.356 183.154 408.766C183.104 409.446 177.694 416.236 174.854 419.676C180.774 416.356 185.764 415.336 190.964 411.296C196.574 414.296 206.964 415.706 217.694 414.406C222.434 413.876 237.084 411.926 247.544 402.256Z" fill="#325FF8"/>
<path d="M181.934 359.086C182.734 357.086 159.254 343.506 148.444 346.086C146.444 346.586 138.994 348.526 136.894 348.486C131.234 348.386 126.684 341.266 119.024 340.316C122.464 343.486 129.714 351.026 129.724 351.536C129.734 352.046 123.494 358.396 120.794 361.106C126.154 361.256 129.964 357.996 134.734 355.546C137.854 357.456 146.924 364.236 149.024 364.446C161.064 365.686 170.484 362.996 181.934 359.086Z" fill="#325FF8"/>
<path d="M360.424 238.996C360.814 236.916 335.044 228.376 325.004 233.156C323.104 234.056 316.244 237.466 314.184 237.856C308.614 238.916 302.714 232.856 295.014 233.506C299.014 235.906 307.674 241.806 307.784 242.316C307.894 242.826 303.084 250.316 300.994 253.506C306.274 252.556 309.334 248.576 313.514 245.206C316.954 246.436 327.214 251.206 329.324 251.006C341.344 249.716 350.014 245.136 360.424 238.996Z" fill="#325FF8"/>
<path d="M198.324 306.456C198.324 305.216 182.624 302.736 177.264 306.456C175.415 307.838 173.474 309.091 171.453 310.206C168.333 311.356 164.343 308.416 159.953 309.516C162.776 310.628 165.522 311.924 168.174 313.396C168.304 313.706 166.174 318.466 165.314 320.516C168.314 319.516 169.674 316.876 171.774 314.516C173.874 314.896 180.274 316.696 181.474 316.366C188.304 314.486 192.884 310.996 198.324 306.456Z" fill="#325FF8"/>
<path d="M225.884 251.436C222.594 251.066 219.144 248.436 216.784 246.076C214.454 243.805 211.687 242.032 208.65 240.863C205.614 239.695 202.371 239.156 199.12 239.279C195.869 239.403 192.677 240.186 189.738 241.581C186.799 242.977 184.174 244.955 182.024 247.396C183.459 247.929 184.662 248.948 185.424 250.276C180.525 251.013 175.526 250.689 170.764 249.326C172.154 253.596 172.873 258.056 172.894 262.546C176.194 261.086 181.153 259.626 184.453 258.166C183.613 261.686 179.754 264.876 176.754 266.896C185.464 269.056 194.754 266.796 202.904 263.136C211.054 259.476 217.764 255.216 225.884 251.436Z" fill="#325FF8"/>
<path d="M193.244 464.586C190.774 459.156 185.093 456.006 179.464 453.866C176.209 452.648 172.798 451.894 169.333 451.626L140.333 449.156C140.573 452.106 143.223 454.906 145.203 457.156C142.753 457.616 135.524 462.226 134.404 461.886C128.995 460.229 124.107 457.201 120.214 453.096C120.294 454.957 120.756 456.781 121.569 458.457C122.383 460.132 123.531 461.623 124.944 462.836C125.864 463.626 126.944 464.376 127.264 465.556C127.41 466.388 127.334 467.243 127.044 468.036L124.854 476.116C128.037 472.28 132.176 469.352 136.854 467.626C140.244 469.716 156.704 472.626 162.854 472.206L153.354 480.206C167.152 476.386 180.52 471.152 193.244 464.586Z" fill="#325FF8"/>
<path d="M437.884 208.086C435.414 202.666 429.734 199.506 424.104 197.366C420.847 196.153 417.438 195.399 413.974 195.126L384.974 192.656C385.214 195.656 387.864 198.406 389.844 200.656C387.394 201.106 380.164 205.716 379.044 205.376C373.635 203.719 368.747 200.691 364.854 196.586C364.934 198.448 365.395 200.274 366.209 201.951C367.022 203.628 368.171 205.121 369.583 206.336C370.503 207.116 371.584 207.876 371.904 209.046C372.05 209.878 371.974 210.733 371.684 211.526L369.494 219.616C372.674 215.777 376.814 212.848 381.494 211.126C384.894 213.206 401.344 216.126 407.494 215.706L397.994 223.756C411.794 219.92 425.162 214.669 437.884 208.086Z" fill="#325FF8"/>
<path d="M110.074 208.696C105.794 203.946 91.0736 196.866 83.0736 195.466C74.5236 193.976 65.7936 193.996 57.1536 193.266C57.3936 196.216 58.6235 197.846 60.6035 200.056C58.4787 201.814 56.4524 203.686 54.5336 205.666C53.7536 206.556 40.8936 201.306 37.0336 197.216C37.1736 200.926 43.7836 208.496 44.0336 209.676C44.2436 210.486 42.3535 217.546 41.6235 220.236C44.8072 216.4 48.9464 213.472 53.6235 211.746C59.1235 215.436 73.4735 216.746 79.6235 216.326L70.1235 224.326C83.9432 220.507 97.331 215.269 110.074 208.696Z" fill="#325FF8"/>
<path d="M421.944 160.396C407.454 147.556 392.774 143.326 380.594 145.526C377.204 146.136 366.264 151.286 361.594 154.946C355.594 154.446 348.884 153.136 342.924 152.636L353.464 157.066L344.924 165.366C350.044 165.366 362.254 160.456 363.364 161.026C371.834 165.366 404.264 163.396 421.944 160.396Z" fill="#325FF8"/>
<path d="M220.214 202.646C209.624 193.096 192.434 188.256 178.384 190.646L182.484 195.816C176.594 197.226 163.114 200.456 162.284 200.306C161.454 200.156 153.284 195.146 149.794 193.046C152.174 197.276 150.953 198.786 153.333 203.046C146.783 203.986 143.464 207.476 138.064 209.966C145.064 210.706 158.814 205.466 160.914 205.856C163.014 206.246 181.914 213.656 189.364 211.746C186.126 213.485 183.349 215.97 181.264 218.996C188.654 216.396 217.014 205.836 220.214 202.646Z" fill="#325FF8"/>
<path d="M392.694 470.216C381.634 468.416 374.534 466.146 363.904 462.616C367.644 468.016 368.484 472.616 374.044 476.146C367.854 479.856 367.424 486.366 366.254 493.486C375.769 487.609 386.184 483.332 397.083 480.826C395.374 482.789 394.048 485.055 393.174 487.506L437.254 485.116L436.624 490.356C453.724 481.443 468.932 469.295 481.404 454.586C468.624 449.496 455.404 444.316 441.654 444.586C425.774 444.956 411.084 452.586 397.054 460.026L403.953 463.406L392.694 470.216Z" fill="#325FF8"/>
<path d="M388.604 357.126C382.925 353.922 377.543 350.218 372.524 346.056C373.644 350.206 373.134 353.246 375.784 356.636C371.144 357.546 369.444 361.466 367.144 365.586C374.316 364.077 381.687 363.756 388.964 364.636C387.474 365.461 386.154 366.561 385.074 367.876L412.804 376.186L411.254 379.276C423.759 377.581 435.818 373.479 446.764 367.196C440.004 361.196 433.004 355.096 424.444 352.196C414.564 348.896 403.814 350.336 393.504 351.806L397.014 355.416L388.604 357.126Z" fill="#325FF8"/>
<path d="M97.2335 133.526C98.7378 125.423 101.359 117.568 105.024 110.186C101.024 115.336 88.8036 126.696 87.0236 127.116C84.5736 127.716 64.6936 122.116 57.0236 122.346C59.9374 118.876 63.3795 115.886 67.2235 113.486C58.5135 114.996 48.7635 116.996 40.7635 122.616C34.8236 122.746 15.1935 129.506 0.24353 140.376C17.4435 145.936 38.0135 147.376 42.9935 145.936C49.1235 150.016 62.3735 151.156 69.7135 151.806C62.9135 146.526 64.3036 146.416 61.5636 142.896C70.1736 140.426 77.9635 131.986 86.4635 134.806C89.8135 135.916 101.883 149.056 105.464 152.976C101.904 146.996 100.764 139.536 97.2335 133.526Z" fill="#325FF8"/>
<path d="M418.134 21.2764C419.507 13.9471 421.879 6.84085 425.184 0.156372C421.564 4.81637 410.513 15.0964 408.953 15.4764C406.763 15.9964 388.764 10.9964 381.764 11.1664C384.404 8.03439 387.518 5.33504 390.994 3.16637C383.074 4.55637 374.284 6.29637 366.994 11.4264C361.614 11.5364 343.853 17.6664 330.333 27.4964C345.883 32.4964 364.504 33.7864 369.004 32.4964C374.544 36.1964 386.544 37.2264 393.184 37.8164C387.024 33.0364 388.284 32.9364 385.804 29.7464C393.594 27.5264 400.643 19.8864 408.333 22.4364C411.333 23.4364 422.334 35.3264 425.524 38.8664C422.364 33.4264 421.324 26.7164 418.134 21.2764Z" fill="#325FF8"/>
<path d="M425.884 127.936C423.444 124.286 417.314 116.456 414.884 112.806C389.344 118.806 374.884 104.436 369.974 97.1164C384.184 93.8564 400.244 96.5863 415.974 107.266C417.434 108.266 428.914 106.456 432.754 105.976C429.433 108.148 426.353 110.665 423.564 113.486C426.023 117.877 426.845 122.997 425.884 127.936Z" fill="#325FF8"/>
<path d="M294.194 143.766C285.884 136.096 278.544 132.766 267.194 132.766C256.734 132.766 242.854 126.766 239.394 120.476C247.224 112.806 258.394 109.666 269.194 107.886C279.994 106.106 291.193 105.356 301.333 101.286C299.673 104.346 296.894 111.606 297.014 112.206C297.214 113.136 304.764 121.816 305.564 121.296C306.804 120.496 324.414 114.506 327.794 111.886C325.224 116.176 322.794 118.496 316.894 124.366C320.654 126.736 323.384 131.976 327.794 137.126C320.694 133.936 306.224 126.036 303.864 126.486C296.794 127.816 293.224 130.486 289.324 131.356C292.474 134.236 294.194 137.906 294.194 143.766Z" fill="#325FF8"/>
<path d="M127.764 122.206C137.334 138.206 158.964 147.846 176.934 152.926L167.134 139.856C178.216 139 188.833 135.035 197.764 128.416C203.397 132.873 210.032 135.89 217.094 137.206C211.954 132.636 208.904 129.966 202.554 127.326C208.204 124.716 210.484 119.926 214.694 115.326C210.484 118.836 199.804 125.326 199.064 125.326C197.974 125.326 178.514 109.676 162.484 107.686L171.304 102.946C164.264 104.706 144.404 105.556 127.764 122.206Z" fill="#325FF8"/>
<path d="M536.194 154.846C527.364 146.016 518.694 143.846 507.384 142.766C496.994 141.766 481.944 135.696 478.474 129.376C486.304 121.696 497.474 118.556 508.284 116.776C519.094 114.996 530.284 114.246 540.414 110.186C538.764 113.246 534.854 120.506 534.984 121.106C535.174 122.026 550.814 130.606 551.614 130.106C552.864 129.296 560.174 118.416 563.544 115.796C560.004 123.026 558.544 125.726 556.434 133.476C558.164 135.196 563.794 141.776 568.194 143.476C562.404 140.766 548.654 134.896 546.294 135.336C539.224 136.676 536.704 135.676 532.364 140.016C534.764 143.646 535.214 147.996 536.194 154.846Z" fill="#325FF8"/>
<path d="M426.764 68.5063C436.334 84.5063 456.004 90.8863 473.974 95.9663L464.174 82.9063C475.242 82.0348 485.843 78.067 494.764 71.4563C500.397 75.9132 507.032 78.9302 514.094 80.2463C509.393 75.8662 503.947 72.3611 498.014 69.8963C503.664 67.2863 509.894 63.8463 514.094 59.2563C509.884 62.7663 495.563 67.6563 494.714 66.9763C484.894 59.1263 471.714 55.6663 459.484 52.8663C462.424 51.2863 465.364 47.5763 468.304 45.9963C461.304 47.7563 446.484 50.7963 440.424 54.7163C431.944 60.2263 428.984 65.6363 426.764 68.5063Z" fill="#325FF8"/>
<path d="M56.1335 77.6364C61.7635 81.0664 64.6236 84.0464 71.0236 85.6364C78.0236 87.3964 94.6735 84.2764 95.4835 84.1964C96.0335 84.1964 109.314 89.2864 114.124 90.9664C110.927 86.8761 106.643 83.7677 101.764 81.9964C106.484 80.3664 111.854 77.3364 114.824 73.9964C108.704 75.5464 102.073 77.9964 95.9535 79.5464C94.7535 79.8464 81.8335 72.6564 77.7635 71.5464C68.9335 69.0864 58.7635 75.6564 56.1335 77.6364Z" fill="#325FF8"/>
<path d="M194.953 78.7964C198.953 81.1164 206.034 82.4664 210.674 82.7064C205.764 79.7064 205.054 78.9164 200.744 77.1464C205.744 75.1464 206.744 73.8864 211.194 70.1464C206.464 71.8464 195.364 76.2864 194.344 75.7964C186.424 71.9664 166.774 70.0364 159.464 79.2664C159.464 79.2764 179.043 90.5264 194.953 78.7964Z" fill="#325FF8"/>
<path d="M38.5035 17.0763C39.8835 22.1563 48.8135 25.7963 53.9935 25.7963C59.8335 25.7963 72.5435 20.5463 73.5935 20.3363C74.9435 20.0663 83.9636 22.0763 90.8236 22.4863C84.8236 20.1263 83.5936 18.4863 77.5336 17.4863C80.876 14.8886 83.9511 11.9641 86.7135 8.75635C83.5735 10.6563 75.3836 15.5863 74.3036 15.7563C72.8136 15.9363 62.3036 12.8963 59.1636 12.3363C53.4236 11.2563 44.5635 12.4663 38.5035 17.0763Z" fill="#325FF8"/>
<path d="M107.363 49.6964C118.123 56.2564 135.583 52.5664 143.463 46.4564C144.223 45.8664 161.113 49.6564 164.993 48.7364C159.786 45.7018 153.916 43.9854 147.894 43.7364C152.434 41.0764 157.593 37.9564 161.013 32.8064C153.593 37.1964 149.494 40.5864 142.914 42.7164C137.434 35.3064 126.263 34.7164 117.603 37.8564C112.303 39.7664 106.763 44.0864 107.363 49.6964Z" fill="#325FF8"/>
<path d="M310.854 75.8064C317.224 80.6064 324.674 84.9064 332.644 84.9064C341.304 84.9064 345.954 81.1964 351.514 75.4764C352.344 74.6164 367.594 80.2264 371.044 79.6864C367.564 76.9664 364.684 74.4964 361.214 71.7764C364.133 68.8564 366.324 67.0564 367.214 63.7764C362.254 66.8801 356.798 69.1092 351.083 70.3664C346.743 64.9464 338.703 63.6264 332.083 65.5464C325.463 67.4664 315.894 70.9964 310.854 75.8064Z" fill="#325FF8"/>
<path d="M196.654 22.4764C203.654 29.4764 206.854 29.7764 215.234 30.4164C222.234 30.9464 230.964 26.0464 233.044 23.9664C234.284 22.7264 248.294 28.5664 252.194 29.0764C246.044 26.3964 244.614 23.3664 238.464 20.6964C243.344 19.1964 248.704 14.6464 252.194 10.9264C244.764 14.3864 237.344 17.7264 233.044 18.8564C229.479 16.6134 225.701 14.7308 221.764 13.2364C217.024 11.6264 211.764 11.0564 207.004 12.4964C202.244 13.9364 197.954 17.6464 196.654 22.4764Z" fill="#325FF8"/>
<path d="M232.864 56.9963C239.914 65.4863 257.254 69.4363 265.604 62.2263C271.404 57.2263 284.254 59.9763 295.014 62.4063C288.324 59.1863 286.394 55.1163 279.014 54.2863C284.084 50.2863 284.374 47.6463 287.474 42.5963C283.004 46.4463 278.014 49.6863 273.674 53.6963C270.054 57.0463 264.734 54.5863 262.164 53.4063C254.144 49.6663 239.764 51.3663 232.864 56.9963Z" fill="#325FF8"/>
</g>
</svg>
