<svg width="1920" height="2280" viewBox="0 0 1920 2280" fill="none" xmlns="http://www.w3.org/2000/svg">
<g opacity="0.3">
<path d="M1010.93 2279.96H910.93L916.26 2046.54L921.72 1813.13L933.25 1346.3L939.17 1112.89L945.26 879.49L951.35 646.06L954.4 529.37L955.92 471L956.46 450.45H965.4L965.94 471L967.46 529.37L970.5 646.06L976.6 879.49L982.69 1112.89L988.6 1346.3L1000.13 1813.13L1005.6 2046.54L1010.93 2279.96Z" fill="url(#paint0_linear)"/>
<path d="M1127.7 2273.82L1027.84 2279.05L1020.94 2045.68L1014.18 1812.3L1001.27 1345.51L994.96 1112.12L988.83 878.69L982.69 645.28L979.63 528.59L978.09 470.23L977.57 450.45L986.58 450.44L988.09 469.7L992.67 527.9L1001.82 644.28L1020.12 877.06L1038.42 1109.84L1056.54 1342.62L1092.49 1808.19L1110.16 2041.01L1127.7 2273.82Z" fill="url(#paint1_linear)"/>
<path d="M1243.99 2261.58L1144.54 2272.03L1125.44 2039.34L1106.48 1806.63L1069.14 1341.16L1050.63 1108.4L1032.29 875.63L1013.95 642.87L1004.78 526.49L1000.2 468.3L998.79 450.44H1007.95L1010.16 467.25L1017.77 525.12L1033 640.87L1063.45 872.37L1093.91 1103.87L1124.19 1335.38L1184.46 1798.43L1214.29 2029.99L1243.99 2261.58Z" fill="url(#paint2_linear)"/>
<path d="M1359.48 2243.27L1260.71 2258.91L1229.43 2027.54L1198.31 1796.15L1136.67 1333.27L1106.03 1101.8L1075.54 870.31L1045.04 638.82L1029.79 523.08L1022.17 465.2L1020.17 450.44C1022.93 450.44 1025.71 450.44 1028.48 450.44H1029.56L1032.01 463.68L1042.69 521L1063.96 635.8L1106.49 865.38L1149.02 1095L1191.37 1324.61L1275.79 1783.88L1317.7 2013.57L1359.48 2243.27Z" fill="url(#paint3_linear)"/>
<path d="M1473.85 2218.94L1376.04 2239.73L1332.72 2010.31L1289.54 1780.87L1203.76 1321.85L1161.01 1092.29L1118.44 862.73L1075.87 633.15L1054.59 518.36L1043.95 460.97L1041.96 450.26L1051.64 450.13L1053.74 458.88L1067.36 515.64L1094.61 629.16L1149.09 856.2L1203.58 1083.25L1257.9 1310.34L1366.23 1764.56L1420.11 1991.73L1473.85 2218.94Z" fill="url(#paint4_linear)"/>
<path d="M1586.79 2188.66L1490.2 2214.54L1434.94 1987.7L1379.8 1760.83L1270.12 1306.93L1215.42 1079.93L1160.89 852.93L1106.37 625.93L1079.1 512.41L1065.43 455.59L1064.13 450L1074.22 449.86L1075.15 453.01L1091.72 509.01L1124.87 620.95L1191.16 844.84L1257.43 1068.68L1323.55 1292.6L1455.55 1740.54L1521.25 1964.54L1586.79 2188.66Z" fill="url(#paint5_linear)"/>
<path d="M1698 2152.51L1602.89 2183.41L1535.83 1959.78L1468.9 1736.1L1335.61 1288.56L1269.11 1064.75L1202.77 840.88L1136.43 617L1103.26 505.07L1086.85 449.67L1097.44 449.51L1115.69 501L1154.69 611.06L1232.62 831.16L1310.54 1051.27L1388.29 1271.43L1543.43 1711.87L1620.76 1932.17L1698 2152.51Z" fill="url(#paint6_linear)"/>
<path d="M1807.16 2110.59L1713.8 2146.43L1635.12 1926.61L1556.58 1706.74L1400.05 1266.79L1321.93 1046.79L1243.93 826.7L1165.93 606.61L1126.93 496.61L1110.18 449.33L1114.54 449.22H1116.54L1121.43 449L1139.2 491.9L1183.87 599.76L1273.2 815.49L1362.53 1031.22L1451.73 1247L1629.73 1678.69L1718.48 1894.64L1807.16 2110.59Z" fill="url(#paint7_linear)"/>
<path d="M1913.97 2063.01L1822.62 2103.69L1732.55 1888.29L1642.6 1672.83L1463.26 1241.68L1373.73 1026.03L1284.36 810.32L1194.99 594.62L1150.3 486.75L1134.49 448.59L1146.41 448.27H1146.42L1162.23 481.44L1212.48 586.82L1312.98 797.57L1413.49 1008.34L1513.83 1219.15L1714.24 1640.93L1814.17 1851.94L1913.97 2063.01Z" fill="url(#paint8_linear)"/>
<path d="M1920.93 1829.4V2038.43L1827.83 1844.91L1726.73 1634.46L1525.07 1213.28L1424.38 1002.63L1323.84 791.88L1223.3 581.16L1173.03 475.78L1159.85 448.15L1159.74 447.91L1167.6 447.7L1172.53 447.51H1172.54L1172.7 447.8L1184.67 469.86L1240.36 572.46L1351.76 777.67L1463.15 982.88L1574.39 1188.15L1796.6 1598.87L1907.44 1804.36L1920.93 1829.4Z" fill="url(#paint9_linear)"/>
<path d="M1920.93 1625.26V1797.03L1920.71 1796.63L1808.74 1591.74L1585.31 1181.71L1473.73 976.61L1250.87 566.22L1195.16 463.64L1186.29 447.3L1186.09 446.94L1189.55 446.78L1195.32 446.55L1197.67 446.45L1199.88 446.35L1200.1 446.72L1206.47 457.1L1267.46 556.66L1389.44 755.75L1511.42 954.85L1633.25 1154.02L1876.65 1552.55L1920.93 1625.26Z" fill="url(#paint10_linear)"/>
<path d="M1920.93 1453.6V1597.56L1888.4 1544.8L1643.82 1147L1521.66 948.02L1277.62 549.88L1216.62 450.34L1214.03 446.13L1213.81 445.77L1227.39 445.2L1228.86 445.12L1229.12 445.49L1293.69 539.46L1425.92 731.89L1558.15 924.33L1690.24 1116.87L1920.93 1453.6Z" fill="url(#paint11_linear)"/>
<path d="M1920.93 1306.48V1429.12L1700.43 1109.3L1568.02 916.99L1435.75 724.57L1303.48 532.16L1243.42 444.8L1243.1 444.33L1259.53 443.41L1259.89 443.88L1318.98 520.91L1461.1 706.15L1603.23 891.4L1745.21 1076.76L1920.93 1306.48Z" fill="url(#paint12_linear)"/>
<path d="M1920.93 1178.22V1284.28L1754.99 1068.69L1612.7 883.57L1470.54 698.34L1328.43 513.11L1274.66 443.11L1274.3 442.64L1276.62 442.51L1279.51 442.34L1285.22 441.96L1292.38 441.46L1292.87 442.04L1343.32 501.11L1494.94 678.67L1646.57 856.23L1798.05 1033.9L1920.93 1178.22Z" fill="url(#paint13_linear)"/>
<path d="M1920.93 1064.79V1157.86L1807.35 1025.26L1655.56 847.85L1503.9 670.31L1352.25 492.78L1307.96 440.94L1307.47 440.35L1327.57 438.95L1328.12 439.52L1366.48 479.97L1687.9 818.73L1848.48 988.23L1920.93 1064.79Z" fill="url(#paint14_linear)"/>
<path d="M1920.93 963.27V1045.96L1857.36 979.16L1696.5 809.94L1535.76 640.57L1375.02 471.22L1343.86 438.4L1343.25 437.76L1352.84 437.01L1358.53 436.55L1361.71 436.3L1362.13 436.27L1365.7 435.98L1366.38 436.63L1388.56 457.69L1557.91 618.43L1727.27 779.17L1896.5 940.02L1920.93 963.27Z" fill="url(#paint15_linear)"/>
<path d="M1920.93 871.4V945.7L1904.89 930.51L1735.39 769.94L1566.01 609.22L1396.63 448.52L1382.72 435.33L1382.01 434.65L1391.5 433.84L1407.34 432.48L1408.14 433.16L1409.44 434.27L1586.98 585.94L1764.51 737.6L1920.93 871.4Z" fill="url(#paint16_linear)"/>
<path d="M1920.93 787.44V854.81L1772.14 727.94L1594.58 576.32L1425.23 431.7L1424.43 431.02L1435.57 430.06L1441.23 429.58L1446.61 429.12L1451.01 428.73L1452.23 428.63L1453.44 428.52H1453.45L1454.34 429.2L1614.3 551.97L1799.53 694.13L1920.93 787.44Z" fill="url(#paint17_linear)"/>
<path d="M944.28 450.45L943.76 470.23L942.23 528.59L939.16 645.28L933.03 878.69L926.9 1112.12L920.59 1345.51L907.67 1812.3L900.92 2045.68L894.02 2279.05L794.16 2273.82L811.69 2041.01L829.37 1808.19L865.31 1342.62L883.44 1109.84L901.74 877.06L920.04 644.28L929.19 527.9L933.76 469.7L935.28 450.34L943.32 450.45H944.28Z" fill="url(#paint18_linear)"/>
<path d="M923.08 450.2L921.66 468.3L917.07 526.49L907.9 642.87L889.57 875.63L871.23 1108.4L852.71 1341.16L815.38 1806.63L796.42 2039.34L777.32 2272.03L677.87 2261.58L707.57 2029.99L737.4 1798.43L797.66 1335.38L827.95 1103.87L858.4 872.37L888.86 640.87L904.09 525.12L911.7 467.25L913.96 450.09L923.08 450.2Z" fill="url(#paint19_linear)"/>
<path d="M901.7 449.92L899.69 465.19L892.07 523.07L876.82 638.81L846.32 870.31L815.82 1101.79L785.15 1333.26L723.51 1796.14L692.4 2027.54L661.15 2258.9L562.38 2243.27L604.15 2013.57L646.07 1783.88L730.48 1324.61L772.84 1095L815.37 865.4L857.9 635.82L879.17 521.03L889.8 463.64L892.36 449.81L901.7 449.92Z" fill="url(#paint20_linear)"/>
<path d="M880.01 449.66L877.91 460.97L867.27 518.36L845.98 633.15L803.41 862.73L760.84 1092.29L718.1 1321.85L632.32 1780.87L589.14 2010.31L545.82 2239.73L448.01 2218.94L501.75 1991.73L555.62 1764.56L663.96 1310.34L718.27 1083.25L772.76 856.2L827.25 629.16L854.49 515.64L868.12 458.88L870.36 449.53L873.99 449.59L880.01 449.66Z" fill="url(#paint21_linear)"/>
<path d="M857.87 449.37L856.43 455.59L815.49 625.87L760.96 852.87L706.43 1079.94L651.74 1306.94L542.05 1760.84L486.92 1987.7L431.66 2214.54L335.06 2188.66L400.62 1964.58L466.31 1740.58L598.31 1292.64L664.43 1068.68L730.69 844.8L796.99 620.91L830.14 509L846.71 453L847.86 449.13L853.63 449.27C855.04 449.31 856.43 449.35 857.87 449.37Z" fill="url(#paint22_linear)"/>
<path d="M835.25 448.81L835.17 449.09L818.58 505.06L785.42 617L719.08 840.88L652.75 1064.75L586.25 1288.55L452.96 1736.1L386.03 1959.78L318.97 2183.4L223.86 2152.51L301.06 1932.16L378.38 1711.87L533.6 1271.46L611.36 1051.29L689.28 831.19L767.2 611.09L806.16 501.03L824.74 448.55L835.25 448.81Z" fill="url(#paint23_linear)"/>
<path d="M811.94 448.23L794.83 496.53L755.83 606.58L677.83 826.67L599.83 1046.76L521.71 1266.76L365.18 1706.76L286.73 1926.61L208.06 2146.43L114.7 2110.59L203.32 1894.59L292.07 1678.64L470.13 1247L559.3 1031.22L648.64 815.49L737.97 599.76L782.64 491.85L800.82 448H801.3L811.94 448.23Z" fill="url(#paint24_linear)"/>
<path d="M787.79 447.58L771.56 486.76L726.87 594.62L637.5 810.33L548.13 1026L458.59 1241.68L279.25 1672.83L189.31 1888.29L99.2401 2103.69L7.89014 2063L107.69 1852L207.62 1641L408.03 1219.16L508.37 1008.34L608.87 797.58L709.37 586.83L759.63 481.45L775.96 447.19C779.9 447.33 783.843 447.46 787.79 447.58Z" fill="url(#paint25_linear)"/>
<path d="M762.72 446.66L748.83 475.78L698.56 581.16L598.02 791.88L497.48 1002.63L396.78 1213.28L195.12 1634.46L94.0302 1844.91L0.930176 2038.43V1829.4L14.4202 1804.36L125.26 1598.87L347.46 1188.15L458.7 982.88L570.1 777.67L681.49 572.46L737.19 469.86L750.05 446.16L762.72 446.66Z" fill="url(#paint26_linear)"/>
<path d="M736.47 445.63L726.7 463.64L670.98 566.22L448.12 976.61L336.54 1181.71L113.11 1591.74L1.14018 1796.63L0.930176 1797.01V1625.26L45.2102 1552.55L288.61 1154.02L410.44 954.85L532.42 755.75L654.4 556.66L715.39 457.1L722.75 445.09L734.04 445.55L736.47 445.63Z" fill="url(#paint27_linear)"/>
<path d="M708.88 444.41L705.24 450.35L644.24 549.89L522.22 749L400.2 948L278.04 1147L33.4302 1544.8L0.930176 1597.55V1453.55L231.61 1116.87L363.7 924.33L495.94 731.9L628.17 539.46L694.03 443.62C697.397 443.813 700.773 443.993 704.16 444.16L708.88 444.41Z" fill="url(#paint28_linear)"/>
<path d="M679.78 442.84L618.37 532.16L486.1 724.58L353.84 917L221.43 1109.31L0.930176 1429.11V1306.48L176.65 1076.77L318.65 891.41L460.75 706.16L602.88 520.91L663.5 441.91C668.927 442.237 674.353 442.547 679.78 442.84Z" fill="url(#paint29_linear)"/>
<path d="M648.82 441L593.43 513.11L451.32 698.34L309.16 883.57L166.87 1068.69L0.930176 1284.28V1178.21L123.85 1033.85L275.34 856.18L426.97 678.62L578.59 501.06L630.88 439.82H631.18L639.67 440.39C642.72 440.61 645.77 440.81 648.82 441Z" fill="url(#paint30_linear)"/>
<path d="M615.76 438.75L569.61 492.75L417.95 670.32L266.3 847.85L114.51 1025.27L0.930176 1157.85V1064.8L73.4302 988.23L234.01 818.73L394.67 649.35L555.43 480L595.95 437.28C602.544 437.76 609.147 438.25 615.76 438.75Z" fill="url(#paint31_linear)"/>
<path d="M580.29 435.98L546.84 471.22L386.1 640.57L225.36 809.94L64.5002 979.16L0.930176 1045.96V963.27L25.3602 940.02L194.59 779.17L363.94 618.43L533.3 457.69L558.08 434.16L580.29 435.98Z" fill="url(#paint32_linear)"/>
<path d="M541.89 432.7L525.23 448.52L355.85 609.22L186.46 769.94L16.9602 930.51L0.930176 945.68V871.4L157.34 737.6L334.88 585.94L512.41 434.27L516.92 430.42L525.14 431.19L541.89 432.7Z" fill="url(#paint33_linear)"/>
<path d="M500.02 428.8L327.28 576.32L149.71 727.94L0.930176 854.81V787.44L122.33 694.13L307.56 551.97L471.64 426.03L475.54 426.41L495.38 428.35L500.02 428.8Z" fill="url(#paint34_linear)"/>
</g>
<g opacity="0.2">
<ellipse cx="534.43" cy="746.5" rx="8" ry="7.5" fill="#8991FF"/>
<ellipse cx="1798" cy="746.5" rx="8" ry="7.5" fill="#8991FF"/>
<ellipse cx="380" cy="497.5" rx="8" ry="7.5" fill="#8991FF"/>
<ellipse cx="1643.57" cy="497.5" rx="8" ry="7.5" fill="#8991FF"/>
<ellipse cx="539" cy="521.5" rx="8" ry="7.5" fill="#8991FF"/>
<ellipse cx="1802.57" cy="521.5" rx="8" ry="7.5" fill="#8991FF"/>
<ellipse cx="386.075" cy="1119.77" rx="8" ry="7.5" transform="rotate(-19.8965 386.075 1119.77)" fill="#8991FF"/>
<ellipse cx="1649.64" cy="1119.77" rx="8" ry="7.5" transform="rotate(-19.8965 1649.64 1119.77)" fill="#8991FF"/>
<ellipse cx="466.075" cy="1902.77" rx="8" ry="7.5" transform="rotate(-19.8965 466.075 1902.77)" fill="#8991FF"/>
<ellipse cx="1478.07" cy="1902.77" rx="8" ry="7.5" transform="rotate(-19.8965 1478.07 1902.77)" fill="#8991FF"/>
<circle cx="829.605" cy="1132.6" r="7.5" transform="rotate(-19.8965 829.605 1132.6)" fill="#8991FF"/>
<circle cx="650.605" cy="1922.6" r="7.5" transform="rotate(-19.8965 650.605 1922.6)" fill="#8991FF"/>
<circle cx="1662.6" cy="1922.6" r="7.5" transform="rotate(-19.8965 1662.6 1922.6)" fill="#8991FF"/>
<circle cx="220.605" cy="1282.6" r="7.5" transform="rotate(-19.8965 220.605 1282.6)" fill="#8991FF"/>
<circle cx="1232.6" cy="1282.6" r="7.5" transform="rotate(-19.8965 1232.6 1282.6)" fill="#8991FF"/>
<circle cx="48.9302" cy="800.5" r="7.5" fill="#8991FF"/>
<circle cx="1312.5" cy="800.5" r="7.5" fill="#8991FF"/>
<circle cx="189.5" cy="1718.5" r="7.5" fill="#8991FF"/>
<circle cx="1201.5" cy="1718.5" r="7.5" fill="#8991FF"/>
<circle cx="293.035" cy="1477.6" r="7.5" transform="rotate(-19.8965 293.035 1477.6)" fill="#8991FF"/>
<circle cx="1298.6" cy="1489.6" r="7.5" transform="rotate(-19.8965 1298.6 1489.6)" fill="#8991FF"/>
<ellipse cx="31.4302" cy="886.5" rx="8" ry="7.5" fill="#8991FF"/>
<ellipse cx="1295" cy="886.5" rx="8" ry="7.5" fill="#8991FF"/>
<ellipse cx="543" cy="1776.5" rx="8" ry="7.5" fill="#8991FF"/>
<ellipse cx="1555" cy="1776.5" rx="8" ry="7.5" fill="#8991FF"/>
<ellipse cx="228.075" cy="1580.77" rx="8" ry="7.5" transform="rotate(-19.8965 228.075 1580.77)" fill="#8991FF"/>
<ellipse cx="1240.07" cy="1580.77" rx="8" ry="7.5" transform="rotate(-19.8965 1240.07 1580.77)" fill="#8991FF"/>
<ellipse cx="416" cy="713.5" rx="8" ry="7.5" fill="#8991FF"/>
<ellipse cx="1679.57" cy="713.5" rx="8" ry="7.5" fill="#8991FF"/>
<ellipse cx="251.43" cy="1875.5" rx="8" ry="7.5" fill="#8991FF"/>
<ellipse cx="1263.43" cy="1875.5" rx="8" ry="7.5" fill="#8991FF"/>
<ellipse cx="581.075" cy="1477.77" rx="8" ry="7.5" transform="rotate(-19.8965 581.075 1477.77)" fill="#8991FF"/>
<ellipse cx="1365.07" cy="1683.77" rx="8" ry="7.5" transform="rotate(-19.8965 1365.07 1683.77)" fill="#8991FF"/>
<ellipse cx="38.5051" cy="1588.77" rx="8" ry="7.5" transform="rotate(-19.8965 38.5051 1588.77)" fill="#8991FF"/>
<ellipse cx="1050.51" cy="1588.77" rx="8" ry="7.5" transform="rotate(-19.8965 1050.51 1588.77)" fill="#8991FF"/>
<ellipse cx="560.43" cy="818.5" rx="7" ry="7.5" fill="#8991FF"/>
<ellipse cx="1824" cy="818.5" rx="7" ry="7.5" fill="#8991FF"/>
<ellipse cx="374.43" cy="557.5" rx="7" ry="7.5" fill="#8991FF"/>
<ellipse cx="1638" cy="557.5" rx="7" ry="7.5" fill="#8991FF"/>
<ellipse cx="406.565" cy="1946.43" rx="7" ry="7.5" transform="rotate(-19.8965 406.565 1946.43)" fill="#8991FF"/>
<ellipse cx="1418.56" cy="1946.43" rx="7" ry="7.5" transform="rotate(-19.8965 1418.56 1946.43)" fill="#8991FF"/>
<ellipse cx="322.5" cy="640" rx="7.5" ry="7" fill="#8991FF"/>
<ellipse cx="1586.07" cy="640" rx="7.5" ry="7" fill="#8991FF"/>
<ellipse cx="394.93" cy="1772" rx="7.5" ry="7" fill="#8991FF"/>
<ellipse cx="1406.93" cy="1772" rx="7.5" ry="7" fill="#8991FF"/>
<ellipse cx="615.435" cy="1236.13" rx="7.5" ry="7" transform="rotate(-19.8965 615.435 1236.13)" fill="#8991FF"/>
<ellipse cx="1605.43" cy="1199.13" rx="7.5" ry="7" transform="rotate(-19.8965 1605.43 1199.13)" fill="#8991FF"/>
<ellipse cx="341.89" cy="1038" rx="7.5" ry="7" transform="rotate(-19.8965 341.89 1038)" fill="#8991FF"/>
<ellipse cx="1605.46" cy="1038" rx="7.5" ry="7" transform="rotate(-19.8965 1605.46 1038)" fill="#8991FF"/>
<ellipse cx="368.435" cy="1856.13" rx="7.5" ry="7" transform="rotate(-19.8965 368.435 1856.13)" fill="#8991FF"/>
<ellipse cx="1380.43" cy="1856.13" rx="7.5" ry="7" transform="rotate(-19.8965 1380.43 1856.13)" fill="#8991FF"/>
<ellipse cx="122.93" cy="1103" rx="7.5" ry="7" fill="#8991FF"/>
<ellipse cx="1386.5" cy="1103" rx="7.5" ry="7" fill="#8991FF"/>
<ellipse cx="108.5" cy="1896" rx="7.5" ry="7" fill="#8991FF"/>
<ellipse cx="1120.5" cy="1896" rx="7.5" ry="7" fill="#8991FF"/>
<ellipse cx="524.914" cy="2000.03" rx="7.5" ry="8" transform="rotate(-19.8965 524.914 2000.03)" fill="#8991FF"/>
<ellipse cx="1536.91" cy="2000.03" rx="7.5" ry="8" transform="rotate(-19.8965 1536.91 2000.03)" fill="#8991FF"/>
<ellipse cx="107.205" cy="1331.07" rx="7.5" ry="8" transform="rotate(-19.8965 107.205 1331.07)" fill="#8991FF"/>
<ellipse cx="1119.21" cy="1331.07" rx="7.5" ry="8" transform="rotate(-19.8965 1119.21 1331.07)" fill="#8991FF"/>
<ellipse cx="209.5" cy="785" rx="7.5" ry="8" fill="#8991FF"/>
<ellipse cx="1473.07" cy="785" rx="7.5" ry="8" fill="#8991FF"/>
<ellipse cx="55.9302" cy="1051" rx="7.5" ry="8" fill="#8991FF"/>
<ellipse cx="1319.5" cy="1051" rx="7.5" ry="8" fill="#8991FF"/>
<ellipse cx="33.9302" cy="1839" rx="7.5" ry="8" fill="#8991FF"/>
<ellipse cx="1045.93" cy="1839" rx="7.5" ry="8" fill="#8991FF"/>
<ellipse cx="49.5" cy="1743" rx="7.5" ry="8" fill="#8991FF"/>
<ellipse cx="1061.5" cy="1743" rx="7.5" ry="8" fill="#8991FF"/>
<ellipse cx="407.93" cy="609" rx="4.5" ry="5" fill="#8991FF"/>
<ellipse cx="1671.5" cy="609" rx="4.5" ry="5" fill="#8991FF"/>
<ellipse cx="447.933" cy="1175.23" rx="4.5" ry="5" transform="rotate(-19.8965 447.933 1175.23)" fill="#8991FF"/>
<ellipse cx="1459.93" cy="1175.23" rx="4.5" ry="5" transform="rotate(-19.8965 1459.93 1175.23)" fill="#8991FF"/>
<ellipse cx="468.387" cy="1979.01" rx="4.5" ry="5" transform="rotate(-19.8965 468.387 1979.01)" fill="#8991FF"/>
<ellipse cx="1480.39" cy="1979.01" rx="4.5" ry="5" transform="rotate(-19.8965 1480.39 1979.01)" fill="#8991FF"/>
<ellipse cx="56.3632" cy="1296.23" rx="4.5" ry="5" transform="rotate(-19.8965 56.3632 1296.23)" fill="#8991FF"/>
<ellipse cx="1068.36" cy="1296.23" rx="4.5" ry="5" transform="rotate(-19.8965 1068.36 1296.23)" fill="#8991FF"/>
<circle cx="578.43" cy="945" r="5" fill="#8991FF"/>
<circle cx="1842" cy="945" r="5" fill="#8991FF"/>
<circle cx="286.43" cy="1822" r="5" fill="#8991FF"/>
<circle cx="1298.43" cy="1822" r="5" fill="#8991FF"/>
<circle cx="752.833" cy="1444.4" r="5" transform="rotate(-19.8965 752.833 1444.4)" fill="#8991FF"/>
<circle cx="1764.83" cy="1444.4" r="5" transform="rotate(-19.8965 1764.83 1444.4)" fill="#8991FF"/>
<circle cx="479.337" cy="1248.81" r="5" transform="rotate(-19.8965 479.337 1248.81)" fill="#8991FF"/>
<circle cx="1491.34" cy="1248.81" r="5" transform="rotate(-19.8965 1491.34 1248.81)" fill="#8991FF"/>
<circle cx="127.833" cy="1447.4" r="5" transform="rotate(-19.8965 127.833 1447.4)" fill="#8991FF"/>
<circle cx="1139.83" cy="1447.4" r="5" transform="rotate(-19.8965 1139.83 1447.4)" fill="#8991FF"/>
<circle cx="510.93" cy="828.5" r="2.5" fill="#8991FF"/>
<circle cx="1774.5" cy="828.5" r="2.5" fill="#8991FF"/>
<circle cx="324.93" cy="567.5" r="2.5" fill="#8991FF"/>
<circle cx="1588.5" cy="567.5" r="2.5" fill="#8991FF"/>
<circle cx="218.93" cy="899.5" r="2.5" fill="#8991FF"/>
<circle cx="1482.5" cy="899.5" r="2.5" fill="#8991FF"/>
<circle cx="373.632" cy="2009.2" r="2.5" transform="rotate(-19.8965 373.632 2009.2)" fill="#8991FF"/>
<circle cx="1385.63" cy="2009.2" r="2.5" transform="rotate(-19.8965 1385.63 2009.2)" fill="#8991FF"/>
<ellipse cx="406.93" cy="955" rx="4.5" ry="5" fill="#8991FF"/>
<ellipse cx="1670.5" cy="955" rx="4.5" ry="5" fill="#8991FF"/>
<ellipse cx="589.933" cy="1126.23" rx="4.5" ry="5" transform="rotate(-19.8965 589.933 1126.23)" fill="#8991FF"/>
<ellipse cx="1853.5" cy="1126.23" rx="4.5" ry="5" transform="rotate(-19.8965 1853.5 1126.23)" fill="#8991FF"/>
<ellipse cx="571.884" cy="1956.44" rx="4.5" ry="5" transform="rotate(-19.8965 571.884 1956.44)" fill="#8991FF"/>
<ellipse cx="1583.88" cy="1956.44" rx="4.5" ry="5" transform="rotate(-19.8965 1583.88 1956.44)" fill="#8991FF"/>
<ellipse cx="467.933" cy="1503.23" rx="4.5" ry="5" transform="rotate(-19.8965 467.933 1503.23)" fill="#8991FF"/>
<ellipse cx="1519.93" cy="1517.23" rx="4.5" ry="5" transform="rotate(-19.8965 1519.93 1517.23)" fill="#8991FF"/>
<ellipse cx="204.5" cy="684" rx="4.5" ry="5" fill="#8991FF"/>
<ellipse cx="1468.07" cy="684" rx="4.5" ry="5" fill="#8991FF"/>
<ellipse cx="114.93" cy="1832" rx="4.5" ry="5" fill="#8991FF"/>
<ellipse cx="1126.93" cy="1832" rx="4.5" ry="5" fill="#8991FF"/>
<ellipse cx="123.5" cy="1762" rx="4.5" ry="5" fill="#8991FF"/>
<ellipse cx="1135.5" cy="1762" rx="4.5" ry="5" fill="#8991FF"/>
<ellipse cx="14.9302" cy="1675" rx="4.5" ry="5" fill="#8991FF"/>
<ellipse cx="1026.93" cy="1675" rx="4.5" ry="5" fill="#8991FF"/>
<ellipse cx="480.93" cy="775" rx="2.5" ry="3" fill="#8991FF"/>
<ellipse cx="1744.5" cy="775" rx="2.5" ry="3" fill="#8991FF"/>
<ellipse cx="574.5" cy="586" rx="2.5" ry="3" fill="#8991FF"/>
<ellipse cx="1838.07" cy="586" rx="2.5" ry="3" fill="#8991FF"/>
<ellipse cx="188.93" cy="846" rx="2.5" ry="3" fill="#8991FF"/>
<ellipse cx="1452.5" cy="846" rx="2.5" ry="3" fill="#8991FF"/>
<ellipse cx="903.802" cy="1292.14" rx="2.5" ry="3" transform="rotate(-19.8965 903.802 1292.14)" fill="#8991FF"/>
<ellipse cx="1915.8" cy="1292.14" rx="2.5" ry="3" transform="rotate(-19.8965 1915.8 1292.14)" fill="#8991FF"/>
<ellipse cx="329.802" cy="1928.14" rx="2.5" ry="3" transform="rotate(-19.8965 329.802 1928.14)" fill="#8991FF"/>
<ellipse cx="1341.8" cy="1928.14" rx="2.5" ry="3" transform="rotate(-19.8965 1341.8 1928.14)" fill="#8991FF"/>
<ellipse cx="551.93" cy="893" rx="3.5" ry="3" fill="#8991FF"/>
<ellipse cx="1815.5" cy="893" rx="3.5" ry="3" fill="#8991FF"/>
<ellipse cx="289.312" cy="1131.01" rx="3.5" ry="3" transform="rotate(-19.8965 289.312 1131.01)" fill="#8991FF"/>
<ellipse cx="1552.88" cy="1131.01" rx="3.5" ry="3" transform="rotate(-19.8965 1552.88 1131.01)" fill="#8991FF"/>
<ellipse cx="316.742" cy="1989.01" rx="3.5" ry="3" transform="rotate(-19.8965 316.742 1989.01)" fill="#8991FF"/>
<ellipse cx="1328.74" cy="1989.01" rx="3.5" ry="3" transform="rotate(-19.8965 1328.74 1989.01)" fill="#8991FF"/>
<ellipse cx="26.7217" cy="1352.93" rx="3.5" ry="3" transform="rotate(-19.8965 26.7217 1352.93)" fill="#8991FF"/>
<ellipse cx="1038.72" cy="1352.93" rx="3.5" ry="3" transform="rotate(-19.8965 1038.72 1352.93)" fill="#8991FF"/>
<ellipse cx="677.742" cy="1101.01" rx="3.5" ry="3" transform="rotate(-19.8965 677.742 1101.01)" fill="#8991FF"/>
<ellipse cx="226.5" cy="1801" rx="3.5" ry="3" fill="#8991FF"/>
<ellipse cx="1238.5" cy="1801" rx="3.5" ry="3" fill="#8991FF"/>
<ellipse cx="395.312" cy="1279.01" rx="3.5" ry="3" transform="rotate(-19.8965 395.312 1279.01)" fill="#8991FF"/>
<ellipse cx="1323.31" cy="1255.01" rx="3.5" ry="3" transform="rotate(-19.8965 1323.31 1255.01)" fill="#8991FF"/>
<ellipse cx="26.7422" cy="1421.01" rx="3.5" ry="3" transform="rotate(-19.8965 26.7422 1421.01)" fill="#8991FF"/>
<ellipse cx="1038.74" cy="1421.01" rx="3.5" ry="3" transform="rotate(-19.8965 1038.74 1421.01)" fill="#8991FF"/>
<ellipse cx="318.5" cy="913" rx="3.5" ry="3" fill="#8991FF"/>
<ellipse cx="1582.07" cy="913" rx="3.5" ry="3" fill="#8991FF"/>
<ellipse cx="524.42" cy="1931.08" rx="3.5" ry="3" transform="rotate(-19.8965 524.42 1931.08)" fill="#8991FF"/>
<ellipse cx="1536.42" cy="1931.08" rx="3.5" ry="3" transform="rotate(-19.8965 1536.42 1931.08)" fill="#8991FF"/>
<ellipse cx="114.42" cy="1269.08" rx="3.5" ry="3" transform="rotate(-19.8965 114.42 1269.08)" fill="#8991FF"/>
<ellipse cx="1126.42" cy="1269.08" rx="3.5" ry="3" transform="rotate(-19.8965 1126.42 1269.08)" fill="#8991FF"/>
<ellipse cx="228.631" cy="1195.31" rx="6" ry="5.5" transform="rotate(-19.8965 228.631 1195.31)" fill="#8991FF"/>
<ellipse cx="1240.63" cy="1195.31" rx="6" ry="5.5" transform="rotate(-19.8965 1240.63 1195.31)" fill="#8991FF"/>
<ellipse cx="265" cy="985.5" rx="6" ry="5.5" fill="#8991FF"/>
<ellipse cx="1528.57" cy="985.5" rx="6" ry="5.5" fill="#8991FF"/>
<ellipse cx="476" cy="1721.5" rx="6" ry="5.5" fill="#8991FF"/>
<ellipse cx="1488" cy="1721.5" rx="6" ry="5.5" fill="#8991FF"/>
<ellipse cx="639.914" cy="1163.57" rx="6" ry="5.5" transform="rotate(-19.8965 639.914 1163.57)" fill="#8991FF"/>
<ellipse cx="1651.91" cy="1163.57" rx="6" ry="5.5" transform="rotate(-19.8965 1651.91 1163.57)" fill="#8991FF"/>
<ellipse cx="461.514" cy="1591.21" rx="6" ry="5.5" transform="rotate(-19.8965 461.514 1591.21)" fill="#8991FF"/>
<ellipse cx="1473.51" cy="1591.21" rx="6" ry="5.5" transform="rotate(-19.8965 1473.51 1591.21)" fill="#8991FF"/>
<ellipse cx="302" cy="719.5" rx="6" ry="5.5" fill="#8991FF"/>
<ellipse cx="1565.57" cy="719.5" rx="6" ry="5.5" fill="#8991FF"/>
<ellipse cx="196" cy="1031.5" rx="6" ry="5.5" fill="#8991FF"/>
<ellipse cx="1459.57" cy="1031.5" rx="6" ry="5.5" fill="#8991FF"/>
<ellipse cx="174.43" cy="1867.5" rx="6" ry="5.5" fill="#8991FF"/>
<ellipse cx="1186.43" cy="1867.5" rx="6" ry="5.5" fill="#8991FF"/>
<ellipse cx="283" cy="1742.5" rx="6" ry="5.5" fill="#8991FF"/>
<ellipse cx="1295" cy="1742.5" rx="6" ry="5.5" fill="#8991FF"/>
<ellipse cx="102" cy="1664.5" rx="6" ry="5.5" fill="#8991FF"/>
<ellipse cx="1114" cy="1664.5" rx="6" ry="5.5" fill="#8991FF"/>
<ellipse cx="347.514" cy="1571.21" rx="6" ry="5.5" transform="rotate(-19.8965 347.514 1571.21)" fill="#8991FF"/>
<ellipse cx="1359.51" cy="1571.21" rx="6" ry="5.5" transform="rotate(-19.8965 1359.51 1571.21)" fill="#8991FF"/>
<ellipse cx="495" cy="926.5" rx="6" ry="5.5" fill="#8991FF"/>
<ellipse cx="1758.57" cy="926.5" rx="6" ry="5.5" fill="#8991FF"/>
<ellipse cx="605.514" cy="1019.21" rx="6" ry="5.5" transform="rotate(-19.8965 605.514 1019.21)" fill="#8991FF"/>
<ellipse cx="1869.08" cy="1019.21" rx="6" ry="5.5" transform="rotate(-19.8965 1869.08 1019.21)" fill="#8991FF"/>
<ellipse cx="595.514" cy="1827.21" rx="6" ry="5.5" transform="rotate(-19.8965 595.514 1827.21)" fill="#8991FF"/>
<ellipse cx="1607.51" cy="1827.21" rx="6" ry="5.5" transform="rotate(-19.8965 1607.51 1827.21)" fill="#8991FF"/>
<ellipse cx="171.944" cy="1161.21" rx="6" ry="5.5" transform="rotate(-19.8965 171.944 1161.21)" fill="#8991FF"/>
<ellipse cx="1183.94" cy="1161.21" rx="6" ry="5.5" transform="rotate(-19.8965 1183.94 1161.21)" fill="#8991FF"/>
<ellipse cx="532" cy="655.5" rx="6" ry="5.5" fill="#8991FF"/>
<ellipse cx="1795.57" cy="655.5" rx="6" ry="5.5" fill="#8991FF"/>
<ellipse cx="117" cy="899.5" rx="6" ry="5.5" fill="#8991FF"/>
<ellipse cx="1380.57" cy="899.5" rx="6" ry="5.5" fill="#8991FF"/>
<ellipse cx="339.514" cy="1187.21" rx="6" ry="5.5" transform="rotate(-19.8965 339.514 1187.21)" fill="#8991FF"/>
<ellipse cx="1351.51" cy="1187.21" rx="6" ry="5.5" transform="rotate(-19.8965 1351.51 1187.21)" fill="#8991FF"/>
<circle cx="513.684" cy="1104.68" r="6" transform="rotate(-19.8965 513.684 1104.68)" fill="#8991FF"/>
<circle cx="1777.25" cy="1104.68" r="6" transform="rotate(-19.8965 1777.25 1104.68)" fill="#8991FF"/>
<circle cx="559.717" cy="1894.91" r="6" transform="rotate(-19.8965 559.717 1894.91)" fill="#8991FF"/>
<circle cx="1571.72" cy="1894.91" r="6" transform="rotate(-19.8965 1571.72 1894.91)" fill="#8991FF"/>
<circle cx="228" cy="578" r="6" fill="#8991FF"/>
<circle cx="1491.57" cy="578" r="6" fill="#8991FF"/>
<circle cx="124.43" cy="964" r="6" fill="#8991FF"/>
<circle cx="1388" cy="964" r="6" fill="#8991FF"/>
<circle cx="335" cy="825" r="4" fill="#8991FF"/>
<circle cx="1598.57" cy="825" r="4" fill="#8991FF"/>
<circle cx="469.123" cy="1818.12" r="4" transform="rotate(-19.8965 469.123 1818.12)" fill="#8991FF"/>
<circle cx="1481.12" cy="1818.12" r="4" transform="rotate(-19.8965 1481.12 1818.12)" fill="#8991FF"/>
<circle cx="99.5527" cy="1182.12" r="4" transform="rotate(-19.8965 99.5527 1182.12)" fill="#8991FF"/>
<circle cx="1111.55" cy="1182.12" r="4" transform="rotate(-19.8965 1111.55 1182.12)" fill="#8991FF"/>
<circle cx="170.123" cy="1950.12" r="4" transform="rotate(-19.8965 170.123 1950.12)" fill="#8991FF"/>
<circle cx="1182.12" cy="1950.12" r="4" transform="rotate(-19.8965 1182.12 1950.12)" fill="#8991FF"/>
<circle cx="626" cy="884" r="4" fill="#8991FF"/>
<circle cx="1889.57" cy="884" r="4" fill="#8991FF"/>
<circle cx="277.43" cy="1919" r="4" fill="#8991FF"/>
<circle cx="1289.43" cy="1919" r="4" fill="#8991FF"/>
<circle cx="474.123" cy="1329.12" r="4" transform="rotate(-19.8965 474.123 1329.12)" fill="#8991FF"/>
<circle cx="1424.12" cy="1375.12" r="4" transform="rotate(-19.8965 1424.12 1375.12)" fill="#8991FF"/>
<circle cx="137.553" cy="1516.12" r="4" transform="rotate(-19.8965 137.553 1516.12)" fill="#8991FF"/>
<circle cx="1149.55" cy="1516.12" r="4" transform="rotate(-19.8965 1149.55 1516.12)" fill="#8991FF"/>
<circle cx="517" cy="1022" r="4" fill="#8991FF"/>
<circle cx="1780.57" cy="1022" r="4" fill="#8991FF"/>
<circle cx="704.122" cy="1215.12" r="4" transform="rotate(-19.8965 704.122 1215.12)" fill="#8991FF"/>
<circle cx="1716.12" cy="1215.12" r="4" transform="rotate(-19.8965 1716.12 1215.12)" fill="#8991FF"/>
<circle cx="306.123" cy="1404.12" r="4" transform="rotate(-19.8965 306.123 1404.12)" fill="#8991FF"/>
<circle cx="1316.12" cy="1390.12" r="4" transform="rotate(-19.8965 1316.12 1390.12)" fill="#8991FF"/>
<circle cx="409.553" cy="1033.12" r="4" transform="rotate(-19.8965 409.553 1033.12)" fill="#8991FF"/>
<circle cx="1673.12" cy="1033.12" r="4" transform="rotate(-19.8965 1673.12 1033.12)" fill="#8991FF"/>
<circle cx="409.553" cy="1033.12" r="4" transform="rotate(-19.8965 409.553 1033.12)" fill="#8991FF"/>
<circle cx="1673.12" cy="1033.12" r="4" transform="rotate(-19.8965 1673.12 1033.12)" fill="#8991FF"/>
<circle cx="25.5527" cy="965.123" r="4" transform="rotate(-19.8965 25.5527 965.123)" fill="#8991FF"/>
<circle cx="1037.55" cy="965.123" r="4" transform="rotate(-19.8965 1037.55 965.123)" fill="#8991FF"/>
<circle cx="40.5527" cy="1151.12" r="4" transform="rotate(-19.8965 40.5527 1151.12)" fill="#8991FF"/>
<circle cx="1052.55" cy="1151.12" r="4" transform="rotate(-19.8965 1052.55 1151.12)" fill="#8991FF"/>
<circle cx="14.1225" cy="1947.12" r="4" transform="rotate(-19.8965 14.1225 1947.12)" fill="#8991FF"/>
<circle cx="1026.12" cy="1947.12" r="4" transform="rotate(-19.8965 1026.12 1947.12)" fill="#8991FF"/>
<circle cx="207.43" cy="1105" r="4" fill="#8991FF"/>
<circle cx="1471" cy="1105" r="4" fill="#8991FF"/>
<circle cx="207.43" cy="1911" r="4" fill="#8991FF"/>
<circle cx="1219.43" cy="1911" r="4" fill="#8991FF"/>
<circle cx="511.553" cy="1397.12" r="4" transform="rotate(-19.8965 511.553 1397.12)" fill="#8991FF"/>
<circle cx="1523.55" cy="1397.12" r="4" transform="rotate(-19.8965 1523.55 1397.12)" fill="#8991FF"/>
<circle cx="25.3408" cy="1503.38" r="4" transform="rotate(-19.8965 25.3408 1503.38)" fill="#8991FF"/>
<circle cx="1037.34" cy="1503.38" r="4" transform="rotate(-19.8965 1037.34 1503.38)" fill="#8991FF"/>
<circle cx="430.43" cy="811" r="4" fill="#8991FF"/>
<circle cx="1694" cy="811" r="4" fill="#8991FF"/>
<circle cx="224" cy="508" r="4" fill="#8991FF"/>
<circle cx="1487.57" cy="508" r="4" fill="#8991FF"/>
<circle cx="499" cy="602" r="4" fill="#8991FF"/>
<circle cx="1762.57" cy="602" r="4" fill="#8991FF"/>
<circle cx="40.5527" cy="1229.12" r="4" transform="rotate(-19.8965 40.5527 1229.12)" fill="#8991FF"/>
<circle cx="1052.55" cy="1229.12" r="4" transform="rotate(-19.8965 1052.55 1229.12)" fill="#8991FF"/>
<circle cx="626.035" cy="515.605" r="7.5" transform="rotate(-19.8965 626.035 515.605)" fill="#8991FF"/>
<circle cx="1889.6" cy="515.605" r="7.5" transform="rotate(-19.8965 1889.6 515.605)" fill="#8991FF"/>
<ellipse cx="292.041" cy="450.888" rx="8" ry="7.5" transform="rotate(-19.8965 292.041 450.888)" fill="#8991FF"/>
<ellipse cx="1555.61" cy="450.888" rx="8" ry="7.5" transform="rotate(-19.8965 1555.61 450.888)" fill="#8991FF"/>
<ellipse cx="126.075" cy="543.775" rx="8" ry="7.5" transform="rotate(-19.8965 126.075 543.775)" fill="#8991FF"/>
<ellipse cx="1389.64" cy="543.775" rx="8" ry="7.5" transform="rotate(-19.8965 1389.64 543.775)" fill="#8991FF"/>
<ellipse cx="45.3871" cy="479.008" rx="4.5" ry="5" transform="rotate(-19.8965 45.3871 479.008)" fill="#8991FF"/>
<ellipse cx="1308.96" cy="479.008" rx="4.5" ry="5" transform="rotate(-19.8965 1308.96 479.008)" fill="#8991FF"/>
<ellipse cx="451.742" cy="554.012" rx="3.5" ry="3" transform="rotate(-19.8965 451.742 554.012)" fill="#8991FF"/>
<ellipse cx="1715.31" cy="554.012" rx="3.5" ry="3" transform="rotate(-19.8965 1715.31 554.012)" fill="#8991FF"/>
<ellipse cx="66.312" cy="591.012" rx="3.5" ry="3" transform="rotate(-19.8965 66.312 591.012)" fill="#8991FF"/>
<ellipse cx="1329.88" cy="591.012" rx="3.5" ry="3" transform="rotate(-19.8965 1329.88 591.012)" fill="#8991FF"/>
<ellipse cx="129.312" cy="449.012" rx="3.5" ry="3" transform="rotate(-19.8965 129.312 449.012)" fill="#8991FF"/>
<ellipse cx="43.9438" cy="680.214" rx="6" ry="5.5" transform="rotate(-19.8965 43.9438 680.214)" fill="#8991FF"/>
<ellipse cx="1307.51" cy="680.214" rx="6" ry="5.5" transform="rotate(-19.8965 1307.51 680.214)" fill="#8991FF"/>
<circle cx="462.114" cy="475.684" r="6" transform="rotate(-19.8965 462.114 475.684)" fill="#8991FF"/>
<circle cx="1725.68" cy="475.684" r="6" transform="rotate(-19.8965 1725.68 475.684)" fill="#8991FF"/>
<circle cx="121.553" cy="657.123" r="4" transform="rotate(-19.8965 121.553 657.123)" fill="#8991FF"/>
<circle cx="1385.12" cy="657.123" r="4" transform="rotate(-19.8965 1385.12 657.123)" fill="#8991FF"/>
<circle cx="114.123" cy="749.122" r="4" transform="rotate(-19.8965 114.123 749.122)" fill="#8991FF"/>
<circle cx="1377.69" cy="749.122" r="4" transform="rotate(-19.8965 1377.69 749.122)" fill="#8991FF"/>
<circle cx="831.035" cy="2200.6" r="7.5" transform="rotate(-19.8965 831.035 2200.6)" fill="#8991FF"/>
<ellipse cx="1241.51" cy="2243.78" rx="8" ry="7.5" transform="rotate(-19.8965 1241.51 2243.78)" fill="#8991FF"/>
<ellipse cx="635.565" cy="2200.43" rx="7" ry="7.5" transform="rotate(-19.8965 635.565 2200.43)" fill="#8991FF"/>
<ellipse cx="934.435" cy="2162.13" rx="7.5" ry="7" transform="rotate(-19.8965 934.435 2162.13)" fill="#8991FF"/>
<ellipse cx="689.363" cy="2233.23" rx="4.5" ry="5" transform="rotate(-19.8965 689.363 2233.23)" fill="#8991FF"/>
<ellipse cx="1225.31" cy="2067.01" rx="3.5" ry="3" transform="rotate(-19.8965 1225.31 2067.01)" fill="#8991FF"/>
<ellipse cx="1030.74" cy="2207.01" rx="3.5" ry="3" transform="rotate(-19.8965 1030.74 2207.01)" fill="#8991FF"/>
<ellipse cx="1193.21" cy="2214.9" rx="3.5" ry="3" transform="rotate(-19.8965 1193.21 2214.9)" fill="#8991FF"/>
<ellipse cx="709.742" cy="2190.01" rx="3.5" ry="3" transform="rotate(-19.8965 709.742 2190.01)" fill="#8991FF"/>
<ellipse cx="1190.51" cy="2161.21" rx="6" ry="5.5" transform="rotate(-19.8965 1190.51 2161.21)" fill="#8991FF"/>
<ellipse cx="1125.51" cy="2101.21" rx="6" ry="5.5" transform="rotate(-19.8965 1125.51 2101.21)" fill="#8991FF"/>
<circle cx="770.684" cy="2150.68" r="6" transform="rotate(-19.8965 770.684 2150.68)" fill="#8991FF"/>
<circle cx="1066.68" cy="2167.68" r="6" transform="rotate(-19.8965 1066.68 2167.68)" fill="#8991FF"/>
<circle cx="735.122" cy="2070.12" r="4" transform="rotate(-19.8965 735.122 2070.12)" fill="#8991FF"/>
<circle cx="1048.12" cy="2063.12" r="4" transform="rotate(-19.8965 1048.12 2063.12)" fill="#8991FF"/>
<circle cx="638.122" cy="2080.12" r="4" transform="rotate(-19.8965 638.122 2080.12)" fill="#8991FF"/>
<circle cx="833.122" cy="2075.12" r="4" transform="rotate(-19.8965 833.122 2075.12)" fill="#8991FF"/>
<circle cx="648.987" cy="2150.73" r="4" transform="rotate(-19.8965 648.987 2150.73)" fill="#8991FF"/>
<circle cx="966.553" cy="2203.12" r="4" transform="rotate(-19.8965 966.553 2203.12)" fill="#8991FF"/>
<ellipse cx="705.505" cy="734.775" rx="8" ry="7.5" transform="rotate(-19.8965 705.505 734.775)" fill="#8991FF"/>
<ellipse cx="671.129" cy="644.793" rx="3.5" ry="3" transform="rotate(-19.8965 671.129 644.793)" fill="#8991FF"/>
<ellipse cx="622.631" cy="653.306" rx="6" ry="5.5" transform="rotate(-19.8965 622.631 653.306)" fill="#8991FF"/>
<ellipse cx="1886.2" cy="653.306" rx="6" ry="5.5" transform="rotate(-19.8965 1886.2 653.306)" fill="#8991FF"/>
<ellipse cx="623.914" cy="765.57" rx="6" ry="5.5" transform="rotate(-19.8965 623.914 765.57)" fill="#8991FF"/>
<ellipse cx="1887.48" cy="765.57" rx="6" ry="5.5" transform="rotate(-19.8965 1887.48 765.57)" fill="#8991FF"/>
<circle cx="653.553" cy="999.122" r="4" transform="rotate(-19.8965 653.553 999.122)" fill="#8991FF"/>
<ellipse cx="644.451" cy="1675.77" rx="8" ry="7.5" transform="rotate(-19.8965 644.451 1675.77)" fill="#8991FF"/>
<ellipse cx="1424.07" cy="1441.77" rx="8" ry="7.5" transform="rotate(-19.8965 1424.07 1441.77)" fill="#8991FF"/>
<ellipse cx="884.075" cy="1227.77" rx="8" ry="7.5" transform="rotate(-19.8965 884.075 1227.77)" fill="#8991FF"/>
<ellipse cx="1896.07" cy="1227.77" rx="8" ry="7.5" transform="rotate(-19.8965 1896.07 1227.77)" fill="#8991FF"/>
<ellipse cx="662.505" cy="1288.77" rx="8" ry="7.5" transform="rotate(-19.8965 662.505 1288.77)" fill="#8991FF"/>
<ellipse cx="1568.07" cy="1621.77" rx="8" ry="7.5" transform="rotate(-19.8965 1568.07 1621.77)" fill="#8991FF"/>
<ellipse cx="633.135" cy="1741.43" rx="7" ry="7.5" transform="rotate(-19.8965 633.135 1741.43)" fill="#8991FF"/>
<ellipse cx="1645.13" cy="1741.43" rx="7" ry="7.5" transform="rotate(-19.8965 1645.13 1741.43)" fill="#8991FF"/>
<ellipse cx="863.36" cy="1310.98" rx="7" ry="7.5" transform="rotate(-19.8965 863.36 1310.98)" fill="#8991FF"/>
<ellipse cx="1875.36" cy="1310.98" rx="7" ry="7.5" transform="rotate(-19.8965 1875.36 1310.98)" fill="#8991FF"/>
<ellipse cx="743.135" cy="1309.43" rx="7" ry="7.5" transform="rotate(-19.8965 743.135 1309.43)" fill="#8991FF"/>
<ellipse cx="1755.13" cy="1355.43" rx="7" ry="7.5" transform="rotate(-19.8965 1755.13 1355.43)" fill="#8991FF"/>
<ellipse cx="918.435" cy="1736.13" rx="7.5" ry="7" transform="rotate(-19.8965 918.435 1736.13)" fill="#8991FF"/>
<ellipse cx="797.865" cy="1548.13" rx="7.5" ry="7" transform="rotate(-19.8965 797.865 1548.13)" fill="#8991FF"/>
<ellipse cx="1831.43" cy="1564.13" rx="7.5" ry="7" transform="rotate(-19.8965 1831.43 1564.13)" fill="#8991FF"/>
<ellipse cx="620.865" cy="1604.13" rx="7.5" ry="7" transform="rotate(-19.8965 620.865 1604.13)" fill="#8991FF"/>
<ellipse cx="1642.43" cy="1572.13" rx="7.5" ry="7" transform="rotate(-19.8965 1642.43 1572.13)" fill="#8991FF"/>
<ellipse cx="807.435" cy="1245.13" rx="7.5" ry="7" transform="rotate(-19.8965 807.435 1245.13)" fill="#8991FF"/>
<ellipse cx="1819.43" cy="1245.13" rx="7.5" ry="7" transform="rotate(-19.8965 1819.43 1245.13)" fill="#8991FF"/>
<ellipse cx="522.435" cy="1206.13" rx="7.5" ry="7" transform="rotate(-19.8965 522.435 1206.13)" fill="#8991FF"/>
<ellipse cx="1534.43" cy="1206.13" rx="7.5" ry="7" transform="rotate(-19.8965 1534.43 1206.13)" fill="#8991FF"/>
<ellipse cx="816.775" cy="1775.07" rx="7.5" ry="8" transform="rotate(-19.8965 816.775 1775.07)" fill="#8991FF"/>
<ellipse cx="1828.77" cy="1775.07" rx="7.5" ry="8" transform="rotate(-19.8965 1828.77 1775.07)" fill="#8991FF"/>
<ellipse cx="743.933" cy="1734.23" rx="4.5" ry="5" transform="rotate(-19.8965 743.933 1734.23)" fill="#8991FF"/>
<ellipse cx="1755.93" cy="1734.23" rx="4.5" ry="5" transform="rotate(-19.8965 1755.93 1734.23)" fill="#8991FF"/>
<circle cx="746.833" cy="1829.4" r="5" transform="rotate(-19.8965 746.833 1829.4)" fill="#8991FF"/>
<circle cx="1758.83" cy="1829.4" r="5" transform="rotate(-19.8965 1758.83 1829.4)" fill="#8991FF"/>
<circle cx="858.202" cy="1812.2" r="2.5" transform="rotate(-19.8965 858.202 1812.2)" fill="#8991FF"/>
<circle cx="1870.2" cy="1812.2" r="2.5" transform="rotate(-19.8965 1870.2 1812.2)" fill="#8991FF"/>
<circle cx="820.218" cy="1337.23" r="2.5" transform="rotate(-19.8965 820.218 1337.23)" fill="#8991FF"/>
<circle cx="1886.2" cy="1379.2" r="2.5" transform="rotate(-19.8965 1886.2 1379.2)" fill="#8991FF"/>
<circle cx="613.632" cy="1392.2" r="2.5" transform="rotate(-19.8965 613.632 1392.2)" fill="#8991FF"/>
<circle cx="1625.63" cy="1392.2" r="2.5" transform="rotate(-19.8965 1625.63 1392.2)" fill="#8991FF"/>
<ellipse cx="561.372" cy="1694.67" rx="2.5" ry="3" transform="rotate(-19.8965 561.372 1694.67)" fill="#8991FF"/>
<ellipse cx="1573.37" cy="1694.67" rx="2.5" ry="3" transform="rotate(-19.8965 1573.37 1694.67)" fill="#8991FF"/>
<ellipse cx="788.802" cy="1322.67" rx="2.5" ry="3" transform="rotate(-19.8965 788.802 1322.67)" fill="#8991FF"/>
<ellipse cx="1638.37" cy="1480.67" rx="2.5" ry="3" transform="rotate(-19.8965 1638.37 1480.67)" fill="#8991FF"/>
<ellipse cx="606.802" cy="1297.14" rx="2.5" ry="3" transform="rotate(-19.8965 606.802 1297.14)" fill="#8991FF"/>
<ellipse cx="1638.37" cy="1318.67" rx="2.5" ry="3" transform="rotate(-19.8965 1638.37 1318.67)" fill="#8991FF"/>
<ellipse cx="708.722" cy="1801.93" rx="3.5" ry="3" transform="rotate(-19.8965 708.722 1801.93)" fill="#8991FF"/>
<ellipse cx="1720.72" cy="1801.93" rx="3.5" ry="3" transform="rotate(-19.8965 1720.72 1801.93)" fill="#8991FF"/>
<ellipse cx="909.742" cy="1847.01" rx="3.5" ry="3" transform="rotate(-19.8965 909.742 1847.01)" fill="#8991FF"/>
<ellipse cx="701.742" cy="1867.01" rx="3.5" ry="3" transform="rotate(-19.8965 701.742 1867.01)" fill="#8991FF"/>
<ellipse cx="1713.74" cy="1867.01" rx="3.5" ry="3" transform="rotate(-19.8965 1713.74 1867.01)" fill="#8991FF"/>
<ellipse cx="889.806" cy="1920.03" rx="3.5" ry="3" transform="rotate(-19.8965 889.806 1920.03)" fill="#8991FF"/>
<ellipse cx="1901.81" cy="1920.03" rx="3.5" ry="3" transform="rotate(-19.8965 1901.81 1920.03)" fill="#8991FF"/>
<ellipse cx="796.42" cy="1718.08" rx="3.5" ry="3" transform="rotate(-19.8965 796.42 1718.08)" fill="#8991FF"/>
<ellipse cx="1808.42" cy="1718.08" rx="3.5" ry="3" transform="rotate(-19.8965 1808.42 1718.08)" fill="#8991FF"/>
<ellipse cx="912.944" cy="1530.21" rx="6" ry="5.5" transform="rotate(-19.8965 912.944 1530.21)" fill="#8991FF"/>
<ellipse cx="664.944" cy="1804.21" rx="6" ry="5.5" transform="rotate(-19.8965 664.944 1804.21)" fill="#8991FF"/>
<ellipse cx="1676.94" cy="1804.21" rx="6" ry="5.5" transform="rotate(-19.8965 1676.94 1804.21)" fill="#8991FF"/>
<ellipse cx="858.224" cy="1872.44" rx="6" ry="5.5" transform="rotate(-19.8965 858.224 1872.44)" fill="#8991FF"/>
<ellipse cx="1870.22" cy="1872.44" rx="6" ry="5.5" transform="rotate(-19.8965 1870.22 1872.44)" fill="#8991FF"/>
<ellipse cx="799.514" cy="1916.21" rx="6" ry="5.5" transform="rotate(-19.8965 799.514 1916.21)" fill="#8991FF"/>
<ellipse cx="1811.51" cy="1916.21" rx="6" ry="5.5" transform="rotate(-19.8965 1811.51 1916.21)" fill="#8991FF"/>
<ellipse cx="876.514" cy="1634.21" rx="6" ry="5.5" transform="rotate(-19.8965 876.514 1634.21)" fill="#8991FF"/>
<ellipse cx="1878.51" cy="1626.21" rx="6" ry="5.5" transform="rotate(-19.8965 1878.51 1626.21)" fill="#8991FF"/>
<ellipse cx="796.944" cy="1864.21" rx="6" ry="5.5" transform="rotate(-19.8965 796.944 1864.21)" fill="#8991FF"/>
<ellipse cx="1808.94" cy="1864.21" rx="6" ry="5.5" transform="rotate(-19.8965 1808.94 1864.21)" fill="#8991FF"/>
<circle cx="758.553" cy="1648.12" r="4" transform="rotate(-19.8965 758.553 1648.12)" fill="#8991FF"/>
<circle cx="1770.12" cy="1638.12" r="4" transform="rotate(-19.8965 1770.12 1638.12)" fill="#8991FF"/>
<circle cx="1269.89" cy="2102.08" r="4" transform="rotate(-19.8965 1269.89 2102.08)" fill="#8991FF"/>
<circle cx="894.553" cy="1444.12" r="4" transform="rotate(-19.8965 894.553 1444.12)" fill="#8991FF"/>
<circle cx="1906.55" cy="1444.12" r="4" transform="rotate(-19.8965 1906.55 1444.12)" fill="#8991FF"/>
<circle cx="694.027" cy="1604.12" r="4" transform="rotate(-19.8965 694.027 1604.12)" fill="#8991FF"/>
<circle cx="1706.03" cy="1604.12" r="4" transform="rotate(-19.8965 1706.03 1604.12)" fill="#8991FF"/>
<circle cx="892.027" cy="1666.12" r="4" transform="rotate(-19.8965 892.027 1666.12)" fill="#8991FF"/>
<circle cx="1899.12" cy="1724.12" r="4" transform="rotate(-19.8965 1899.12 1724.12)" fill="#8991FF"/>
<circle cx="753.122" cy="1155.12" r="4" transform="rotate(-19.8965 753.122 1155.12)" fill="#8991FF"/>
<circle cx="1765.12" cy="1155.12" r="4" transform="rotate(-19.8965 1765.12 1155.12)" fill="#8991FF"/>
<circle cx="905.341" cy="2014.38" r="4" transform="rotate(-19.8965 905.341 2014.38)" fill="#8991FF"/>
<circle cx="709.987" cy="1671.73" r="4" transform="rotate(-19.8965 709.987 1671.73)" fill="#8991FF"/>
<circle cx="1834.12" cy="1658.12" r="4" transform="rotate(-19.8965 1834.12 1658.12)" fill="#8991FF"/>
</g>
<rect x="0.430176" width="1920" height="405" fill="url(#paint35_linear)"/>
<path d="M1524.61 404.49L1553.69 400.49C1573.04 397.83 1592.24 394.98 1611.6 392.14C1630.96 389.3 1650.6 386.93 1670.25 385.27C1675.17 384.78 1680.08 384.53 1684.99 384.16C1689.9 383.79 1694.82 383.53 1699.73 383.23C1709.56 382.68 1719.37 382.36 1729.19 381.95C1739.02 381.76 1748.84 381.43 1758.68 381.39C1763.6 381.39 1768.52 381.33 1773.45 381.39C1778.38 381.45 1783.29 381.39 1788.23 381.57C1807.94 381.98 1827.68 383.13 1847.23 384.74C1866.78 386.35 1886.08 387.98 1905.56 389.4L1920.43 390.5V370.36C1848.98 373.16 1763.52 368.36 1695.81 371.85C1578.37 377.85 1462.68 404.99 1343.98 403.01C1278.9 401.93 1214.74 392.15 1149.81 389.31C1110.98 387.6 1073.36 394.49 1034.71 395.83C997.511 397.12 960.3 394.29 923.11 393.56C854.11 392.2 785.4 399.99 716.56 398.08C646.56 396.14 660.46 394.54 509.82 369.77C359.18 345 218.03 348 161.7 353C105.37 358 0.430182 334 0.430182 334V369.77C-4.99998 400.13 318.74 410.85 395 418.94C472 417.968 424 410.02 480.19 382.21L495.03 384.81L509.82 387.71C519.66 389.71 529.48 391.82 539.22 394.12C558.74 398.62 578 403.5 597.36 407.8L604.62 409.44L611.93 411C616.78 412 621.63 413.07 626.51 414L641.13 416.86L655.81 419.52L663.16 420.86L670.52 422.08L685.26 424.53C695.09 426.16 704.96 427.6 714.81 429.27C709.817 429.103 704.817 428.907 699.81 428.68C694.81 428.44 689.81 428.27 684.81 427.99L669.81 426.99L662.33 426.48L654.86 425.85L639.92 424.54L624.99 422.91C619.99 422.41 615.05 421.68 610.08 421.04L602.63 420.04L595.2 418.94C590.2 418.2 585.29 417.44 580.36 416.6L565.57 414.12L536.14 408.96C516.58 405.61 497.08 402.51 477.45 400.13C457.82 397.75 438.15 395.66 418.45 393.94C408.57 393.12 398.7 392.22 388.82 391.53L374 390.43C369.06 390.05 364.12 389.83 359.18 389.52C339.433 388.253 319.71 387.473 300.01 387.18C280.3 386.79 260.62 387.11 240.7 387.57C220.78 388.03 200.6 388.21 180.47 387.67C175.47 387.59 170.4 387.34 165.37 387.14C160.34 386.94 155.43 386.74 150.43 386.4L135.37 385.5C130.37 385.2 125.37 384.72 120.37 384.34C115.37 383.96 110.37 383.57 105.37 383.07L90.3702 381.62C80.3702 380.73 70.4502 379.46 60.5002 378.33L53.0302 377.46L45.5702 376.46L30.6602 374.46C25.6602 373.79 20.7302 372.95 15.7702 372.21C10.8102 371.47 5.83018 370.75 0.880183 369.85L0.430182 369.77V406.23C79.1102 404.88 157.84 405.09 236.57 407.42C258.45 408.12 280.33 408.987 302.21 410.02C307.723 410.28 313.233 410.557 318.74 410.85C331.18 411.517 343.617 412.237 356.05 413.01L385.89 414.92L395 418.94L404.49 416.29L415.7 417.12L430.61 418.22L445.5 419.39L475.28 421.77L478.36 422.02L488.09 422.8L505.04 424.17L519.91 425.37L534.78 426.5L561.78 428.57L564.49 428.78L570.04 429.16L594.23 430.83C604.14 431.48 614.05 432.26 623.97 432.76L643.56 433.89L651.14 434.32L653.72 434.47L668.6 435.33L683.48 436L713.26 437.34L725.7 437.89L728.14 438H729.53L743.04 438.44L772.83 439.44C792.68 440.21 812.56 440.44 832.43 440.91L862.24 441.56C867.24 441.7 872.18 441.73 877.15 441.78L892.06 441.94L951.71 442.56L1011.36 442.66H1026.27C1031.27 442.66 1036.21 442.66 1041.18 442.66L1070.99 442.37C1090.87 442.19 1110.75 442.15 1130.61 441.62L1160.43 441L1175.33 440.7L1190.23 440.22C1194.08 440.11 1197.94 439.99 1201.79 439.86L1208.26 439.64C1232.75 438.827 1257.23 437.827 1281.71 436.64L1289.42 436.25C1296.05 435.917 1302.69 435.563 1309.32 435.19L1339.08 433.5L1363.03 431.95L1368.84 431.57L1371.47 431.4L1383.73 430.63L1398.62 429.63L1428.4 427.63L1445.4 426.48L1455.4 425.8L1458.19 425.61L1473.09 424.61L1488.01 423.69L1517.85 421.86L1529.59 421.25L1542.19 420.6L1547.71 420.31C1570.54 419.13 1593.38 418.19 1616.23 417.49C1622.05 417.297 1627.87 417.123 1633.7 416.97C1644.88 416.657 1656.06 416.393 1667.25 416.18C1742.25 414.88 1842.5 415.58 1920.4 417.66V399.41C1915.4 399.86 1910.46 400.26 1905.48 400.64C1885.85 402.08 1866.09 402.64 1846.48 402.74L1817.25 402.91C1807.54 403.02 1797.84 403.11 1788.14 403.33C1778.44 403.55 1768.74 403.7 1759.02 404.06C1749.31 404.27 1739.58 404.62 1729.86 404.92C1720.14 405.22 1710.4 405.49 1700.7 405.92C1690.98 406.17 1681.29 406.64 1671.59 407.03C1661.89 407.42 1652.22 407.96 1642.52 408.46L1613.43 410.13C1593.88 411.23 1574.12 411.96 1554.43 411.76C1544.59 411.63 1534.75 411.41 1524.92 410.9C1515.09 410.39 1505.28 409.71 1495.47 408.83C1500.33 407.99 1505.2 407.32 1510.06 406.57L1524.61 404.49ZM1372.61 423.63C1365.68 424.02 1358.74 424.5 1351.8 424.74C1337.91 425.38 1323.99 425.55 1310.07 425.49C1303.07 425.49 1296.15 425.29 1289.22 425.14L1268.47 424.57L1247.83 424.09L1237.52 423.96L1227.22 423.9C1199.75 423.9 1172.22 424.35 1144.68 425.12C1130.93 425.49 1117.23 426 1103.55 426.77C1089.87 427.54 1076.23 428.42 1062.42 429.47C1048.61 430.52 1034.66 431.37 1020.69 431.91C1017.2 432.06 1013.69 432.14 1010.22 432.24C1006.75 432.34 1003.22 432.45 999.75 432.48L989.28 432.65C985.8 432.71 982.28 432.65 978.83 432.65C971.83 432.65 964.91 432.57 957.95 432.49C950.99 432.41 944.05 432.2 937.09 432.03C930.13 431.86 923.18 431.56 916.23 431.28C912.75 431.14 909.23 430.91 905.79 430.73C902.35 430.55 898.79 430.37 895.35 430.12L884.91 429.4L874.49 428.52C867.49 427.9 860.6 427.25 853.7 426.46L812.46 421.74C785.06 418.64 757.46 416.48 729.81 413.98C736.73 413.35 743.65 412.88 750.58 412.36C757.51 411.84 764.45 411.5 771.39 411.26C785.28 410.62 799.2 410.46 813.12 410.52C827.04 410.58 840.93 411.06 854.72 411.45L875.36 411.92L885.67 412.05L895.97 412.11C923.44 412.17 951.02 411.64 978.51 410.89C992.26 410.5 1005.96 410 1019.64 409.23C1033.32 408.46 1046.97 407.58 1060.77 406.51C1074.57 405.44 1088.53 404.62 1102.5 404.05C1105.99 403.9 1109.5 403.83 1112.97 403.72C1116.44 403.61 1119.97 403.52 1123.44 403.48C1130.44 403.36 1137.44 403.22 1144.36 403.28C1151.28 403.34 1158.28 403.36 1165.24 403.45C1172.2 403.54 1179.15 403.72 1186.1 403.9C1193.05 404.08 1200.01 404.38 1206.97 404.64C1210.44 404.79 1213.97 405.01 1217.4 405.19C1220.83 405.37 1224.4 405.56 1227.84 405.81L1238.28 406.52L1248.71 407.41C1255.65 408.03 1262.59 408.68 1269.5 409.47L1310.73 414.19C1338.13 417.29 1365.73 419.46 1393.38 421.98C1386.48 422.63 1379.56 423.1 1372.63 423.63H1372.61Z" fill="#325FF8"/>
<path d="M714.81 429.24C709.817 429.073 704.817 428.877 699.81 428.65C694.81 428.41 689.81 428.24 684.81 427.96L669.81 426.96L662.33 426.45L654.86 425.82L639.92 424.51L624.99 422.88C619.99 422.38 615.05 421.65 610.08 421.01L602.63 420.01L595.2 418.91C590.2 418.17 585.29 417.41 580.36 416.57L565.57 414.09L536.14 408.93C516.58 405.58 497.08 402.48 477.45 400.1C457.82 397.72 438.15 395.63 418.45 393.91C408.57 393.09 398.7 392.19 388.82 391.5L374 390.4C369.06 390.02 364.12 389.8 359.18 389.49C339.433 388.223 319.71 387.443 300.01 387.15C280.3 386.76 260.62 387.08 240.7 387.54C220.78 388 200.6 388.18 180.47 387.64C175.47 387.56 170.4 387.31 165.37 387.11C160.34 386.91 155.43 386.74 150.43 386.4L135.37 385.5C130.37 385.2 125.37 384.72 120.37 384.34C115.37 383.96 110.37 383.57 105.37 383.07L90.37 381.62C80.37 380.73 70.45 379.46 60.5 378.33L53.03 377.46L45.57 376.46L30.66 374.46C25.66 373.79 20.73 372.95 15.77 372.21C10.81 371.47 5.83 370.75 0.88 369.85L-3 369.77V351.63C-2 351.77 2.49 351.9 3.52 352.02C8.41 352.71 13.33 353.21 18.25 353.78C23.17 354.35 28.06 354.94 32.99 355.4L47.77 356.86L55.16 357.59L62.57 358.22C72.44 359.04 82.31 359.92 92.2 360.61L107.01 361.71C111.95 362.1 116.89 362.32 121.83 362.63C141.563 363.883 161.287 364.673 181 365C200.71 365.37 220.39 365.07 240.32 364.59C260.25 364.11 280.41 363.96 300.55 364.48C305.55 364.55 310.61 364.8 315.64 365C320.67 365.2 325.71 365.38 330.72 365.72L345.72 366.61C350.72 366.92 355.72 367.37 360.72 367.77C365.72 368.17 370.72 368.53 375.72 369.04L390.72 370.49C400.72 371.38 410.65 372.63 420.6 373.78L428.06 374.64L435.52 375.64L450.44 377.64C455.44 378.3 460.36 379.15 465.33 379.89C470.3 380.63 475.25 381.38 480.2 382.28L495.04 384.88L509.83 387.78C519.67 389.78 529.49 391.89 539.23 394.19C558.75 398.69 578.01 403.57 597.37 407.87L604.63 409.51L611.93 411C616.78 412 621.63 413.07 626.51 414L641.13 416.86L655.81 419.52L663.16 420.86L670.52 422.08L685.26 424.53C695.09 426.13 704.96 427.57 714.81 429.24Z" fill="#8991FF"/>
<path d="M812.48 421.76C785.08 418.66 757.48 416.5 729.83 414C736.75 413.37 743.67 412.9 750.6 412.38C757.53 411.86 764.47 411.52 771.41 411.28C785.3 410.64 799.22 410.48 813.14 410.54C827.06 410.6 840.95 411.08 854.74 411.47L875.38 411.94L885.69 412.07L895.99 412.13C923.46 412.19 951.04 411.66 978.53 410.91C992.28 410.52 1005.98 410.02 1019.66 409.25C1033.34 408.48 1046.99 407.6 1060.79 406.53C1074.59 405.46 1088.55 404.64 1102.52 404.07C1106.01 403.92 1109.52 403.85 1112.99 403.74C1116.46 403.63 1119.99 403.54 1123.46 403.5C1130.46 403.38 1137.46 403.24 1144.38 403.3C1151.3 403.36 1158.3 403.38 1165.26 403.47C1172.22 403.56 1179.17 403.74 1186.12 403.92C1193.07 404.1 1200.03 404.4 1206.99 404.66C1210.46 404.81 1213.99 405.03 1217.42 405.21C1220.85 405.39 1224.42 405.58 1227.86 405.83L1238.3 406.54L1248.73 407.43C1255.67 408.05 1262.61 408.7 1269.52 409.49L1310.75 414.21C1338.15 417.31 1365.75 419.48 1393.4 422C1386.48 422.63 1379.56 423.1 1372.63 423.63C1365.7 424.16 1358.76 424.5 1351.82 424.74C1337.93 425.38 1324.01 425.55 1310.09 425.49C1303.09 425.49 1296.17 425.29 1289.24 425.14L1268.49 424.57L1247.85 424.09L1237.54 423.96L1227.24 423.9C1199.77 423.9 1172.24 424.35 1144.7 425.12C1130.95 425.49 1117.25 426 1103.57 426.77C1089.89 427.54 1076.25 428.42 1062.44 429.47C1048.63 430.52 1034.68 431.37 1020.71 431.91C1017.22 432.06 1013.71 432.14 1010.24 432.24C1006.77 432.34 1003.24 432.45 999.77 432.48L989.3 432.65C985.82 432.71 982.3 432.65 978.85 432.65C971.85 432.65 964.93 432.57 957.97 432.49C951.01 432.41 944.07 432.2 937.11 432.03C930.15 431.86 923.2 431.56 916.25 431.28C912.77 431.14 909.25 430.91 905.81 430.73C902.37 430.55 898.81 430.37 895.37 430.12L884.93 429.4L874.51 428.52C867.51 427.9 860.62 427.25 853.72 426.46L812.48 421.76Z" fill="#8991FF"/>
<path d="M1920.43 390.5V399.41C1915.43 399.86 1910.49 400.26 1905.51 400.64C1885.88 402.08 1866.12 402.64 1846.51 402.74L1817.28 402.91C1807.57 403.02 1797.87 403.11 1788.17 403.33C1778.47 403.55 1768.77 403.7 1759.05 404.06C1749.34 404.27 1739.61 404.62 1729.89 404.92C1720.17 405.22 1710.43 405.49 1700.73 405.92C1691.01 406.17 1681.32 406.64 1671.62 407.03C1661.92 407.42 1652.25 407.96 1642.55 408.46L1613.43 410.13C1593.88 411.23 1574.12 411.96 1554.43 411.76C1544.59 411.63 1534.75 411.41 1524.92 410.9C1515.09 410.39 1505.28 409.71 1495.47 408.83C1500.33 407.99 1505.2 407.32 1510.06 406.57L1524.63 404.49L1553.71 400.49C1573.06 397.83 1592.26 394.98 1611.62 392.14C1630.98 389.3 1650.62 386.93 1670.27 385.27C1675.19 384.78 1680.1 384.53 1685.01 384.16C1689.92 383.79 1694.84 383.53 1699.75 383.23C1709.58 382.68 1719.39 382.36 1729.21 381.95C1739.04 381.76 1748.86 381.43 1758.7 381.39C1763.62 381.39 1768.54 381.33 1773.47 381.39C1778.4 381.45 1783.31 381.39 1788.25 381.57C1807.96 381.98 1827.7 383.13 1847.25 384.74C1866.8 386.35 1886.1 387.98 1905.58 389.4L1920.43 390.5Z" fill="#8991FF"/>
<path d="M1920.43 417.58V418.3C1842.53 420.03 1742.34 421.68 1667.59 425.42L1638.81 426.91H1637.81L1633.17 427.15L1622.92 427.68L1620.33 427.85L1614.68 428.21L1608.04 428.64L1578.28 430.52C1568.36 431.09 1558.45 431.94 1548.53 432.65L1547.53 432.73L1541.91 433.15L1533.91 433.74L1528.25 434.16L1518.79 434.87L1489.06 437.32L1474.2 438.54L1460.55 439.72L1459.33 439.83L1454.93 440.21L1449.55 440.67L1443.89 441.16L1429.59 442.39L1399.8 445L1384.91 446.27L1376.09 446.98L1370.43 447.44H1370.01L1366.83 447.69L1361.14 448.14L1340.21 449.78L1310.36 451.87C1304.73 452.24 1299.1 452.66 1293.47 453.04L1287.76 453.42L1284.87 453.59C1283.42 453.68 1281.96 453.76 1280.51 453.83L1279.13 453.91L1250.63 455.5L1235.69 456.33L1220.69 456.96L1211.69 457.34L1205.93 457.58L1203.58 457.68L1197.81 457.92L1190.81 458.22L1175.81 458.84L1160.81 459.24L1130.9 460.04H1130.58L1124.8 460.21H1122.8L1117.01 460.35C1101.7 460.7 1086.39 460.85 1071.09 461.08L1050.09 461.33L1044.3 461.4H1042.5H1041.19C1040.12 461.4 1039.06 461.4 1037.99 461.4H1036.7C1033.21 461.4 1029.7 461.4 1026.24 461.4H951.62L891.83 460.66H889.83L882.28 460.57L876.87 460.5C871.87 460.44 866.87 460.4 861.87 460.25L831.97 459.51L809.54 458.94L801.84 458.73C791.96 458.45 782.07 458.13 772.18 457.73L742.28 456.57L728.98 456.04L727.43 456.1L721.04 455.76L712.43 455.3C690.93 454.187 669.434 452.937 647.94 451.55L639.45 450.98C623.957 449.927 608.474 448.763 593 447.49L566.17 445.29L563.17 445.04L557.05 444.48L533.43 442.33L518.55 441L503.68 439.55L483.84 437.61L473.95 436.61L473.11 436.53L444.24 433.69L429.43 432.2L414.58 430.8L400.08 429.43L386.98 428.2L384.88 428L355.17 425.41C345.26 424.58 335.36 423.61 325.45 422.93L314.45 422.1L296.83 420.76L295.73 420.68L280.86 419.54L265.98 418.54L236.21 416.64C157.7 411.81 79.0802 409.14 0.430176 406.38V406.23C79.1102 404.88 157.84 405.09 236.57 407.42C258.45 408.12 280.33 408.987 302.21 410.02C307.724 410.28 313.234 410.557 318.74 410.85C331.18 411.517 343.617 412.237 356.05 413.01L385.89 414.92L392.44 415.4L404.49 416.29L415.7 417.12L430.61 418.22L445.5 419.39L475.28 421.77L478.36 422.02L488.09 422.8L505.04 424.17L519.91 425.37L534.78 426.5L561.78 428.57L564.49 428.78L570.04 429.16L594.23 430.83C604.14 431.48 614.05 432.26 623.97 432.76L643.56 433.89L651.14 434.32L653.72 434.47L668.6 435.33L683.48 436L713.26 437.34L725.7 437.89L728.14 438H729.53L743.04 438.44L772.83 439.44C792.68 440.21 812.56 440.44 832.43 440.91L862.24 441.56C867.24 441.7 872.18 441.73 877.15 441.78L892.06 441.94L951.71 442.56L1011.36 442.66H1026.27C1031.27 442.66 1036.21 442.66 1041.18 442.66L1070.99 442.37C1090.87 442.19 1110.75 442.15 1130.61 441.62L1160.43 441L1175.33 440.7L1190.23 440.22C1194.08 440.11 1197.94 439.99 1201.79 439.86L1208.26 439.64C1232.75 438.827 1257.23 437.827 1281.71 436.64L1289.42 436.25C1296.05 435.917 1302.69 435.563 1309.32 435.19L1339.08 433.5L1363.03 431.95L1368.84 431.57L1371.47 431.4L1383.73 430.63L1398.62 429.63L1428.4 427.63L1445.4 426.48L1455.4 425.8L1458.19 425.61L1473.09 424.61L1488.01 423.69L1517.85 421.86L1529.59 421.25L1542.19 420.6L1547.71 420.31C1570.54 419.13 1593.38 418.19 1616.23 417.49C1622.05 417.297 1627.87 417.123 1633.7 416.97C1644.88 416.657 1656.06 416.393 1667.25 416.18C1742.26 414.8 1842.53 415.5 1920.43 417.58Z" fill="#8991FF"/>
<defs>
<linearGradient id="paint0_linear" x1="960.93" y1="450.45" x2="960.93" y2="2279.96" gradientUnits="userSpaceOnUse">
<stop stop-color="#325FF8"/>
<stop offset="0.583333" stop-color="#325FF8" stop-opacity="0.2"/>
<stop offset="1" stop-color="white" stop-opacity="0"/>
</linearGradient>
<linearGradient id="paint1_linear" x1="1052.64" y1="450.44" x2="1052.64" y2="2279.05" gradientUnits="userSpaceOnUse">
<stop stop-color="#325FF8"/>
<stop offset="0.583333" stop-color="#325FF8" stop-opacity="0.2"/>
<stop offset="1" stop-color="white" stop-opacity="0"/>
</linearGradient>
<linearGradient id="paint2_linear" x1="1121.39" y1="450.44" x2="1121.39" y2="2272.03" gradientUnits="userSpaceOnUse">
<stop stop-color="#325FF8"/>
<stop offset="0.583333" stop-color="#325FF8" stop-opacity="0.2"/>
<stop offset="1" stop-color="white" stop-opacity="0"/>
</linearGradient>
<linearGradient id="paint3_linear" x1="1189.83" y1="450.44" x2="1189.83" y2="2258.91" gradientUnits="userSpaceOnUse">
<stop stop-color="#325FF8"/>
<stop offset="0.583333" stop-color="#325FF8" stop-opacity="0.2"/>
<stop offset="1" stop-color="white" stop-opacity="0"/>
</linearGradient>
<linearGradient id="paint4_linear" x1="1257.91" y1="450.13" x2="1257.91" y2="2239.73" gradientUnits="userSpaceOnUse">
<stop stop-color="#325FF8"/>
<stop offset="0.583333" stop-color="#325FF8" stop-opacity="0.2"/>
<stop offset="1" stop-color="white" stop-opacity="0"/>
</linearGradient>
<linearGradient id="paint5_linear" x1="1325.46" y1="449.86" x2="1325.46" y2="2214.54" gradientUnits="userSpaceOnUse">
<stop stop-color="#325FF8"/>
<stop offset="0.583333" stop-color="#325FF8" stop-opacity="0.2"/>
<stop offset="1" stop-color="white" stop-opacity="0"/>
</linearGradient>
<linearGradient id="paint6_linear" x1="1392.43" y1="449.51" x2="1392.43" y2="2183.41" gradientUnits="userSpaceOnUse">
<stop stop-color="#325FF8"/>
<stop offset="0.583333" stop-color="#325FF8" stop-opacity="0.2"/>
<stop offset="1" stop-color="white" stop-opacity="0"/>
</linearGradient>
<linearGradient id="paint7_linear" x1="1458.67" y1="449" x2="1458.67" y2="2146.43" gradientUnits="userSpaceOnUse">
<stop stop-color="#325FF8"/>
<stop offset="0.583333" stop-color="#325FF8" stop-opacity="0.2"/>
<stop offset="1" stop-color="white" stop-opacity="0"/>
</linearGradient>
<linearGradient id="paint8_linear" x1="1524.23" y1="448.27" x2="1524.23" y2="2103.69" gradientUnits="userSpaceOnUse">
<stop stop-color="#325FF8"/>
<stop offset="0.583333" stop-color="#325FF8" stop-opacity="0.2"/>
<stop offset="1" stop-color="white" stop-opacity="0"/>
</linearGradient>
<linearGradient id="paint9_linear" x1="1540.34" y1="447.51" x2="1540.34" y2="2038.43" gradientUnits="userSpaceOnUse">
<stop stop-color="#325FF8"/>
<stop offset="0.583333" stop-color="#325FF8" stop-opacity="0.2"/>
<stop offset="1" stop-color="white" stop-opacity="0"/>
</linearGradient>
<linearGradient id="paint10_linear" x1="1553.51" y1="446.35" x2="1553.51" y2="1797.03" gradientUnits="userSpaceOnUse">
<stop stop-color="#325FF8"/>
<stop offset="0.583333" stop-color="#325FF8" stop-opacity="0.2"/>
<stop offset="1" stop-color="white" stop-opacity="0"/>
</linearGradient>
<linearGradient id="paint11_linear" x1="1567.37" y1="445.12" x2="1567.37" y2="1597.56" gradientUnits="userSpaceOnUse">
<stop stop-color="#325FF8"/>
<stop offset="0.583333" stop-color="#325FF8" stop-opacity="0.2"/>
<stop offset="1" stop-color="white" stop-opacity="0"/>
</linearGradient>
<linearGradient id="paint12_linear" x1="1582.02" y1="443.41" x2="1582.02" y2="1429.12" gradientUnits="userSpaceOnUse">
<stop stop-color="#325FF8"/>
<stop offset="0.583333" stop-color="#325FF8" stop-opacity="0.2"/>
<stop offset="1" stop-color="white" stop-opacity="0"/>
</linearGradient>
<linearGradient id="paint13_linear" x1="1597.62" y1="441.46" x2="1597.62" y2="1284.28" gradientUnits="userSpaceOnUse">
<stop stop-color="#325FF8"/>
<stop offset="0.583333" stop-color="#325FF8" stop-opacity="0.2"/>
<stop offset="1" stop-color="white" stop-opacity="0"/>
</linearGradient>
<linearGradient id="paint14_linear" x1="1614.2" y1="438.95" x2="1614.2" y2="1157.86" gradientUnits="userSpaceOnUse">
<stop stop-color="#325FF8"/>
<stop offset="0.583333" stop-color="#325FF8" stop-opacity="0.2"/>
<stop offset="1" stop-color="white" stop-opacity="0"/>
</linearGradient>
<linearGradient id="paint15_linear" x1="1632.09" y1="435.98" x2="1632.09" y2="1045.96" gradientUnits="userSpaceOnUse">
<stop stop-color="#325FF8"/>
<stop offset="0.583333" stop-color="#325FF8" stop-opacity="0.2"/>
<stop offset="1" stop-color="white" stop-opacity="0"/>
</linearGradient>
<linearGradient id="paint16_linear" x1="1651.47" y1="432.48" x2="1651.47" y2="945.7" gradientUnits="userSpaceOnUse">
<stop stop-color="#325FF8"/>
<stop offset="0.583333" stop-color="#325FF8" stop-opacity="0.2"/>
<stop offset="1" stop-color="white" stop-opacity="0"/>
</linearGradient>
<linearGradient id="paint17_linear" x1="1672.68" y1="428.52" x2="1672.68" y2="854.81" gradientUnits="userSpaceOnUse">
<stop stop-color="#325FF8"/>
<stop offset="0.583333" stop-color="#325FF8" stop-opacity="0.2"/>
<stop offset="1" stop-color="white" stop-opacity="0"/>
</linearGradient>
<linearGradient id="paint18_linear" x1="869.22" y1="450.34" x2="869.22" y2="2279.05" gradientUnits="userSpaceOnUse">
<stop stop-color="#325FF8"/>
<stop offset="0.583333" stop-color="#325FF8" stop-opacity="0.2"/>
<stop offset="1" stop-color="white" stop-opacity="0"/>
</linearGradient>
<linearGradient id="paint19_linear" x1="800.475" y1="450.09" x2="800.475" y2="2272.03" gradientUnits="userSpaceOnUse">
<stop stop-color="#325FF8"/>
<stop offset="0.583333" stop-color="#325FF8" stop-opacity="0.2"/>
<stop offset="1" stop-color="white" stop-opacity="0"/>
</linearGradient>
<linearGradient id="paint20_linear" x1="732.04" y1="449.81" x2="732.04" y2="2258.9" gradientUnits="userSpaceOnUse">
<stop stop-color="#325FF8"/>
<stop offset="0.583333" stop-color="#325FF8" stop-opacity="0.2"/>
<stop offset="1" stop-color="white" stop-opacity="0"/>
</linearGradient>
<linearGradient id="paint21_linear" x1="664.01" y1="449.53" x2="664.01" y2="2239.73" gradientUnits="userSpaceOnUse">
<stop stop-color="#325FF8"/>
<stop offset="0.583333" stop-color="#325FF8" stop-opacity="0.2"/>
<stop offset="1" stop-color="white" stop-opacity="0"/>
</linearGradient>
<linearGradient id="paint22_linear" x1="596.465" y1="449.13" x2="596.465" y2="2214.54" gradientUnits="userSpaceOnUse">
<stop stop-color="#325FF8"/>
<stop offset="0.583333" stop-color="#325FF8" stop-opacity="0.2"/>
<stop offset="1" stop-color="white" stop-opacity="0"/>
</linearGradient>
<linearGradient id="paint23_linear" x1="529.555" y1="448.55" x2="529.555" y2="2183.4" gradientUnits="userSpaceOnUse">
<stop stop-color="#325FF8"/>
<stop offset="0.583333" stop-color="#325FF8" stop-opacity="0.2"/>
<stop offset="1" stop-color="white" stop-opacity="0"/>
</linearGradient>
<linearGradient id="paint24_linear" x1="463.32" y1="448" x2="463.32" y2="2146.43" gradientUnits="userSpaceOnUse">
<stop stop-color="#325FF8"/>
<stop offset="0.583333" stop-color="#325FF8" stop-opacity="0.2"/>
<stop offset="1" stop-color="white" stop-opacity="0"/>
</linearGradient>
<linearGradient id="paint25_linear" x1="397.84" y1="447.19" x2="397.84" y2="2103.69" gradientUnits="userSpaceOnUse">
<stop stop-color="#325FF8"/>
<stop offset="0.583333" stop-color="#325FF8" stop-opacity="0.2"/>
<stop offset="1" stop-color="white" stop-opacity="0"/>
</linearGradient>
<linearGradient id="paint26_linear" x1="381.825" y1="446.16" x2="381.825" y2="2038.43" gradientUnits="userSpaceOnUse">
<stop stop-color="#325FF8"/>
<stop offset="0.583333" stop-color="#325FF8" stop-opacity="0.2"/>
<stop offset="1" stop-color="white" stop-opacity="0"/>
</linearGradient>
<linearGradient id="paint27_linear" x1="368.7" y1="445.09" x2="368.7" y2="1797.01" gradientUnits="userSpaceOnUse">
<stop stop-color="#325FF8"/>
<stop offset="0.583333" stop-color="#325FF8" stop-opacity="0.2"/>
<stop offset="1" stop-color="white" stop-opacity="0"/>
</linearGradient>
<linearGradient id="paint28_linear" x1="354.905" y1="443.62" x2="354.905" y2="1597.55" gradientUnits="userSpaceOnUse">
<stop stop-color="#325FF8"/>
<stop offset="0.583333" stop-color="#325FF8" stop-opacity="0.2"/>
<stop offset="1" stop-color="white" stop-opacity="0"/>
</linearGradient>
<linearGradient id="paint29_linear" x1="340.355" y1="441.91" x2="340.355" y2="1429.11" gradientUnits="userSpaceOnUse">
<stop stop-color="#325FF8"/>
<stop offset="0.583333" stop-color="#325FF8" stop-opacity="0.2"/>
<stop offset="1" stop-color="white" stop-opacity="0"/>
</linearGradient>
<linearGradient id="paint30_linear" x1="324.875" y1="439.82" x2="324.875" y2="1284.28" gradientUnits="userSpaceOnUse">
<stop stop-color="#325FF8"/>
<stop offset="0.583333" stop-color="#325FF8" stop-opacity="0.2"/>
<stop offset="1" stop-color="white" stop-opacity="0"/>
</linearGradient>
<linearGradient id="paint31_linear" x1="308.345" y1="437.28" x2="308.345" y2="1157.85" gradientUnits="userSpaceOnUse">
<stop stop-color="#325FF8"/>
<stop offset="0.583333" stop-color="#325FF8" stop-opacity="0.2"/>
<stop offset="1" stop-color="white" stop-opacity="0"/>
</linearGradient>
<linearGradient id="paint32_linear" x1="290.61" y1="434.16" x2="290.61" y2="1045.96" gradientUnits="userSpaceOnUse">
<stop stop-color="#325FF8"/>
<stop offset="0.583333" stop-color="#325FF8" stop-opacity="0.2"/>
<stop offset="1" stop-color="white" stop-opacity="0"/>
</linearGradient>
<linearGradient id="paint33_linear" x1="271.41" y1="430.42" x2="271.41" y2="945.68" gradientUnits="userSpaceOnUse">
<stop stop-color="#325FF8"/>
<stop offset="0.583333" stop-color="#325FF8" stop-opacity="0.2"/>
<stop offset="1" stop-color="white" stop-opacity="0"/>
</linearGradient>
<linearGradient id="paint34_linear" x1="250.475" y1="426.03" x2="250.475" y2="854.81" gradientUnits="userSpaceOnUse">
<stop stop-color="#325FF8"/>
<stop offset="0.583333" stop-color="#325FF8" stop-opacity="0.2"/>
<stop offset="1" stop-color="white" stop-opacity="0"/>
</linearGradient>
<linearGradient id="paint35_linear" x1="960.43" y1="0" x2="960.43" y2="405" gradientUnits="userSpaceOnUse">
<stop stop-color="#8991FF"/>
<stop offset="1" stop-color="#D0D3FF"/>
</linearGradient>
</defs>
</svg>
