<svg width="1911" height="1813" viewBox="0 0 1911 1813" fill="none" xmlns="http://www.w3.org/2000/svg">
<g opacity="0.2">
<ellipse cx="525.43" cy="305.5" rx="8" ry="7.5" fill="#8991FF"/>
<ellipse cx="1789" cy="305.5" rx="8" ry="7.5" fill="#8991FF"/>
<ellipse cx="371" cy="56.4999" rx="8" ry="7.5" fill="#8991FF"/>
<ellipse cx="1634.57" cy="56.4999" rx="8" ry="7.5" fill="#8991FF"/>
<ellipse cx="530" cy="80.4999" rx="8" ry="7.5" fill="#8991FF"/>
<ellipse cx="1793.57" cy="80.4999" rx="8" ry="7.5" fill="#8991FF"/>
<ellipse cx="377.075" cy="678.775" rx="8" ry="7.5" transform="rotate(-19.8965 377.075 678.775)" fill="#8991FF"/>
<ellipse cx="1640.64" cy="678.775" rx="8" ry="7.5" transform="rotate(-19.8965 1640.64 678.775)" fill="#8991FF"/>
<ellipse cx="457.075" cy="1461.77" rx="8" ry="7.5" transform="rotate(-19.8965 457.075 1461.77)" fill="#8991FF"/>
<ellipse cx="1469.07" cy="1461.77" rx="8" ry="7.5" transform="rotate(-19.8965 1469.07 1461.77)" fill="#8991FF"/>
<circle cx="820.605" cy="691.604" r="7.5" transform="rotate(-19.8965 820.605 691.604)" fill="#8991FF"/>
<circle cx="641.605" cy="1481.6" r="7.5" transform="rotate(-19.8965 641.605 1481.6)" fill="#8991FF"/>
<circle cx="1653.6" cy="1481.6" r="7.5" transform="rotate(-19.8965 1653.6 1481.6)" fill="#8991FF"/>
<circle cx="211.605" cy="841.605" r="7.5" transform="rotate(-19.8965 211.605 841.605)" fill="#8991FF"/>
<circle cx="1223.6" cy="841.605" r="7.5" transform="rotate(-19.8965 1223.6 841.605)" fill="#8991FF"/>
<circle cx="39.9302" cy="359.5" r="7.5" fill="#8991FF"/>
<circle cx="1303.5" cy="359.5" r="7.5" fill="#8991FF"/>
<circle cx="180.5" cy="1277.5" r="7.5" fill="#8991FF"/>
<circle cx="1192.5" cy="1277.5" r="7.5" fill="#8991FF"/>
<circle cx="284.035" cy="1036.6" r="7.5" transform="rotate(-19.8965 284.035 1036.6)" fill="#8991FF"/>
<circle cx="1289.6" cy="1048.6" r="7.5" transform="rotate(-19.8965 1289.6 1048.6)" fill="#8991FF"/>
<ellipse cx="22.4302" cy="445.5" rx="8" ry="7.5" fill="#8991FF"/>
<ellipse cx="1286" cy="445.5" rx="8" ry="7.5" fill="#8991FF"/>
<ellipse cx="534" cy="1335.5" rx="8" ry="7.5" fill="#8991FF"/>
<ellipse cx="1546" cy="1335.5" rx="8" ry="7.5" fill="#8991FF"/>
<ellipse cx="219.075" cy="1139.77" rx="8" ry="7.5" transform="rotate(-19.8965 219.075 1139.77)" fill="#8991FF"/>
<ellipse cx="1231.07" cy="1139.77" rx="8" ry="7.5" transform="rotate(-19.8965 1231.07 1139.77)" fill="#8991FF"/>
<ellipse cx="407" cy="272.5" rx="8" ry="7.5" fill="#8991FF"/>
<ellipse cx="1670.57" cy="272.5" rx="8" ry="7.5" fill="#8991FF"/>
<ellipse cx="242.43" cy="1434.5" rx="8" ry="7.5" fill="#8991FF"/>
<ellipse cx="1254.43" cy="1434.5" rx="8" ry="7.5" fill="#8991FF"/>
<ellipse cx="572.075" cy="1036.77" rx="8" ry="7.5" transform="rotate(-19.8965 572.075 1036.77)" fill="#8991FF"/>
<ellipse cx="1356.07" cy="1242.77" rx="8" ry="7.5" transform="rotate(-19.8965 1356.07 1242.77)" fill="#8991FF"/>
<ellipse cx="29.5051" cy="1147.77" rx="8" ry="7.5" transform="rotate(-19.8965 29.5051 1147.77)" fill="#8991FF"/>
<ellipse cx="1041.51" cy="1147.77" rx="8" ry="7.5" transform="rotate(-19.8965 1041.51 1147.77)" fill="#8991FF"/>
<ellipse cx="551.43" cy="377.5" rx="7" ry="7.5" fill="#8991FF"/>
<ellipse cx="1815" cy="377.5" rx="7" ry="7.5" fill="#8991FF"/>
<ellipse cx="365.43" cy="116.5" rx="7" ry="7.5" fill="#8991FF"/>
<ellipse cx="1629" cy="116.5" rx="7" ry="7.5" fill="#8991FF"/>
<ellipse cx="397.565" cy="1505.43" rx="7" ry="7.5" transform="rotate(-19.8965 397.565 1505.43)" fill="#8991FF"/>
<ellipse cx="1409.56" cy="1505.43" rx="7" ry="7.5" transform="rotate(-19.8965 1409.56 1505.43)" fill="#8991FF"/>
<ellipse cx="313.5" cy="199" rx="7.5" ry="7" fill="#8991FF"/>
<ellipse cx="1577.07" cy="199" rx="7.5" ry="7" fill="#8991FF"/>
<ellipse cx="385.93" cy="1331" rx="7.5" ry="7" fill="#8991FF"/>
<ellipse cx="1397.93" cy="1331" rx="7.5" ry="7" fill="#8991FF"/>
<ellipse cx="606.435" cy="795.135" rx="7.5" ry="7" transform="rotate(-19.8965 606.435 795.135)" fill="#8991FF"/>
<ellipse cx="1596.43" cy="758.135" rx="7.5" ry="7" transform="rotate(-19.8965 1596.43 758.135)" fill="#8991FF"/>
<ellipse cx="332.89" cy="596.999" rx="7.5" ry="7" transform="rotate(-19.8965 332.89 596.999)" fill="#8991FF"/>
<ellipse cx="1596.46" cy="596.999" rx="7.5" ry="7" transform="rotate(-19.8965 1596.46 596.999)" fill="#8991FF"/>
<ellipse cx="359.435" cy="1415.13" rx="7.5" ry="7" transform="rotate(-19.8965 359.435 1415.13)" fill="#8991FF"/>
<ellipse cx="1371.43" cy="1415.13" rx="7.5" ry="7" transform="rotate(-19.8965 1371.43 1415.13)" fill="#8991FF"/>
<ellipse cx="113.93" cy="662" rx="7.5" ry="7" fill="#8991FF"/>
<ellipse cx="1377.5" cy="662" rx="7.5" ry="7" fill="#8991FF"/>
<ellipse cx="99.5" cy="1455" rx="7.5" ry="7" fill="#8991FF"/>
<ellipse cx="1111.5" cy="1455" rx="7.5" ry="7" fill="#8991FF"/>
<ellipse cx="515.914" cy="1559.03" rx="7.5" ry="8" transform="rotate(-19.8965 515.914 1559.03)" fill="#8991FF"/>
<ellipse cx="1527.91" cy="1559.03" rx="7.5" ry="8" transform="rotate(-19.8965 1527.91 1559.03)" fill="#8991FF"/>
<ellipse cx="98.2051" cy="890.075" rx="7.5" ry="8" transform="rotate(-19.8965 98.2051 890.075)" fill="#8991FF"/>
<ellipse cx="1110.21" cy="890.075" rx="7.5" ry="8" transform="rotate(-19.8965 1110.21 890.075)" fill="#8991FF"/>
<ellipse cx="200.5" cy="344" rx="7.5" ry="8" fill="#8991FF"/>
<ellipse cx="1464.07" cy="344" rx="7.5" ry="8" fill="#8991FF"/>
<ellipse cx="46.9302" cy="610" rx="7.5" ry="8" fill="#8991FF"/>
<ellipse cx="1310.5" cy="610" rx="7.5" ry="8" fill="#8991FF"/>
<ellipse cx="24.9302" cy="1398" rx="7.5" ry="8" fill="#8991FF"/>
<ellipse cx="1036.93" cy="1398" rx="7.5" ry="8" fill="#8991FF"/>
<ellipse cx="40.5" cy="1302" rx="7.5" ry="8" fill="#8991FF"/>
<ellipse cx="1052.5" cy="1302" rx="7.5" ry="8" fill="#8991FF"/>
<ellipse cx="398.93" cy="168" rx="4.5" ry="5" fill="#8991FF"/>
<ellipse cx="1662.5" cy="168" rx="4.5" ry="5" fill="#8991FF"/>
<ellipse cx="438.933" cy="734.233" rx="4.5" ry="5" transform="rotate(-19.8965 438.933 734.233)" fill="#8991FF"/>
<ellipse cx="1450.93" cy="734.233" rx="4.5" ry="5" transform="rotate(-19.8965 1450.93 734.233)" fill="#8991FF"/>
<ellipse cx="459.387" cy="1538.01" rx="4.5" ry="5" transform="rotate(-19.8965 459.387 1538.01)" fill="#8991FF"/>
<ellipse cx="1471.39" cy="1538.01" rx="4.5" ry="5" transform="rotate(-19.8965 1471.39 1538.01)" fill="#8991FF"/>
<ellipse cx="47.3632" cy="855.233" rx="4.5" ry="5" transform="rotate(-19.8965 47.3632 855.233)" fill="#8991FF"/>
<ellipse cx="1059.36" cy="855.233" rx="4.5" ry="5" transform="rotate(-19.8965 1059.36 855.233)" fill="#8991FF"/>
<circle cx="569.43" cy="504" r="5" fill="#8991FF"/>
<circle cx="1833" cy="504" r="5" fill="#8991FF"/>
<circle cx="277.43" cy="1381" r="5" fill="#8991FF"/>
<circle cx="1289.43" cy="1381" r="5" fill="#8991FF"/>
<circle cx="743.833" cy="1003.4" r="5" transform="rotate(-19.8965 743.833 1003.4)" fill="#8991FF"/>
<circle cx="1755.83" cy="1003.4" r="5" transform="rotate(-19.8965 1755.83 1003.4)" fill="#8991FF"/>
<circle cx="470.337" cy="807.806" r="5" transform="rotate(-19.8965 470.337 807.806)" fill="#8991FF"/>
<circle cx="1482.34" cy="807.806" r="5" transform="rotate(-19.8965 1482.34 807.806)" fill="#8991FF"/>
<circle cx="118.833" cy="1006.4" r="5" transform="rotate(-19.8965 118.833 1006.4)" fill="#8991FF"/>
<circle cx="1130.83" cy="1006.4" r="5" transform="rotate(-19.8965 1130.83 1006.4)" fill="#8991FF"/>
<circle cx="501.93" cy="387.5" r="2.5" fill="#8991FF"/>
<circle cx="1765.5" cy="387.5" r="2.5" fill="#8991FF"/>
<circle cx="315.93" cy="126.5" r="2.5" fill="#8991FF"/>
<circle cx="1579.5" cy="126.5" r="2.5" fill="#8991FF"/>
<circle cx="209.93" cy="458.5" r="2.5" fill="#8991FF"/>
<circle cx="1473.5" cy="458.5" r="2.5" fill="#8991FF"/>
<circle cx="364.632" cy="1568.2" r="2.5" transform="rotate(-19.8965 364.632 1568.2)" fill="#8991FF"/>
<circle cx="1376.63" cy="1568.2" r="2.5" transform="rotate(-19.8965 1376.63 1568.2)" fill="#8991FF"/>
<ellipse cx="397.93" cy="514" rx="4.5" ry="5" fill="#8991FF"/>
<ellipse cx="1661.5" cy="514" rx="4.5" ry="5" fill="#8991FF"/>
<ellipse cx="580.933" cy="685.233" rx="4.5" ry="5" transform="rotate(-19.8965 580.933 685.233)" fill="#8991FF"/>
<ellipse cx="1844.5" cy="685.233" rx="4.5" ry="5" transform="rotate(-19.8965 1844.5 685.233)" fill="#8991FF"/>
<ellipse cx="562.884" cy="1515.44" rx="4.5" ry="5" transform="rotate(-19.8965 562.884 1515.44)" fill="#8991FF"/>
<ellipse cx="1574.88" cy="1515.44" rx="4.5" ry="5" transform="rotate(-19.8965 1574.88 1515.44)" fill="#8991FF"/>
<ellipse cx="458.933" cy="1062.23" rx="4.5" ry="5" transform="rotate(-19.8965 458.933 1062.23)" fill="#8991FF"/>
<ellipse cx="1510.93" cy="1076.23" rx="4.5" ry="5" transform="rotate(-19.8965 1510.93 1076.23)" fill="#8991FF"/>
<ellipse cx="195.5" cy="243" rx="4.5" ry="5" fill="#8991FF"/>
<ellipse cx="1459.07" cy="243" rx="4.5" ry="5" fill="#8991FF"/>
<ellipse cx="105.93" cy="1391" rx="4.5" ry="5" fill="#8991FF"/>
<ellipse cx="1117.93" cy="1391" rx="4.5" ry="5" fill="#8991FF"/>
<ellipse cx="114.5" cy="1321" rx="4.5" ry="5" fill="#8991FF"/>
<ellipse cx="1126.5" cy="1321" rx="4.5" ry="5" fill="#8991FF"/>
<ellipse cx="5.93018" cy="1234" rx="4.5" ry="5" fill="#8991FF"/>
<ellipse cx="1017.93" cy="1234" rx="4.5" ry="5" fill="#8991FF"/>
<ellipse cx="471.93" cy="334" rx="2.5" ry="3" fill="#8991FF"/>
<ellipse cx="1735.5" cy="334" rx="2.5" ry="3" fill="#8991FF"/>
<ellipse cx="565.5" cy="145" rx="2.5" ry="3" fill="#8991FF"/>
<ellipse cx="1829.07" cy="145" rx="2.5" ry="3" fill="#8991FF"/>
<ellipse cx="179.93" cy="405" rx="2.5" ry="3" fill="#8991FF"/>
<ellipse cx="1443.5" cy="405" rx="2.5" ry="3" fill="#8991FF"/>
<ellipse cx="894.802" cy="851.135" rx="2.5" ry="3" transform="rotate(-19.8965 894.802 851.135)" fill="#8991FF"/>
<ellipse cx="1906.8" cy="851.135" rx="2.5" ry="3" transform="rotate(-19.8965 1906.8 851.135)" fill="#8991FF"/>
<ellipse cx="320.802" cy="1487.14" rx="2.5" ry="3" transform="rotate(-19.8965 320.802 1487.14)" fill="#8991FF"/>
<ellipse cx="1332.8" cy="1487.14" rx="2.5" ry="3" transform="rotate(-19.8965 1332.8 1487.14)" fill="#8991FF"/>
<ellipse cx="542.93" cy="452" rx="3.5" ry="3" fill="#8991FF"/>
<ellipse cx="1806.5" cy="452" rx="3.5" ry="3" fill="#8991FF"/>
<ellipse cx="280.312" cy="690.012" rx="3.5" ry="3" transform="rotate(-19.8965 280.312 690.012)" fill="#8991FF"/>
<ellipse cx="1543.88" cy="690.012" rx="3.5" ry="3" transform="rotate(-19.8965 1543.88 690.012)" fill="#8991FF"/>
<ellipse cx="307.742" cy="1548.01" rx="3.5" ry="3" transform="rotate(-19.8965 307.742 1548.01)" fill="#8991FF"/>
<ellipse cx="1319.74" cy="1548.01" rx="3.5" ry="3" transform="rotate(-19.8965 1319.74 1548.01)" fill="#8991FF"/>
<ellipse cx="17.7217" cy="911.929" rx="3.5" ry="3" transform="rotate(-19.8965 17.7217 911.929)" fill="#8991FF"/>
<ellipse cx="1029.72" cy="911.929" rx="3.5" ry="3" transform="rotate(-19.8965 1029.72 911.929)" fill="#8991FF"/>
<ellipse cx="668.742" cy="660.012" rx="3.5" ry="3" transform="rotate(-19.8965 668.742 660.012)" fill="#8991FF"/>
<ellipse cx="217.5" cy="1360" rx="3.5" ry="3" fill="#8991FF"/>
<ellipse cx="1229.5" cy="1360" rx="3.5" ry="3" fill="#8991FF"/>
<ellipse cx="386.312" cy="838.012" rx="3.5" ry="3" transform="rotate(-19.8965 386.312 838.012)" fill="#8991FF"/>
<ellipse cx="1314.31" cy="814.012" rx="3.5" ry="3" transform="rotate(-19.8965 1314.31 814.012)" fill="#8991FF"/>
<ellipse cx="17.7422" cy="980.012" rx="3.5" ry="3" transform="rotate(-19.8965 17.7422 980.012)" fill="#8991FF"/>
<ellipse cx="1029.74" cy="980.012" rx="3.5" ry="3" transform="rotate(-19.8965 1029.74 980.012)" fill="#8991FF"/>
<ellipse cx="309.5" cy="472" rx="3.5" ry="3" fill="#8991FF"/>
<ellipse cx="1573.07" cy="472" rx="3.5" ry="3" fill="#8991FF"/>
<ellipse cx="515.42" cy="1490.08" rx="3.5" ry="3" transform="rotate(-19.8965 515.42 1490.08)" fill="#8991FF"/>
<ellipse cx="1527.42" cy="1490.08" rx="3.5" ry="3" transform="rotate(-19.8965 1527.42 1490.08)" fill="#8991FF"/>
<ellipse cx="105.42" cy="828.078" rx="3.5" ry="3" transform="rotate(-19.8965 105.42 828.078)" fill="#8991FF"/>
<ellipse cx="1117.42" cy="828.078" rx="3.5" ry="3" transform="rotate(-19.8965 1117.42 828.078)" fill="#8991FF"/>
<ellipse cx="219.631" cy="754.306" rx="6" ry="5.5" transform="rotate(-19.8965 219.631 754.306)" fill="#8991FF"/>
<ellipse cx="1231.63" cy="754.306" rx="6" ry="5.5" transform="rotate(-19.8965 1231.63 754.306)" fill="#8991FF"/>
<ellipse cx="256" cy="544.5" rx="6" ry="5.5" fill="#8991FF"/>
<ellipse cx="1519.57" cy="544.5" rx="6" ry="5.5" fill="#8991FF"/>
<ellipse cx="467" cy="1280.5" rx="6" ry="5.5" fill="#8991FF"/>
<ellipse cx="1479" cy="1280.5" rx="6" ry="5.5" fill="#8991FF"/>
<ellipse cx="630.914" cy="722.57" rx="6" ry="5.5" transform="rotate(-19.8965 630.914 722.57)" fill="#8991FF"/>
<ellipse cx="1642.91" cy="722.57" rx="6" ry="5.5" transform="rotate(-19.8965 1642.91 722.57)" fill="#8991FF"/>
<ellipse cx="452.514" cy="1150.21" rx="6" ry="5.5" transform="rotate(-19.8965 452.514 1150.21)" fill="#8991FF"/>
<ellipse cx="1464.51" cy="1150.21" rx="6" ry="5.5" transform="rotate(-19.8965 1464.51 1150.21)" fill="#8991FF"/>
<ellipse cx="293" cy="278.5" rx="6" ry="5.5" fill="#8991FF"/>
<ellipse cx="1556.57" cy="278.5" rx="6" ry="5.5" fill="#8991FF"/>
<ellipse cx="187" cy="590.5" rx="6" ry="5.5" fill="#8991FF"/>
<ellipse cx="1450.57" cy="590.5" rx="6" ry="5.5" fill="#8991FF"/>
<ellipse cx="165.43" cy="1426.5" rx="6" ry="5.5" fill="#8991FF"/>
<ellipse cx="1177.43" cy="1426.5" rx="6" ry="5.5" fill="#8991FF"/>
<ellipse cx="274" cy="1301.5" rx="6" ry="5.5" fill="#8991FF"/>
<ellipse cx="1286" cy="1301.5" rx="6" ry="5.5" fill="#8991FF"/>
<ellipse cx="93" cy="1223.5" rx="6" ry="5.5" fill="#8991FF"/>
<ellipse cx="1105" cy="1223.5" rx="6" ry="5.5" fill="#8991FF"/>
<ellipse cx="338.514" cy="1130.21" rx="6" ry="5.5" transform="rotate(-19.8965 338.514 1130.21)" fill="#8991FF"/>
<ellipse cx="1350.51" cy="1130.21" rx="6" ry="5.5" transform="rotate(-19.8965 1350.51 1130.21)" fill="#8991FF"/>
<ellipse cx="486" cy="485.5" rx="6" ry="5.5" fill="#8991FF"/>
<ellipse cx="1749.57" cy="485.5" rx="6" ry="5.5" fill="#8991FF"/>
<ellipse cx="596.514" cy="578.214" rx="6" ry="5.5" transform="rotate(-19.8965 596.514 578.214)" fill="#8991FF"/>
<ellipse cx="1860.08" cy="578.214" rx="6" ry="5.5" transform="rotate(-19.8965 1860.08 578.214)" fill="#8991FF"/>
<ellipse cx="586.514" cy="1386.21" rx="6" ry="5.5" transform="rotate(-19.8965 586.514 1386.21)" fill="#8991FF"/>
<ellipse cx="1598.51" cy="1386.21" rx="6" ry="5.5" transform="rotate(-19.8965 1598.51 1386.21)" fill="#8991FF"/>
<ellipse cx="162.944" cy="720.214" rx="6" ry="5.5" transform="rotate(-19.8965 162.944 720.214)" fill="#8991FF"/>
<ellipse cx="1174.94" cy="720.214" rx="6" ry="5.5" transform="rotate(-19.8965 1174.94 720.214)" fill="#8991FF"/>
<ellipse cx="523" cy="214.5" rx="6" ry="5.5" fill="#8991FF"/>
<ellipse cx="1786.57" cy="214.5" rx="6" ry="5.5" fill="#8991FF"/>
<ellipse cx="108" cy="458.5" rx="6" ry="5.5" fill="#8991FF"/>
<ellipse cx="1371.57" cy="458.5" rx="6" ry="5.5" fill="#8991FF"/>
<ellipse cx="330.514" cy="746.214" rx="6" ry="5.5" transform="rotate(-19.8965 330.514 746.214)" fill="#8991FF"/>
<ellipse cx="1342.51" cy="746.214" rx="6" ry="5.5" transform="rotate(-19.8965 1342.51 746.214)" fill="#8991FF"/>
<circle cx="504.684" cy="663.684" r="6" transform="rotate(-19.8965 504.684 663.684)" fill="#8991FF"/>
<circle cx="1768.25" cy="663.684" r="6" transform="rotate(-19.8965 1768.25 663.684)" fill="#8991FF"/>
<circle cx="550.717" cy="1453.91" r="6" transform="rotate(-19.8965 550.717 1453.91)" fill="#8991FF"/>
<circle cx="1562.72" cy="1453.91" r="6" transform="rotate(-19.8965 1562.72 1453.91)" fill="#8991FF"/>
<circle cx="219" cy="137" r="6" fill="#8991FF"/>
<circle cx="1482.57" cy="137" r="6" fill="#8991FF"/>
<circle cx="115.43" cy="523" r="6" fill="#8991FF"/>
<circle cx="1379" cy="523" r="6" fill="#8991FF"/>
<circle cx="326" cy="384" r="4" fill="#8991FF"/>
<circle cx="1589.57" cy="384" r="4" fill="#8991FF"/>
<circle cx="460.123" cy="1377.12" r="4" transform="rotate(-19.8965 460.123 1377.12)" fill="#8991FF"/>
<circle cx="1472.12" cy="1377.12" r="4" transform="rotate(-19.8965 1472.12 1377.12)" fill="#8991FF"/>
<circle cx="90.5527" cy="741.123" r="4" transform="rotate(-19.8965 90.5527 741.123)" fill="#8991FF"/>
<circle cx="1102.55" cy="741.123" r="4" transform="rotate(-19.8965 1102.55 741.123)" fill="#8991FF"/>
<circle cx="161.123" cy="1509.12" r="4" transform="rotate(-19.8965 161.123 1509.12)" fill="#8991FF"/>
<circle cx="1173.12" cy="1509.12" r="4" transform="rotate(-19.8965 1173.12 1509.12)" fill="#8991FF"/>
<circle cx="617" cy="443" r="4" fill="#8991FF"/>
<circle cx="1880.57" cy="443" r="4" fill="#8991FF"/>
<circle cx="268.43" cy="1478" r="4" fill="#8991FF"/>
<circle cx="1280.43" cy="1478" r="4" fill="#8991FF"/>
<circle cx="465.123" cy="888.122" r="4" transform="rotate(-19.8965 465.123 888.122)" fill="#8991FF"/>
<circle cx="1415.12" cy="934.122" r="4" transform="rotate(-19.8965 1415.12 934.122)" fill="#8991FF"/>
<circle cx="128.553" cy="1075.12" r="4" transform="rotate(-19.8965 128.553 1075.12)" fill="#8991FF"/>
<circle cx="1140.55" cy="1075.12" r="4" transform="rotate(-19.8965 1140.55 1075.12)" fill="#8991FF"/>
<circle cx="508" cy="581" r="4" fill="#8991FF"/>
<circle cx="1771.57" cy="581" r="4" fill="#8991FF"/>
<circle cx="695.122" cy="774.122" r="4" transform="rotate(-19.8965 695.122 774.122)" fill="#8991FF"/>
<circle cx="1707.12" cy="774.122" r="4" transform="rotate(-19.8965 1707.12 774.122)" fill="#8991FF"/>
<circle cx="297.123" cy="963.122" r="4" transform="rotate(-19.8965 297.123 963.122)" fill="#8991FF"/>
<circle cx="1307.12" cy="949.122" r="4" transform="rotate(-19.8965 1307.12 949.122)" fill="#8991FF"/>
<circle cx="400.553" cy="592.122" r="4" transform="rotate(-19.8965 400.553 592.122)" fill="#8991FF"/>
<circle cx="1664.12" cy="592.122" r="4" transform="rotate(-19.8965 1664.12 592.122)" fill="#8991FF"/>
<circle cx="400.553" cy="592.122" r="4" transform="rotate(-19.8965 400.553 592.122)" fill="#8991FF"/>
<circle cx="1664.12" cy="592.122" r="4" transform="rotate(-19.8965 1664.12 592.122)" fill="#8991FF"/>
<circle cx="16.5527" cy="524.123" r="4" transform="rotate(-19.8965 16.5527 524.123)" fill="#8991FF"/>
<circle cx="1028.55" cy="524.123" r="4" transform="rotate(-19.8965 1028.55 524.123)" fill="#8991FF"/>
<circle cx="31.5527" cy="710.123" r="4" transform="rotate(-19.8965 31.5527 710.123)" fill="#8991FF"/>
<circle cx="1043.55" cy="710.123" r="4" transform="rotate(-19.8965 1043.55 710.123)" fill="#8991FF"/>
<circle cx="5.12252" cy="1506.12" r="4" transform="rotate(-19.8965 5.12252 1506.12)" fill="#8991FF"/>
<circle cx="1017.12" cy="1506.12" r="4" transform="rotate(-19.8965 1017.12 1506.12)" fill="#8991FF"/>
<circle cx="198.43" cy="664" r="4" fill="#8991FF"/>
<circle cx="1462" cy="664" r="4" fill="#8991FF"/>
<circle cx="198.43" cy="1470" r="4" fill="#8991FF"/>
<circle cx="1210.43" cy="1470" r="4" fill="#8991FF"/>
<circle cx="502.553" cy="956.123" r="4" transform="rotate(-19.8965 502.553 956.123)" fill="#8991FF"/>
<circle cx="1514.55" cy="956.123" r="4" transform="rotate(-19.8965 1514.55 956.123)" fill="#8991FF"/>
<circle cx="16.3408" cy="1062.38" r="4" transform="rotate(-19.8965 16.3408 1062.38)" fill="#8991FF"/>
<circle cx="1028.34" cy="1062.38" r="4" transform="rotate(-19.8965 1028.34 1062.38)" fill="#8991FF"/>
<circle cx="421.43" cy="370" r="4" fill="#8991FF"/>
<circle cx="1685" cy="370" r="4" fill="#8991FF"/>
<circle cx="215" cy="66.9999" r="4" fill="#8991FF"/>
<circle cx="1478.57" cy="66.9999" r="4" fill="#8991FF"/>
<circle cx="490" cy="161" r="4" fill="#8991FF"/>
<circle cx="1753.57" cy="161" r="4" fill="#8991FF"/>
<circle cx="31.5527" cy="788.123" r="4" transform="rotate(-19.8965 31.5527 788.123)" fill="#8991FF"/>
<circle cx="1043.55" cy="788.123" r="4" transform="rotate(-19.8965 1043.55 788.123)" fill="#8991FF"/>
<circle cx="617.035" cy="74.6048" r="7.5" transform="rotate(-19.8965 617.035 74.6048)" fill="#8991FF"/>
<circle cx="1880.6" cy="74.6048" r="7.5" transform="rotate(-19.8965 1880.6 74.6048)" fill="#8991FF"/>
<ellipse cx="283.041" cy="9.88815" rx="8" ry="7.5" transform="rotate(-19.8965 283.041 9.88815)" fill="#8991FF"/>
<ellipse cx="1546.61" cy="9.88815" rx="8" ry="7.5" transform="rotate(-19.8965 1546.61 9.88815)" fill="#8991FF"/>
<ellipse cx="117.075" cy="102.775" rx="8" ry="7.5" transform="rotate(-19.8965 117.075 102.775)" fill="#8991FF"/>
<ellipse cx="1380.64" cy="102.775" rx="8" ry="7.5" transform="rotate(-19.8965 1380.64 102.775)" fill="#8991FF"/>
<ellipse cx="36.3871" cy="38.0083" rx="4.5" ry="5" transform="rotate(-19.8965 36.3871 38.0083)" fill="#8991FF"/>
<ellipse cx="1299.96" cy="38.0083" rx="4.5" ry="5" transform="rotate(-19.8965 1299.96 38.0083)" fill="#8991FF"/>
<ellipse cx="442.742" cy="113.012" rx="3.5" ry="3" transform="rotate(-19.8965 442.742 113.012)" fill="#8991FF"/>
<ellipse cx="1706.31" cy="113.012" rx="3.5" ry="3" transform="rotate(-19.8965 1706.31 113.012)" fill="#8991FF"/>
<ellipse cx="57.312" cy="150.012" rx="3.5" ry="3" transform="rotate(-19.8965 57.312 150.012)" fill="#8991FF"/>
<ellipse cx="1320.88" cy="150.012" rx="3.5" ry="3" transform="rotate(-19.8965 1320.88 150.012)" fill="#8991FF"/>
<ellipse cx="120.312" cy="8.01203" rx="3.5" ry="3" transform="rotate(-19.8965 120.312 8.01203)" fill="#8991FF"/>
<ellipse cx="34.9438" cy="239.214" rx="6" ry="5.5" transform="rotate(-19.8965 34.9438 239.214)" fill="#8991FF"/>
<ellipse cx="1298.51" cy="239.214" rx="6" ry="5.5" transform="rotate(-19.8965 1298.51 239.214)" fill="#8991FF"/>
<circle cx="453.114" cy="34.6838" r="6" transform="rotate(-19.8965 453.114 34.6838)" fill="#8991FF"/>
<circle cx="1716.68" cy="34.6838" r="6" transform="rotate(-19.8965 1716.68 34.6838)" fill="#8991FF"/>
<circle cx="112.553" cy="216.123" r="4" transform="rotate(-19.8965 112.553 216.123)" fill="#8991FF"/>
<circle cx="1376.12" cy="216.123" r="4" transform="rotate(-19.8965 1376.12 216.123)" fill="#8991FF"/>
<circle cx="105.123" cy="308.122" r="4" transform="rotate(-19.8965 105.123 308.122)" fill="#8991FF"/>
<circle cx="1368.69" cy="308.122" r="4" transform="rotate(-19.8965 1368.69 308.122)" fill="#8991FF"/>
<circle cx="822.035" cy="1759.6" r="7.5" transform="rotate(-19.8965 822.035 1759.6)" fill="#8991FF"/>
<ellipse cx="1232.51" cy="1802.78" rx="8" ry="7.5" transform="rotate(-19.8965 1232.51 1802.78)" fill="#8991FF"/>
<ellipse cx="626.565" cy="1759.43" rx="7" ry="7.5" transform="rotate(-19.8965 626.565 1759.43)" fill="#8991FF"/>
<ellipse cx="925.435" cy="1721.13" rx="7.5" ry="7" transform="rotate(-19.8965 925.435 1721.13)" fill="#8991FF"/>
<ellipse cx="680.363" cy="1792.23" rx="4.5" ry="5" transform="rotate(-19.8965 680.363 1792.23)" fill="#8991FF"/>
<ellipse cx="1216.31" cy="1626.01" rx="3.5" ry="3" transform="rotate(-19.8965 1216.31 1626.01)" fill="#8991FF"/>
<ellipse cx="1021.74" cy="1766.01" rx="3.5" ry="3" transform="rotate(-19.8965 1021.74 1766.01)" fill="#8991FF"/>
<ellipse cx="1184.21" cy="1773.9" rx="3.5" ry="3" transform="rotate(-19.8965 1184.21 1773.9)" fill="#8991FF"/>
<ellipse cx="700.742" cy="1749.01" rx="3.5" ry="3" transform="rotate(-19.8965 700.742 1749.01)" fill="#8991FF"/>
<ellipse cx="1181.51" cy="1720.21" rx="6" ry="5.5" transform="rotate(-19.8965 1181.51 1720.21)" fill="#8991FF"/>
<ellipse cx="1116.51" cy="1660.21" rx="6" ry="5.5" transform="rotate(-19.8965 1116.51 1660.21)" fill="#8991FF"/>
<circle cx="761.684" cy="1709.68" r="6" transform="rotate(-19.8965 761.684 1709.68)" fill="#8991FF"/>
<circle cx="1057.68" cy="1726.68" r="6" transform="rotate(-19.8965 1057.68 1726.68)" fill="#8991FF"/>
<circle cx="726.122" cy="1629.12" r="4" transform="rotate(-19.8965 726.122 1629.12)" fill="#8991FF"/>
<circle cx="1039.12" cy="1622.12" r="4" transform="rotate(-19.8965 1039.12 1622.12)" fill="#8991FF"/>
<circle cx="629.122" cy="1639.12" r="4" transform="rotate(-19.8965 629.122 1639.12)" fill="#8991FF"/>
<circle cx="824.122" cy="1634.12" r="4" transform="rotate(-19.8965 824.122 1634.12)" fill="#8991FF"/>
<circle cx="639.987" cy="1709.73" r="4" transform="rotate(-19.8965 639.987 1709.73)" fill="#8991FF"/>
<circle cx="957.553" cy="1762.12" r="4" transform="rotate(-19.8965 957.553 1762.12)" fill="#8991FF"/>
<ellipse cx="696.505" cy="293.775" rx="8" ry="7.5" transform="rotate(-19.8965 696.505 293.775)" fill="#8991FF"/>
<ellipse cx="662.129" cy="203.793" rx="3.5" ry="3" transform="rotate(-19.8965 662.129 203.793)" fill="#8991FF"/>
<ellipse cx="613.631" cy="212.306" rx="6" ry="5.5" transform="rotate(-19.8965 613.631 212.306)" fill="#8991FF"/>
<ellipse cx="1877.2" cy="212.306" rx="6" ry="5.5" transform="rotate(-19.8965 1877.2 212.306)" fill="#8991FF"/>
<ellipse cx="614.914" cy="324.57" rx="6" ry="5.5" transform="rotate(-19.8965 614.914 324.57)" fill="#8991FF"/>
<ellipse cx="1878.48" cy="324.57" rx="6" ry="5.5" transform="rotate(-19.8965 1878.48 324.57)" fill="#8991FF"/>
<circle cx="644.553" cy="558.122" r="4" transform="rotate(-19.8965 644.553 558.122)" fill="#8991FF"/>
<ellipse cx="635.451" cy="1234.77" rx="8" ry="7.5" transform="rotate(-19.8965 635.451 1234.77)" fill="#8991FF"/>
<ellipse cx="1415.07" cy="1000.77" rx="8" ry="7.5" transform="rotate(-19.8965 1415.07 1000.77)" fill="#8991FF"/>
<ellipse cx="875.075" cy="786.775" rx="8" ry="7.5" transform="rotate(-19.8965 875.075 786.775)" fill="#8991FF"/>
<ellipse cx="1887.07" cy="786.775" rx="8" ry="7.5" transform="rotate(-19.8965 1887.07 786.775)" fill="#8991FF"/>
<ellipse cx="653.505" cy="847.775" rx="8" ry="7.5" transform="rotate(-19.8965 653.505 847.775)" fill="#8991FF"/>
<ellipse cx="1559.07" cy="1180.77" rx="8" ry="7.5" transform="rotate(-19.8965 1559.07 1180.77)" fill="#8991FF"/>
<ellipse cx="624.135" cy="1300.43" rx="7" ry="7.5" transform="rotate(-19.8965 624.135 1300.43)" fill="#8991FF"/>
<ellipse cx="1636.13" cy="1300.43" rx="7" ry="7.5" transform="rotate(-19.8965 1636.13 1300.43)" fill="#8991FF"/>
<ellipse cx="854.36" cy="869.983" rx="7" ry="7.5" transform="rotate(-19.8965 854.36 869.983)" fill="#8991FF"/>
<ellipse cx="1866.36" cy="869.983" rx="7" ry="7.5" transform="rotate(-19.8965 1866.36 869.983)" fill="#8991FF"/>
<ellipse cx="734.135" cy="868.435" rx="7" ry="7.5" transform="rotate(-19.8965 734.135 868.435)" fill="#8991FF"/>
<ellipse cx="1746.13" cy="914.435" rx="7" ry="7.5" transform="rotate(-19.8965 1746.13 914.435)" fill="#8991FF"/>
<ellipse cx="909.435" cy="1295.13" rx="7.5" ry="7" transform="rotate(-19.8965 909.435 1295.13)" fill="#8991FF"/>
<ellipse cx="788.865" cy="1107.13" rx="7.5" ry="7" transform="rotate(-19.8965 788.865 1107.13)" fill="#8991FF"/>
<ellipse cx="1822.43" cy="1123.13" rx="7.5" ry="7" transform="rotate(-19.8965 1822.43 1123.13)" fill="#8991FF"/>
<ellipse cx="611.865" cy="1163.13" rx="7.5" ry="7" transform="rotate(-19.8965 611.865 1163.13)" fill="#8991FF"/>
<ellipse cx="1633.43" cy="1131.13" rx="7.5" ry="7" transform="rotate(-19.8965 1633.43 1131.13)" fill="#8991FF"/>
<ellipse cx="798.435" cy="804.135" rx="7.5" ry="7" transform="rotate(-19.8965 798.435 804.135)" fill="#8991FF"/>
<ellipse cx="1810.43" cy="804.135" rx="7.5" ry="7" transform="rotate(-19.8965 1810.43 804.135)" fill="#8991FF"/>
<ellipse cx="513.435" cy="765.135" rx="7.5" ry="7" transform="rotate(-19.8965 513.435 765.135)" fill="#8991FF"/>
<ellipse cx="1525.43" cy="765.135" rx="7.5" ry="7" transform="rotate(-19.8965 1525.43 765.135)" fill="#8991FF"/>
<ellipse cx="807.775" cy="1334.07" rx="7.5" ry="8" transform="rotate(-19.8965 807.775 1334.07)" fill="#8991FF"/>
<ellipse cx="1819.77" cy="1334.07" rx="7.5" ry="8" transform="rotate(-19.8965 1819.77 1334.07)" fill="#8991FF"/>
<ellipse cx="734.933" cy="1293.23" rx="4.5" ry="5" transform="rotate(-19.8965 734.933 1293.23)" fill="#8991FF"/>
<ellipse cx="1746.93" cy="1293.23" rx="4.5" ry="5" transform="rotate(-19.8965 1746.93 1293.23)" fill="#8991FF"/>
<circle cx="737.833" cy="1388.4" r="5" transform="rotate(-19.8965 737.833 1388.4)" fill="#8991FF"/>
<circle cx="1749.83" cy="1388.4" r="5" transform="rotate(-19.8965 1749.83 1388.4)" fill="#8991FF"/>
<circle cx="849.202" cy="1371.2" r="2.5" transform="rotate(-19.8965 849.202 1371.2)" fill="#8991FF"/>
<circle cx="1861.2" cy="1371.2" r="2.5" transform="rotate(-19.8965 1861.2 1371.2)" fill="#8991FF"/>
<circle cx="811.218" cy="896.232" r="2.5" transform="rotate(-19.8965 811.218 896.232)" fill="#8991FF"/>
<circle cx="1877.2" cy="938.202" r="2.5" transform="rotate(-19.8965 1877.2 938.202)" fill="#8991FF"/>
<circle cx="604.632" cy="951.202" r="2.5" transform="rotate(-19.8965 604.632 951.202)" fill="#8991FF"/>
<circle cx="1616.63" cy="951.202" r="2.5" transform="rotate(-19.8965 1616.63 951.202)" fill="#8991FF"/>
<ellipse cx="552.372" cy="1253.67" rx="2.5" ry="3" transform="rotate(-19.8965 552.372 1253.67)" fill="#8991FF"/>
<ellipse cx="1564.37" cy="1253.67" rx="2.5" ry="3" transform="rotate(-19.8965 1564.37 1253.67)" fill="#8991FF"/>
<ellipse cx="779.802" cy="881.672" rx="2.5" ry="3" transform="rotate(-19.8965 779.802 881.672)" fill="#8991FF"/>
<ellipse cx="1629.37" cy="1039.67" rx="2.5" ry="3" transform="rotate(-19.8965 1629.37 1039.67)" fill="#8991FF"/>
<ellipse cx="597.802" cy="856.135" rx="2.5" ry="3" transform="rotate(-19.8965 597.802 856.135)" fill="#8991FF"/>
<ellipse cx="1629.37" cy="877.672" rx="2.5" ry="3" transform="rotate(-19.8965 1629.37 877.672)" fill="#8991FF"/>
<ellipse cx="699.722" cy="1360.93" rx="3.5" ry="3" transform="rotate(-19.8965 699.722 1360.93)" fill="#8991FF"/>
<ellipse cx="1711.72" cy="1360.93" rx="3.5" ry="3" transform="rotate(-19.8965 1711.72 1360.93)" fill="#8991FF"/>
<ellipse cx="900.742" cy="1406.01" rx="3.5" ry="3" transform="rotate(-19.8965 900.742 1406.01)" fill="#8991FF"/>
<ellipse cx="692.742" cy="1426.01" rx="3.5" ry="3" transform="rotate(-19.8965 692.742 1426.01)" fill="#8991FF"/>
<ellipse cx="1704.74" cy="1426.01" rx="3.5" ry="3" transform="rotate(-19.8965 1704.74 1426.01)" fill="#8991FF"/>
<ellipse cx="880.806" cy="1479.03" rx="3.5" ry="3" transform="rotate(-19.8965 880.806 1479.03)" fill="#8991FF"/>
<ellipse cx="1892.81" cy="1479.03" rx="3.5" ry="3" transform="rotate(-19.8965 1892.81 1479.03)" fill="#8991FF"/>
<ellipse cx="787.42" cy="1277.08" rx="3.5" ry="3" transform="rotate(-19.8965 787.42 1277.08)" fill="#8991FF"/>
<ellipse cx="1799.42" cy="1277.08" rx="3.5" ry="3" transform="rotate(-19.8965 1799.42 1277.08)" fill="#8991FF"/>
<ellipse cx="903.944" cy="1089.21" rx="6" ry="5.5" transform="rotate(-19.8965 903.944 1089.21)" fill="#8991FF"/>
<ellipse cx="655.944" cy="1363.21" rx="6" ry="5.5" transform="rotate(-19.8965 655.944 1363.21)" fill="#8991FF"/>
<ellipse cx="1667.94" cy="1363.21" rx="6" ry="5.5" transform="rotate(-19.8965 1667.94 1363.21)" fill="#8991FF"/>
<ellipse cx="849.224" cy="1431.44" rx="6" ry="5.5" transform="rotate(-19.8965 849.224 1431.44)" fill="#8991FF"/>
<ellipse cx="1861.22" cy="1431.44" rx="6" ry="5.5" transform="rotate(-19.8965 1861.22 1431.44)" fill="#8991FF"/>
<ellipse cx="790.514" cy="1475.21" rx="6" ry="5.5" transform="rotate(-19.8965 790.514 1475.21)" fill="#8991FF"/>
<ellipse cx="1802.51" cy="1475.21" rx="6" ry="5.5" transform="rotate(-19.8965 1802.51 1475.21)" fill="#8991FF"/>
<ellipse cx="867.514" cy="1193.21" rx="6" ry="5.5" transform="rotate(-19.8965 867.514 1193.21)" fill="#8991FF"/>
<ellipse cx="1869.51" cy="1185.21" rx="6" ry="5.5" transform="rotate(-19.8965 1869.51 1185.21)" fill="#8991FF"/>
<ellipse cx="787.944" cy="1423.21" rx="6" ry="5.5" transform="rotate(-19.8965 787.944 1423.21)" fill="#8991FF"/>
<ellipse cx="1799.94" cy="1423.21" rx="6" ry="5.5" transform="rotate(-19.8965 1799.94 1423.21)" fill="#8991FF"/>
<circle cx="749.553" cy="1207.12" r="4" transform="rotate(-19.8965 749.553 1207.12)" fill="#8991FF"/>
<circle cx="1761.12" cy="1197.12" r="4" transform="rotate(-19.8965 1761.12 1197.12)" fill="#8991FF"/>
<circle cx="1260.89" cy="1661.08" r="4" transform="rotate(-19.8965 1260.89 1661.08)" fill="#8991FF"/>
<circle cx="885.553" cy="1003.12" r="4" transform="rotate(-19.8965 885.553 1003.12)" fill="#8991FF"/>
<circle cx="1897.55" cy="1003.12" r="4" transform="rotate(-19.8965 1897.55 1003.12)" fill="#8991FF"/>
<circle cx="685.027" cy="1163.12" r="4" transform="rotate(-19.8965 685.027 1163.12)" fill="#8991FF"/>
<circle cx="1697.03" cy="1163.12" r="4" transform="rotate(-19.8965 1697.03 1163.12)" fill="#8991FF"/>
<circle cx="883.027" cy="1225.12" r="4" transform="rotate(-19.8965 883.027 1225.12)" fill="#8991FF"/>
<circle cx="1890.12" cy="1283.12" r="4" transform="rotate(-19.8965 1890.12 1283.12)" fill="#8991FF"/>
<circle cx="744.122" cy="714.122" r="4" transform="rotate(-19.8965 744.122 714.122)" fill="#8991FF"/>
<circle cx="1756.12" cy="714.122" r="4" transform="rotate(-19.8965 1756.12 714.122)" fill="#8991FF"/>
<circle cx="896.341" cy="1573.38" r="4" transform="rotate(-19.8965 896.341 1573.38)" fill="#8991FF"/>
<circle cx="700.987" cy="1230.73" r="4" transform="rotate(-19.8965 700.987 1230.73)" fill="#8991FF"/>
<circle cx="1825.12" cy="1217.12" r="4" transform="rotate(-19.8965 1825.12 1217.12)" fill="#8991FF"/>
</g>
</svg>
