<svg width="1920" height="112" viewBox="0 0 1920 112" fill="none" xmlns="http://www.w3.org/2000/svg">
<path d="M1920.43 36.72V117H0.430176V4.92993L30.6202 5.82007C40.6202 6.21007 50.6202 6.82002 60.6202 7.27002C70.6202 7.72002 80.6202 8.50011 90.6202 9.11011L105.62 10.3C110.62 10.69 115.62 11.0801 120.62 11.6001L135.43 13L150.34 14.6201C155.34 15.1301 160.28 15.7501 165.24 16.3401L180.14 18.1599C200.01 20.6399 219.91 23.2701 239.91 25.3601C279.91 29.7101 320.11 31.7799 360.27 32.8999L375.33 33.27C380.33 33.4 385.33 33.53 390.4 33.55C397.72 33.61 400.49 33.7401 420.54 33.8101C430.59 33.7401 440.65 33.7401 450.7 33.6201L465.8 33.29C470.8 33.18 475.86 33.0801 480.89 32.8501L495.99 32.25C500.99 32.07 506.05 31.72 511.08 31.46C521.14 30.95 531.18 30.15 541.23 29.46C561.3 27.87 581.23 25.89 601.15 24.2C606.15 23.79 611.1 23.34 616.07 22.97L630.97 21.8899C635.97 21.5199 640.91 21.3 645.88 20.98C650.85 20.66 655.81 20.3699 660.79 20.1899L675.71 19.54C680.71 19.32 685.71 19.2501 690.65 19.1001L705.59 18.72L720.59 18.5601C760.47 18.2501 800.46 18.6201 840.27 20.3101L855.2 20.98C860.2 21.18 865.13 21.5601 870.1 21.8401C875.07 22.1201 880.04 22.4001 885 22.8401L899.87 24C919.71 25.66 939.51 27.75 959.42 30C979.33 32.25 999.42 34.2799 1019.5 35.9299L1034.59 37.0701C1039.59 37.4701 1044.65 37.7 1049.69 38.02C1054.73 38.34 1059.76 38.6701 1064.79 38.8601L1079.89 39.49C1100.03 40.2433 1120.15 40.6734 1140.26 40.78C1145.26 40.78 1150.26 40.9199 1155.34 40.8899H1170.43L1185.51 40.8401L1200.6 40.55L1215.7 40.25L1230.8 39.72C1235.8 39.52 1240.87 39.4099 1245.9 39.1299L1261 38.3401C1266 38.1101 1271.06 37.7399 1276.09 37.3899C1281.12 37.0399 1286.16 36.74 1291.18 36.3L1306.18 35C1311.18 34.56 1316.18 34.0001 1321.18 33.5701C1341.18 31.5701 1361.09 29.39 1380.94 27.52C1390.87 26.65 1400.79 25.69 1410.73 25.03C1415.73 24.69 1420.66 24.26 1425.64 24.03L1440.56 23.1899C1445.56 22.8799 1450.56 22.69 1455.5 22.5L1470.5 21.8899C1480.5 21.5699 1490.5 21.3701 1500.43 21.1001C1510.36 20.8301 1520.43 20.86 1530.43 20.74C1535.43 20.66 1540.43 20.6799 1545.43 20.6899H1560.43C1570.43 20.6299 1580.43 20.87 1590.43 21C1600.43 21.13 1610.43 21.51 1620.38 21.77C1625.38 21.88 1630.38 22.1201 1635.38 22.3601L1650.38 23.05C1660.38 23.7 1670.31 24.22 1680.26 25.05C1700.19 26.48 1720.1 28.45 1740.08 30.28L1755.08 31.6201C1760.08 32.0501 1765.08 32.5101 1770.08 32.8601L1785.08 33.97L1800.08 34.8201C1836.14 36.7501 1882.32 37.19 1920.43 36.72Z" fill="#325FF8"/>
<path d="M1920.43 36.1699V36.72C1882.32 37.19 1836.14 36.72 1799.97 34.72L1784.97 33.8701L1769.97 32.76C1764.97 32.41 1759.97 31.95 1754.97 31.52L1739.97 30.1799C1719.97 28.3499 1700.08 26.38 1680.15 24.95C1670.15 24.13 1660.23 23.61 1650.27 22.95L1635.27 22.26C1630.27 22.02 1625.27 21.7799 1620.27 21.6699C1610.27 21.4099 1600.27 20.9799 1590.32 20.8999C1580.37 20.8199 1570.32 20.5301 1560.32 20.5901H1545.32C1540.32 20.5901 1535.32 20.5899 1530.32 20.6399C1520.32 20.7599 1510.32 20.82 1500.32 21C1490.32 21.18 1480.32 21.47 1470.39 21.79L1455.39 22.3999C1450.39 22.5899 1445.39 22.7801 1440.45 23.0901L1425.53 23.9299C1420.53 24.1999 1415.59 24.6299 1410.62 24.9299C1400.68 25.5899 1390.76 26.5499 1380.83 27.4199C1360.98 29.2899 1341.08 31.49 1321.07 33.47C1316.07 33.94 1311.07 34.4699 1306.07 34.8999L1291.07 36.2C1286.07 36.6399 1281.01 36.93 1275.98 37.29C1270.95 37.65 1265.93 38.01 1260.89 38.24L1245.79 39.03C1240.79 39.31 1235.72 39.4201 1230.69 39.6201L1215.59 40.1499L1200.49 40.45L1185.4 40.74L1170.32 40.79H1155.23C1150.23 40.79 1145.18 40.7099 1140.15 40.6799C1120.04 40.5466 1099.92 40.1166 1079.78 39.3899L1064.68 38.76C1059.68 38.57 1054.61 38.1899 1049.58 37.9199C1044.55 37.6499 1039.51 37.37 1034.48 36.97L1019.39 35.8301C999.28 34.1801 979.23 32.1099 959.31 29.8999C939.39 27.6899 919.6 25.5699 899.76 23.8999L884.89 22.74C879.89 22.34 874.96 22.11 869.99 21.74C865.02 21.37 860.06 21.0799 855.09 20.8799L840.16 20.21C800.35 18.52 760.36 18.15 720.48 18.46L705.48 18.6201L690.54 19C685.54 19.15 680.54 19.2199 675.6 19.4399L660.68 20.0901C655.68 20.2701 650.74 20.5799 645.77 20.8799C640.8 21.1799 635.83 21.42 630.86 21.79L615.96 22.8701C610.96 23.2401 606.02 23.6901 601.04 24.1001C581.15 25.7901 561.19 27.7701 541.12 29.3601C531.12 30.0601 521.03 30.8601 510.97 31.3601C505.97 31.6201 500.91 31.9699 495.88 32.1499L480.78 32.75C475.78 32.98 470.72 33.0799 465.69 33.1899L450.59 33.52C440.59 33.64 430.48 33.64 420.43 33.71C400.38 33.64 397.61 33.51 390.29 33.45C385.29 33.45 380.24 33.2999 375.22 33.1699L360.16 32.8C320 31.68 279.78 29.61 239.8 25.26L232.3 24.45C230.13 24.21 227.97 23.97 225.8 23.71C215.48 22.52 205.19 21.2299 194.91 19.9399C192.15 19.5799 189.38 19.2399 186.62 18.9399L180.03 18.1101L165.13 16.29C161.6 15.87 158.07 15.44 154.54 15.04C153.1 14.87 151.68 14.7201 150.24 14.5701L135.43 13L120.5 11.5601C115.5 11.0401 110.5 10.65 105.5 10.26L90.5002 9.07007C80.5002 8.46007 70.5002 7.75998 60.5002 7.22998C55.5002 6.98998 50.5002 6.73664 45.5002 6.46997H44.9702C40.1402 6.22997 35.3302 6.00006 30.5002 5.81006L0.430176 4.92993V4.28003C12.7102 4.15003 25.9302 4.11994 39.4302 4.18994C67.6902 4.34994 97.0102 5.02012 120.94 6.37012L135.94 7.22998L150.94 8.34009C155.66 8.67009 160.35 9.1 165.06 9.5L165.94 9.58008L180.94 10.9199H181.48L201.63 12.8C214.68 14.01 227.71 15.1701 240.75 16.1101C250.75 16.9201 260.68 17.4401 270.64 18.1101L285.64 18.8101C290.64 19.0501 295.64 19.2799 300.64 19.3999C310.64 19.6599 320.59 20.0799 330.59 20.1599C340.59 20.2399 350.59 20.54 360.59 20.48H375.59C380.59 20.48 385.59 20.4799 390.59 20.4299C400.59 20.2999 410.59 20.2401 420.59 20.0701C430.59 19.9001 440.59 19.6 450.52 19.28L465.47 18.6599C470.47 18.4699 475.47 18.29 480.41 17.98L495.33 17.1399C500.33 16.8699 505.27 16.4399 510.24 16.1399C520.18 15.4799 530.1 14.5199 540.03 13.6499C559.89 11.7699 579.78 9.5801 599.79 7.6001C604.79 7.1201 609.79 6.59991 614.79 6.15991L629.85 4.87012C634.85 4.44012 639.9 4.13002 644.93 3.77002C649.96 3.41002 654.99 3.05007 660.02 2.82007L675.12 2.03003C680.12 1.75003 685.19 1.63994 690.22 1.43994L705.32 0.909912L720.42 0.610107L735.51 0.330078L750.59 0.26001L765.68 0.209961C770.68 0.209961 775.68 0.290068 780.76 0.320068C800.867 0.460068 820.99 0.89345 841.13 1.62012L856.23 2.23999C861.23 2.42999 866.3 2.81008 871.33 3.08008C876.36 3.35008 881.4 3.62008 886.43 4.08008L901.52 5.21997C921.62 6.86997 941.68 8.9499 961.6 11.1499C981.52 13.3499 1001.31 15.4699 1021.15 17.1499L1036.02 18.3101C1041.02 18.7101 1045.95 18.9401 1050.92 19.3101C1055.89 19.6801 1060.85 19.9599 1065.82 20.1599L1080.75 20.8301C1100.66 21.6901 1120.59 22.23 1140.56 22.45C1145.56 22.51 1150.56 22.6399 1155.56 22.6399H1170.56H1185.56L1200.51 22.5L1215.51 22.3401L1230.45 21.96C1235.45 21.81 1240.45 21.74 1245.39 21.52L1260.31 20.8701C1265.31 20.6901 1270.25 20.3801 1275.22 20.0801C1280.19 19.7801 1285.16 19.5299 1290.13 19.1699L1305.03 18.0801C1310.03 17.7101 1314.97 17.2601 1319.94 16.8501C1339.84 15.1601 1359.8 13.1901 1379.87 11.6001C1389.87 10.8901 1399.95 10.0901 1410.02 9.6001C1415.02 9.3401 1420.08 8.99005 1425.11 8.80005L1440.21 8.19995C1445.21 7.96995 1450.27 7.87001 1455.3 7.76001L1470.4 7.43994C1480.4 7.30994 1490.51 7.31 1500.56 7.25C1510.61 7.19 1520.66 7.42001 1530.7 7.51001C1535.7 7.51001 1540.7 7.65003 1545.77 7.78003L1560.83 8.1499C1600.99 9.2799 1641.21 11.35 1681.2 15.7C1701.2 17.79 1721.1 20.4199 1740.96 22.8999L1755.86 24.72C1760.86 25.31 1765.79 25.93 1770.76 26.45L1785.43 28L1800.36 29.4399C1805.36 29.9499 1810.36 30.35 1815.31 30.74L1830.31 31.9299C1840.31 32.5399 1850.31 33.24 1860.31 33.77C1870.31 34.3 1880.31 34.84 1890.31 35.23L1920.43 36.1699Z" fill="#8991FF"/>
<path d="M657.43 79C650.51 80 643.58 80.8201 636.65 81.6201C629.72 82.4201 622.76 83.0601 615.8 83.5501C601.89 84.7201 587.91 85.3199 573.93 85.6799C566.93 85.8399 559.93 85.8599 553 85.8999L532.23 85.8301H511.63L501.36 85.9099C497.93 85.9899 494.51 86 491.09 86.04C477.4 86.23 463.7 86.6101 449.97 87.0401C436.24 87.4701 422.49 87.8501 408.81 88.3701C395.13 88.8901 381.5 89.48 367.9 90.25L357.7 90.8501L347.5 91.5401L326.91 93L316.52 93.72L306.05 94.3799C299.05 94.7599 292.05 95.1299 285.05 95.3799C271 95.8399 256.96 96.0599 242.98 95.8999C215.03 95.6099 187.19 94.6101 159.23 92.2901C155.74 92.0101 152.23 91.7199 148.76 91.3799L138.29 90.2901C131.29 89.5401 124.37 88.74 117.46 87.78C103.62 85.98 89.9801 83.88 76.3301 81.99C69.5101 80.99 62.6801 80.12 55.8301 79.19L45.5601 77.8201C42.1201 77.4201 38.6901 76.96 35.2501 76.51L14.5901 73.8799C9.89009 73.2599 5.18009 72.67 0.470093 72.01V70.1699C5.19009 69.5499 9.92009 69 14.6501 68.46C21.5901 67.79 28.5301 67.02 35.4901 66.54C49.4101 65.37 63.3801 64.7799 77.3601 64.4199C84.3601 64.2499 91.3601 64.25 98.2901 64.21C105.22 64.17 112.17 64.29 119.06 64.28H139.67L149.94 64.2C153.36 64.12 156.78 64.1001 160.2 64.0701C173.89 63.8901 187.6 63.5001 201.33 63.0701C215.06 62.6401 228.8 62.24 242.48 61.73C256.16 61.22 269.8 60.6001 283.4 59.8301C297 59.0601 310.55 58.07 324.35 57.04L334.75 56.3201L345.21 55.6399C352.21 55.2599 359.21 54.8999 366.26 54.6399C380.26 54.1799 394.35 53.9401 408.32 54.1001C411.82 54.1001 415.32 54.1 418.81 54.21L429.27 54.45C436.27 54.57 443.22 54.8799 450.19 55.1399C453.68 55.2599 457.19 55.4201 460.66 55.6201L471.13 56.19C474.61 56.39 478.13 56.6699 481.6 56.9099C485.07 57.1499 488.6 57.39 492.08 57.7C495.56 58.01 499.08 58.2601 502.55 58.6001L513.01 59.69C520.01 60.46 526.94 61.24 533.84 62.2C540.74 63.16 547.64 64.0601 554.48 65.0701C561.32 66.0801 568.15 67.07 574.97 68C578.38 68.51 581.8 69 585.21 69.44L595.47 70.8101L605.75 72.1799C609.18 72.5899 612.61 73.05 616.05 73.5L636.71 76.1499C643.57 77.0899 650.48 78 657.43 79Z" fill="#8991FF"/>
<path d="M229.99 43.28C225.72 43.9 221.44 44.45 217.15 44.97C214.484 45.29 211.837 45.5999 209.21 45.8999C202.27 46.5799 195.33 47.3401 188.37 47.8301C174.45 49.0101 160.48 49.61 146.49 49.97C139.49 50.13 132.49 50.1399 125.56 50.1899L104.79 50.1101H84.1902L73.9202 50.1899C70.5002 50.2699 67.0802 50.2801 63.6502 50.3101C49.9602 50.5001 36.2602 50.8801 22.5302 51.3101C15.1702 51.5201 7.79018 51.75 0.430176 51.98V18.79H1.83018C8.83018 18.91 15.8302 19.22 22.7502 19.48C26.2302 19.59 29.7502 19.76 33.2102 19.95L43.6802 20.52C47.1702 20.72 50.6802 21.01 54.1602 21.25C57.6402 21.49 61.1602 21.72 64.6302 22.03C68.1002 22.34 71.6302 22.5899 75.1102 22.9399L85.5702 24C92.5702 24.77 99.4902 25.54 106.4 26.51C113.31 27.48 120.2 28.3701 127.04 29.3701C133.88 30.3701 140.7 31.37 147.53 32.3C150.937 32.8067 154.35 33.2867 157.77 33.74L168.03 35.1201L178.3 36.49C181.74 36.89 185.17 37.35 188.61 37.8L209.27 40.45C216.17 41.36 223.08 42.21 229.99 43.28Z" fill="#8991FF"/>
<path d="M1525.51 44.8602H1494.35H1478.78L1463.22 44.7801L1447.67 44.66C1442.49 44.66 1437.31 44.6001 1432.12 44.4801L1369.85 43.5401C1359.44 43.3801 1349.02 43.38 1338.6 43.4L1322.97 43.4801L1307.34 43.7301C1302.13 43.8001 1296.92 43.9602 1291.71 44.0902C1286.5 44.2202 1281.29 44.3201 1276.09 44.5001C1265.69 44.8801 1255.27 45.22 1244.88 45.71C1234.49 46.2 1224.08 46.58 1213.69 47.2C1203.3 47.82 1192.91 48.3201 1182.51 48.9901C1172.11 49.6601 1161.72 50.38 1151.33 51.15C1146.13 51.51 1140.93 51.96 1135.73 52.38C1130.53 52.8 1125.34 53.21 1120.14 53.69C1104.79 55.08 1089.45 56.6901 1074.14 58.3201L1071.14 58.0701C1062.37 57.3601 1053.6 56.6301 1044.81 56.0701C1027.24 54.7401 1009.59 53.85 991.93 53.16C983.09 52.84 974.26 52.63 965.43 52.44L939.06 52.14C921.55 52.03 904.24 51.9302 886.91 51.5802C869.58 51.2302 852.24 50.74 834.84 50.14C826.15 49.89 817.45 49.52 808.75 49.14L782.63 48.14C765.22 47.38 747.84 46.63 730.47 45.7C726.13 45.44 721.79 45.1901 717.47 44.9801L704.47 44.2201L678.39 42.5001C669.68 41.9501 660.95 41.2601 652.18 40.7401C643.41 40.2201 634.63 39.6501 625.83 39.2501C608.22 38.4701 590.6 37.9401 573 37.9701C564.2 37.8901 555.39 38.08 546.6 38.19C537.81 38.3 529.01 38.6602 520.21 39.0902C528.87 40.7202 537.55 42.0902 546.21 43.5902L572.21 47.91C576.53 48.64 580.85 49.3801 585.21 50.0601L598.14 52.2601C606.76 53.7501 615.37 55.1701 623.96 56.7501C641.16 59.7501 658.34 62.96 675.69 65.9C684.36 67.42 693.07 68.7702 701.8 70.0902L714.9 72.0301C719.26 72.6501 723.64 73.2201 728.01 73.7901C732.38 74.3601 736.77 74.88 741.14 75.42C745.51 75.96 749.9 76.5001 754.27 76.9901C758.64 77.4801 763.03 77.92 767.41 78.39C771.79 78.86 776.17 79.29 780.55 79.71C789 80.5 797.44 81.3901 805.91 82.0401L795.23 82.7L779.74 83.5802L748.74 85.15C728.04 86.15 707.25 87.0602 686.46 88.3502C665.67 89.6402 644.92 91.2301 624.21 93.2801C613.84 94.2101 603.51 95.3901 593.21 96.4801L577.72 98.3201C572.547 98.9201 567.383 99.5567 562.23 100.23C603.85 100.31 645.37 99.9701 686.82 100.57L749.09 101.5C759.5 101.65 769.91 101.67 780.33 101.64L795.97 101.56L811.6 101.32C816.81 101.24 822.02 101.08 827.22 100.96C832.42 100.84 837.64 100.72 842.85 100.54C853.25 100.17 863.66 99.8202 874.06 99.3402C884.46 98.8602 894.86 98.4802 905.25 97.8502C915.64 97.2202 926.03 96.7301 936.43 96.0601C941.62 95.7301 946.82 95.4501 952.02 95.0601L967.61 93.91C972.81 93.55 978.01 93.1 983.2 92.68C988.39 92.26 993.6 91.8502 998.8 91.3702C1005.65 90.7602 1012.49 90.0902 1019.33 89.3702C1027.28 89.6035 1035.24 89.8566 1043.21 90.13C1077.99 91.37 1112.87 92.8102 1147.59 94.6002L1173.59 96.0802L1199.67 97.7901L1225.88 99.5601C1234.65 100.08 1243.44 100.63 1252.24 101.04C1269.85 101.81 1287.46 102.34 1305.07 102.3C1313.87 102.38 1322.67 102.18 1331.47 102.07C1340.27 101.96 1349.06 101.59 1357.86 101.15C1349.2 99.52 1340.52 98.15 1331.86 96.64L1305.86 92.3001C1301.54 91.5701 1297.23 90.83 1292.86 90.15L1279.92 87.94L1267 85.7301C1262.7 85.0034 1258.4 84.2434 1254.1 83.45L1228.3 78.8402C1219.69 77.2802 1211.04 75.8401 1202.37 74.3001C1198.21 73.5601 1194.04 72.88 1189.86 72.21C1229.28 68.95 1268.77 65.93 1308.22 63.39L1323.71 62.39L1339.2 61.5101L1370.2 59.94L1401.31 58.46C1411.69 57.92 1422.08 57.3901 1432.48 56.7301C1453.26 55.4001 1474.03 53.8401 1494.73 51.7901C1505.1 50.8501 1515.44 49.6702 1525.73 48.5802L1541.22 46.7401C1546.39 46.1334 1551.56 45.4935 1556.71 44.8201C1546.3 44.7801 1535.91 44.9002 1525.51 44.8602Z" fill="#8991FF"/>
<path d="M1920.43 70.52V85C1913.77 85.35 1907.11 85.6001 1900.43 85.8001C1893.14 86.0101 1885.86 86.0699 1878.6 86.1499L1856.92 86.21L1835.41 86.3101L1824.68 86.45C1821.1 86.56 1817.53 86.5899 1813.96 86.6399C1799.66 86.9199 1785.35 87.3801 1770.96 87.8601C1756.57 88.3401 1742.27 88.86 1727.96 89.44C1713.65 90.02 1699.43 90.7301 1685.22 91.5801L1674.56 92.25L1663.9 93L1642.44 94.6101L1631.6 95.3899L1620.69 96.1201C1613.39 96.5401 1606.08 96.96 1598.75 97.23C1584.11 97.78 1569.47 98.09 1554.9 98.01C1525.74 97.9 1496.7 97.07 1467.52 94.93C1463.88 94.66 1460.24 94.4001 1456.6 94.0801L1445.68 93.0801C1438.41 92.3601 1431.14 91.62 1423.93 90.7C1409.47 88.98 1395.2 86.9599 1380.93 85.1599C1373.8 84.1599 1366.66 83.37 1359.5 82.48L1348.75 81.18C1345.17 80.8 1341.58 80.36 1337.99 79.94L1316.4 77.43C1309.19 76.57 1301.97 75.76 1294.74 74.74C1301.96 73.74 1309.19 72.84 1316.42 72.01C1323.65 71.18 1330.9 70.49 1338.16 70.01C1352.66 68.76 1367.23 68.0699 1381.81 67.6299C1389.1 67.4199 1396.39 67.3701 1403.64 67.2901C1410.89 67.2101 1418.13 67.29 1425.32 67.23L1446.84 67.1299L1457.56 66.99C1461.14 66.89 1464.72 66.8401 1468.29 66.8001C1482.59 66.5301 1496.9 66.0601 1511.29 65.5801C1525.68 65.1001 1539.98 64.58 1554.29 63.99C1563.39 63.63 1572.46 63.2033 1581.5 62.71C1586.69 62.44 1591.86 62.1401 1597.04 61.8301C1611.25 60.9801 1625.41 59.9001 1639.82 58.8301L1650.66 58.0501L1661.57 57.3101C1668.87 56.8801 1676.18 56.48 1683.5 56.19C1698.15 55.64 1712.79 55.3199 1727.36 55.3899C1731.01 55.3899 1734.66 55.39 1738.3 55.44L1749.21 55.6101C1756.49 55.6901 1763.76 55.9599 1771.04 56.1699C1774.67 56.2599 1778.31 56.4101 1781.95 56.5801L1792.88 57.0901C1796.51 57.2701 1800.16 57.53 1803.8 57.74C1807.44 57.95 1811.09 58.18 1814.73 58.47C1818.37 58.76 1822.02 58.9801 1825.66 59.3001L1836.58 60.3001C1843.85 61.0301 1851.12 61.76 1858.33 62.68L1864.86 63.49C1869.89 64.11 1874.89 64.7533 1879.86 65.4199C1887.02 66.3933 1894.16 67.3267 1901.29 68.22C1904.86 68.71 1908.42 69.1701 1912 69.6001L1920.43 70.52Z" fill="#8991FF"/>
</svg>
