<svg width="662" height="499" viewBox="0 0 662 499" fill="none" xmlns="http://www.w3.org/2000/svg">
<path d="M660.392 491.469C658.392 488.423 662.212 484.26 660.772 480.801C659.582 477.949 655.542 481.553 652.922 481.917C654.372 479.072 654.951 475.698 654.556 472.386C654.161 469.075 652.817 466.038 650.762 463.809C651.84 463.126 652.763 462.129 653.445 460.906C654.128 459.684 654.549 458.275 654.672 456.806L641.422 431.05C646.332 427.895 644.872 418.84 641.982 413.087C639.092 407.334 635.332 400.44 637.822 394.372C631.995 383.319 626.138 372.29 620.252 361.286C619.252 359.404 618.202 357.389 618.252 355.217C618.252 350.204 616.902 347.34 616.712 341.866C616.422 333.795 611.052 336.392 610.532 322.689C610.442 320.262 613.392 319.412 613.092 316.997C612.332 310.685 607.972 306.389 606.672 300.417C604.532 290.647 607.122 290.78 598.292 285.792C597.205 285.364 596.287 284.465 595.712 283.267C595.272 282.054 595.622 280.585 595.712 279.214C595.823 277.243 595.403 275.283 594.515 273.628C593.628 271.973 592.321 270.713 590.792 270.038C589.632 269.748 588.502 269.304 587.422 268.715C584.152 266.348 582.902 256.177 581.642 251.82C579.642 246.285 572.642 249.55 567.982 247.353C563.132 245.035 562.212 237.461 560.212 231.575C558.212 225.688 551.032 221.003 548.412 226.453L547.412 204.46L540.492 202.603C535.782 177.88 522.022 153.168 501.492 148.544C498.132 147.792 493.492 153.181 496.832 154.249L473.432 152.634C470.322 165.706 454.672 171.119 446.342 162.016C442.092 162.016 437.962 160.378 433.922 158.764L400.282 145.413C401.282 140.376 395.282 138.13 390.992 138.264C381.378 138.604 371.775 138.956 362.182 139.32C361.232 139.32 361.602 128.19 354.522 131.722C350.522 133.725 348.642 141.723 344.602 144.369C347.092 144.369 348.682 148.229 347.762 151.032C346.842 153.836 344.222 155.353 341.762 155.426C337.332 155.559 331.822 152.889 327.852 150.753L300.302 135.97C295.042 131.115 286.372 133.348 283.202 140.388L269.432 133.919L238.502 144.648L224.042 140.485C223.602 147.767 217.352 153.751 211.392 152.549L192.672 172.151L183.672 174.882C181.192 185.417 169.722 191.085 161.882 185.648C153.682 197.263 138.772 200.953 127.472 194.144C125.572 193.015 123.742 191.595 121.652 191.182C118.902 190.624 116.142 191.886 113.482 192.918C82.4816 204.897 47.9116 187.347 16.4816 197.688L13.6316 190.648L1.04163 199.666C-1.17837 197.178 -0.45837 507.406 -0.45837 507.406C149.542 504.833 361.542 504.141 454.732 513.219C475.922 515.283 497.092 517.577 518.322 519.057C542.988 520.765 567.655 521.363 592.322 520.854C599.412 520.708 606.622 520.441 613.322 517.722C617.055 516.096 620.659 514.065 624.092 511.654C634.372 504.796 644.332 496.579 655.012 500.657" fill="url(#paint0_linear)"/>
<path d="M154.31 105.39C150.43 70.87 150.16 35.92 143.97 1.73999C145.48 6.86999 152.74 41.6 154.62 53.85C158.23 77.28 161.62 132.94 161.62 137.85C161.6 137.85 155.51 116.12 154.31 105.39Z" fill="url(#paint1_linear)" fill-opacity="0.19" stroke="url(#paint2_linear)" stroke-width="2" stroke-linecap="round" stroke-linejoin="round"/>
<path d="M167.43 82.36C167.01 69.66 166.89 54.1 166.43 41.36C170.751 67.1988 172.829 93.363 172.64 119.56C172.64 119.56 167.61 86.84 167.43 82.36Z" fill="url(#paint3_linear)" fill-opacity="0.19" stroke="url(#paint4_linear)" stroke-width="2" stroke-linecap="round" stroke-linejoin="round"/>
<path d="M186.52 120.4C181.37 100.23 178.59 76.65 178.11 55.84C179.8 62.84 180.92 69.9 181.93 77.01C183.963 91.41 185.493 105.873 186.52 120.4Z" fill="url(#paint5_linear)" fill-opacity="0.19" stroke="url(#paint6_linear)" stroke-width="2" stroke-linecap="round" stroke-linejoin="round"/>
<path d="M136.37 155.65C138.16 122.32 139.99 86.2799 138.83 52.9299C129.52 81.0499 135.52 142.19 136.37 155.65Z" fill="url(#paint7_linear)" fill-opacity="0.19" stroke="url(#paint8_linear)" stroke-width="2" stroke-linecap="round" stroke-linejoin="round"/>
<path d="M124.43 89.52C124.27 65.16 122.73 41.52 115.95 18.14C114.51 37.9 123.63 85.37 124.43 89.52Z" fill="url(#paint9_linear)" fill-opacity="0.19" stroke="url(#paint10_linear)" stroke-width="2" stroke-linecap="round" stroke-linejoin="round"/>
<path d="M108.43 149.84C112.24 121.84 114.63 95.02 113.92 66.84C112.04 74.84 111.64 83.1 111.24 91.31C110.313 110.81 109.377 130.32 108.43 149.84Z" fill="url(#paint11_linear)" fill-opacity="0.19" stroke="url(#paint12_linear)" stroke-width="2" stroke-linecap="round" stroke-linejoin="round"/>
<path d="M115.79 182.06C117.79 160.8 120.56 139.627 124.1 118.54C126.16 140.63 121.76 160.69 115.79 182.06Z" fill="url(#paint13_linear)" fill-opacity="0.19" stroke="url(#paint14_linear)" stroke-width="2" stroke-linecap="round" stroke-linejoin="round"/>
<path d="M94.91 192.54C97.2692 167.252 97.0849 141.791 94.36 116.54C93.06 131.93 91.13 143.54 91.16 162.76C91.16 168.82 93.6 186.66 94.91 192.54Z" fill="url(#paint15_linear)" fill-opacity="0.19" stroke="url(#paint16_linear)" stroke-width="2" stroke-linecap="round" stroke-linejoin="round"/>
<path d="M73.17 225C76.22 214.12 81.55 140.5 74.88 95.74C68.62 147.2 71.32 197.27 73.17 225Z" fill="url(#paint17_linear)" fill-opacity="0.19" stroke="url(#paint18_linear)" stroke-width="2" stroke-linecap="round" stroke-linejoin="round"/>
<path d="M56.4301 220.86C61.9494 197.477 62.2907 173.169 57.4301 149.64C56.5401 172.8 56.4301 197.67 56.4301 220.86Z" fill="url(#paint19_linear)" fill-opacity="0.19" stroke="url(#paint20_linear)" stroke-width="2" stroke-linecap="round" stroke-linejoin="round"/>
<path d="M41.34 218.25C39.14 183.61 36.94 148.63 42.34 114.33L43.68 135.24C44.62 150.43 43.06 203.13 41.34 218.25Z" fill="url(#paint21_linear)" fill-opacity="0.19" stroke="url(#paint22_linear)" stroke-width="2" stroke-linecap="round" stroke-linejoin="round"/>
<path d="M26.77 264.69C28.77 233.04 16.56 206.99 19.9 171.81C22.59 176.39 34.15 237.86 26.77 264.69Z" fill="url(#paint23_linear)" fill-opacity="0.19" stroke="url(#paint24_linear)" stroke-width="2" stroke-linecap="round" stroke-linejoin="round"/>
<path d="M633.015 200.539C624.48 199.143 615.731 200.987 608.485 205.709C601.905 210.049 595.645 216.999 587.845 215.869C581.325 222.039 582.225 233.139 576.315 239.869C569.855 247.269 556.835 246.049 550.235 238.769C543.365 213.769 540.965 197.009 528.525 187.579C525.525 185.329 522.225 183.519 519.685 180.789C514.215 174.899 513.635 166.099 513.365 158.059L512.515 133.669C512.288 131.439 512.516 129.187 513.185 127.049C515.855 120.249 525.265 119.839 532.505 122.599C534.505 139.079 532.415 146.499 535.875 162.729C537.595 170.729 545.355 177.559 553.465 178.899C553.365 161.599 554.895 146.159 558.055 138.619C561.925 129.369 574.805 133.439 576.055 138.259C576.535 140.109 575.975 142.049 575.465 143.889C572.25 155.578 570.98 167.717 571.705 179.819C571.905 183.049 572.395 186.599 574.825 188.749C579.505 192.899 587.285 188.259 589.365 182.359C591.445 176.459 590.365 169.919 591.495 163.769C592.625 157.619 598.085 151.189 604.115 152.879C609.715 154.449 611.365 162.039 609.295 167.479C607.225 172.919 602.735 177.009 599.465 181.819C596.195 186.629 594.215 193.309 597.465 198.109C602.35 194 608.063 190.992 614.215 189.291C620.367 187.589 626.813 187.234 633.115 188.249C633.115 188.249 638.205 195.329 633.015 200.539Z" fill="url(#paint25_linear)" fill-opacity="0.19" stroke="url(#paint26_linear)" stroke-width="2" stroke-linecap="round" stroke-linejoin="round"/>
<path d="M576.205 140.169C568.125 146.039 559.205 139.899 558.065 138.659" stroke="url(#paint27_linear)" stroke-width="2" stroke-linecap="round" stroke-linejoin="round"/>
<path d="M532.505 122.639C533.505 127.439 522.665 134.179 512.785 128.419" stroke="url(#paint28_linear)" stroke-width="2" stroke-linecap="round" stroke-linejoin="round"/>
<path d="M610.125 162.769C607.165 163.934 603.927 164.202 600.815 163.539C597.695 162.829 593.615 159.539 594.815 156.639" stroke="url(#paint29_linear)" stroke-width="2" stroke-linecap="round" stroke-linejoin="round"/>
<path d="M633.145 188.289C632.289 189.059 631.603 189.998 631.129 191.048C630.654 192.097 630.403 193.234 630.391 194.385C630.379 195.537 630.606 196.678 631.058 197.737C631.509 198.797 632.176 199.75 633.015 200.539" stroke="url(#paint30_linear)" stroke-width="2" stroke-linecap="round" stroke-linejoin="round"/>
<path d="M394.89 152.26C392.22 148.1 379.7 142.84 381.22 138.14C382.74 133.44 387.75 129.75 392.58 130.79C402.1 132.85 401.85 148.1 410.38 152.79C413.95 147.89 411.54 141.06 409.13 135.49C406.72 129.92 404.59 122.9 408.52 118.28C408.93 117.719 409.519 117.313 410.19 117.13C411.54 116.87 412.7 118.13 413.39 119.27C418.09 127.4 414.5 138.52 419.52 146.46C424.13 143.17 423.12 136.14 421.46 130.73C419.8 125.32 418.28 118.54 422.46 114.73C424.46 112.86 427.38 112.3 430.11 111.89C431.85 111.62 433.92 111.49 435.11 112.83C435.782 113.834 436.092 115.036 435.99 116.24C436.203 118.779 436 121.336 435.39 123.81C434.29 127.43 431.55 130.29 429.82 133.65C428.09 137.01 427.69 141.74 430.67 144.06C431.49 144.7 432.48 145.06 433.32 145.71C438.94 149.87 433.7 160.09 438.32 165.34C421.05 175.66 411.51 174.29 401.16 167.87C401.13 167.86 397.55 156.43 394.89 152.26Z" fill="url(#paint31_linear)" fill-opacity="0.19" stroke="url(#paint32_linear)" stroke-width="2" stroke-linecap="round" stroke-linejoin="round"/>
<path d="M356.32 147C360.9 165.33 343.4 188.59 334.32 193.08L339.76 199.03C335.98 197.83 332.43 202.41 332.98 206.33C333.53 210.25 336.58 213.33 339.45 216.02C334.948 217.477 330.693 219.608 326.83 222.34C333.249 223.168 339.426 225.32 344.97 228.66C345.21 230.748 344.696 232.853 343.521 234.595C342.345 236.337 340.586 237.601 338.56 238.16C336.56 238.64 334.32 238.42 332.56 239.45C330.8 240.48 330.21 243.71 332.18 244.33C323.708 243.779 315.225 245.246 307.43 248.61C312.977 253.277 318.537 257.91 324.11 262.51C324.06 261.19 321.64 262.4 322.2 263.6C322.76 264.8 324.34 264.98 325.64 265.21C327.917 265.657 330.022 266.74 331.71 268.332C333.398 269.925 334.601 271.963 335.18 274.21C335.409 274.946 335.486 275.721 335.407 276.487C335.328 277.254 335.094 277.996 334.72 278.67C334.015 279.571 333.112 280.296 332.08 280.79L305.26 296.17L316.26 301.85C304.33 307.42 297.84 315.41 285.91 320.97C281.38 323.97 248.07 309.65 243.77 308.42C239.47 307.19 235.37 302.75 237.07 298.61C242.8 293.86 256.07 274.61 249.61 256.61C247.94 251.98 246.61 246.61 248.78 242.18C250.95 237.75 256.73 234.75 256.18 229.86C260.89 224.7 308.96 167.19 311.09 158.65C315.56 159.65 319.84 156.16 322.22 152.26C324.6 148.36 324.27 140.55 328.83 140.26C337.08 139.86 342.62 142.72 356.32 147Z" fill="url(#paint33_linear)" fill-opacity="0.19" stroke="url(#paint34_linear)" stroke-width="2" stroke-linecap="round" stroke-linejoin="round"/>
<path d="M285.92 321C266.43 296 256.43 222.41 356.32 147" stroke="url(#paint35_linear)" stroke-width="2" stroke-linecap="round" stroke-linejoin="round"/>
<path d="M575.65 342.919C579.45 328.919 583.24 316.209 591.31 304.099C593.62 300.629 596.53 296.989 600.66 296.369C599.993 300.322 599.326 304.269 598.66 308.209C598.49 308.865 598.49 309.553 598.66 310.209C599.14 311.599 601.06 311.989 602.39 311.349C603.664 310.59 604.703 309.493 605.39 308.179C605.448 308.913 605.337 309.652 605.065 310.336C604.792 311.021 604.366 311.635 603.82 312.129C606.69 313.129 606.62 317.299 605.31 320.039C604 322.779 601.95 325.619 602.74 328.549C603.32 330.699 605.05 333.629 603.03 334.549C604.421 335.146 605.968 335.275 607.44 334.919C606.619 338.026 605.015 340.87 602.78 343.179C603.461 343.08 604.156 343.132 604.815 343.332C605.474 343.532 606.081 343.875 606.593 344.336C607.105 344.797 607.508 345.365 607.776 346C608.043 346.635 608.167 347.32 608.14 348.009C607.917 348.833 607.856 349.692 607.96 350.539C608.27 351.609 609.47 352.239 609.75 353.319C610.46 355.959 605.81 356.559 604.49 358.959C603.7 360.389 604.29 362.139 604.56 363.739C604.83 365.339 604.45 367.449 602.87 367.839C604.37 367.269 605.8 369.279 605.36 370.839C604.92 372.399 603.46 373.379 602.1 374.229L587.62 383.339C587.62 383.339 578.16 388.339 568.09 379.799L570.75 363.739L575.65 342.919Z" fill="url(#paint36_linear)" fill-opacity="0.19" stroke="url(#paint37_linear)" stroke-width="2" stroke-linecap="round" stroke-linejoin="round"/>
<path d="M545.65 379.539C543.892 379.977 542.056 379.995 540.291 379.59C538.525 379.185 536.881 378.369 535.49 377.209C532.342 374.659 529.995 371.257 528.73 367.409C526.95 361.549 528.96 354.339 534.33 351.409C530.33 349.209 526.47 346.825 522.75 344.259C522.909 342.587 523.594 341.009 524.706 339.752C525.818 338.494 527.3 337.621 528.94 337.259C527.59 333.699 526.23 329.809 527.37 326.189C528.51 322.569 533.37 320.029 536.25 322.559C536.212 320.28 536.82 318.038 538.004 316.091C539.188 314.144 540.899 312.573 542.94 311.559L541.34 301.559C542.255 301.757 543.122 302.137 543.888 302.676C544.654 303.216 545.304 303.903 545.8 304.699C545.993 304.33 546.271 304.012 546.61 303.77C546.948 303.528 547.339 303.369 547.751 303.306C548.162 303.243 548.583 303.277 548.979 303.406C549.374 303.535 549.734 303.755 550.03 304.049C549.64 301.879 553.16 301.289 555.03 302.539C559.26 305.429 559.65 311.339 561.03 316.259C561.96 319.499 563.5 322.569 564.19 325.869C564.88 329.169 564.55 332.959 562.19 335.389C564.33 333.859 567.53 336.139 567.78 338.759C568.03 341.379 566.38 343.759 564.63 345.759C562.88 347.759 560.88 349.659 560.17 352.199C559.696 354.025 559.939 355.963 560.848 357.615C561.757 359.268 563.264 360.511 565.06 361.089C566.04 361.336 566.919 361.885 567.57 362.659C570.08 365.789 565.09 368.939 563.44 372.129C562.823 373.276 561.968 374.278 560.934 375.069C559.899 375.861 558.708 376.423 557.44 376.719L545.65 379.539Z" fill="url(#paint38_linear)" fill-opacity="0.19" stroke="url(#paint39_linear)" stroke-width="2" stroke-linecap="round" stroke-linejoin="round"/>
<path d="M553.09 377.729C548.53 367.729 545.28 331.809 545.37 326.829C545.46 321.849 546.97 316.539 550.91 313.479" stroke="url(#paint40_linear)" stroke-width="2" stroke-linecap="round" stroke-linejoin="round"/>
<path d="M580.59 384.129C577.49 381.679 578.81 377.129 579.91 374.069C581.447 369.736 582.208 365.166 582.16 360.569C582.25 340.739 586.48 311.569 599.54 296.629" stroke="url(#paint41_linear)" stroke-width="2" stroke-linecap="round" stroke-linejoin="round"/>
<path d="M508.549 377.819C505.523 378.042 502.484 377.636 499.622 376.628C496.76 375.619 494.137 374.029 491.919 371.959C492.905 370.863 494.263 370.175 495.729 370.029C493.76 365.644 490.47 361.984 486.32 359.559C487.916 358.899 489.703 358.87 491.32 359.479L486.02 346.129C484.896 343.653 484.342 340.957 484.4 338.239L484.14 332.499C483.79 324.389 483.699 315.439 488.919 309.229C491.919 305.689 496.699 302.569 496.169 297.979C495.894 296.939 495.78 295.863 495.83 294.789C496.16 293.099 497.909 292.149 498.979 290.789C501.819 287.199 499.39 281.549 501.64 277.559C504.27 272.879 511.24 273.489 516.2 275.559C521.16 277.629 526.6 280.619 531.57 278.559C525.9 283.059 526.57 291.879 523.03 298.159C520.92 301.829 517.4 304.489 515.03 307.999C508.45 317.659 511.95 330.709 516.03 341.689C516.794 343.456 517.257 345.339 517.4 347.259C517.47 353.309 511.4 357.369 506.08 360.259C508.97 363.209 512.079 366.729 511.659 370.829C510.999 376.989 506.899 371.889 508.549 377.819Z" fill="url(#paint42_linear)" fill-opacity="0.19" stroke="url(#paint43_linear)" stroke-width="2" stroke-linecap="round" stroke-linejoin="round"/>
<path d="M508.55 377.819C502.22 366.919 494.22 319.249 498.69 303.249C501.28 293.969 509.019 286.029 518.599 285.089" stroke="url(#paint44_linear)" stroke-width="2" stroke-linecap="round" stroke-linejoin="round"/>
<path d="M225.93 202.34C234.62 187.42 260.05 183.18 265.27 160.7C253.1 165.76 254.52 164.03 249.96 164.49C253.61 154.16 264.05 146.89 262.96 146.36C261.87 145.83 251.96 142.58 252.5 141.52C258.64 130.52 258.77 128.24 258.68 117.21C258.68 116.1 260.68 92.52 261.83 82.74C260.244 85.5145 257.805 87.7025 254.875 88.9783C251.945 90.2541 248.681 90.5493 245.57 89.82C245.036 94.4821 243.176 98.8932 240.21 102.53C237.58 100.932 235.309 98.8075 233.54 96.29C231.85 100.37 225.21 100.98 222.8 97.29C222.648 98.0924 222.255 98.8291 221.672 99.4011C221.089 99.9732 220.345 100.353 219.54 100.49L214.54 92.64L217.37 114.57C216.044 113.182 214.366 112.179 212.516 111.668C210.665 111.158 208.71 111.158 206.86 111.67C207.86 115.45 208.94 119.45 207.97 123.25C207 127.05 203.26 130.46 199.43 129.59C199.37 138.42 200.744 147.201 203.5 155.59C198.37 155.43 193.06 161.4 193.81 166.48C194.56 171.56 218.81 200.92 224.58 205.18L225.93 202.34Z" fill="url(#paint45_linear)" fill-opacity="0.19" stroke="url(#paint46_linear)" stroke-width="2" stroke-linecap="round" stroke-linejoin="round"/>
<path d="M318.72 345.18C319.88 350.12 327.12 365.04 328.29 369.99C328.7 371.75 330.21 378.46 329.29 379.99C328.37 381.52 321.29 373.13 320.61 371.44C322.49 374.96 324.05 387.27 324.94 388.73C321.12 383.73 313.33 378.43 307.46 376.16C303.252 374.447 298.753 373.564 294.21 373.56C301.595 378.342 308.731 383.499 315.59 389.01C306.31 385.61 301.25 386.17 293.07 383.65C297.983 384.387 302.489 386.804 305.82 390.49C300.327 391.812 294.647 392.177 289.03 391.57C296.13 392.81 302.73 398.03 308.61 402.2C312.743 405.187 316.123 409.097 318.48 413.62C319.72 415.62 340.95 413.1 347.17 412.41C350.209 405.736 354.982 399.999 360.992 395.797C367.002 391.595 374.028 389.082 381.34 388.52C369.8 386.59 359.34 391.28 348.98 396.71C344.1 399.27 365.98 380.57 383.53 374.1C375.669 374.712 367.964 376.625 360.73 379.76C365.643 373.663 371.262 368.172 377.47 363.4C372.408 362.749 367.264 363.262 362.43 364.9L365.95 359.72C363.95 360.89 361.82 362.1 359.59 361.66C357.36 361.22 355.73 358.15 357.4 356.6C354.19 356.9 353.07 362.96 350.03 361.92C349.538 361.662 349.103 361.308 348.751 360.878C348.399 360.449 348.137 359.953 347.98 359.42C345.116 352.936 341.794 346.663 338.04 340.65C340.057 345.001 340.543 349.907 339.42 354.57C336.244 351.973 333.754 348.635 332.17 344.85C331.817 346.389 331.773 347.982 332.043 349.538C332.313 351.094 332.889 352.58 333.74 353.91C331.25 352.93 320.65 347 318.72 345.18Z" fill="url(#paint47_linear)" fill-opacity="0.19" stroke="url(#paint48_linear)" stroke-width="2" stroke-linecap="round" stroke-linejoin="round"/>
<path d="M467.24 187.58C466.07 192.53 458.83 207.45 457.67 212.39C457.25 214.15 455.74 220.86 456.67 222.39C457.6 223.92 464.67 215.53 465.35 213.84C463.47 217.36 461.91 229.68 461.03 231.13C464.84 226.13 472.63 220.83 478.5 218.56C482.709 216.852 487.208 215.97 491.75 215.96C484.369 220.744 477.236 225.9 470.38 231.41C479.65 228.01 484.71 228.57 492.9 226.05C487.985 226.791 483.478 229.207 480.14 232.89C485.621 234.224 491.291 234.599 496.9 234C489.8 235.25 483.2 240.46 477.32 244.64C473.183 247.634 469.798 251.546 467.43 256.07C466.19 258.07 444.96 255.54 438.74 254.86C435.694 248.198 430.921 242.473 424.916 238.277C418.911 234.082 411.893 231.569 404.59 231C416.13 229.08 426.59 233.77 436.95 239.2C441.83 241.75 419.95 223.06 402.41 216.59C410.268 217.196 417.97 219.105 425.2 222.24C420.283 216.128 414.653 210.626 408.43 205.85C413.512 205.171 418.682 205.67 423.54 207.31L420.02 202.13C421.97 203.29 424.15 204.5 426.38 204.06C428.61 203.62 430.24 200.55 428.57 199.01C431.78 199.3 432.9 205.37 435.95 204.32C437 203.96 437.54 202.83 437.95 201.82C440.828 195.334 444.17 189.065 447.95 183.06C445.932 187.419 445.449 192.332 446.58 197C449.752 194.396 452.243 191.061 453.84 187.28C454.185 188.82 454.224 190.413 453.952 191.967C453.681 193.522 453.106 195.008 452.26 196.34C454.71 195.33 465.3 189.37 467.24 187.58Z" fill="url(#paint49_linear)" fill-opacity="0.19" stroke="url(#paint50_linear)" stroke-width="2" stroke-linecap="round" stroke-linejoin="round"/>
<path d="M436.68 377.54C435.52 382.49 440.99 402.24 441.89 403.81C442.79 405.38 449.89 396.95 450.57 395.26C448.69 398.78 447.13 411.09 446.24 412.55C450.06 407.55 464.13 393.55 469.87 387.82C469.87 395.99 459.3 413.7 456.01 417.36C461.49 414.42 463.49 412.58 478.01 406.45C470.91 414.45 453.09 436.74 452.67 437.45C451.43 439.45 430.2 436.93 423.98 436.24C420.941 429.566 416.168 423.829 410.158 419.627C404.148 415.426 397.122 412.912 389.81 412.35C401.35 410.42 411.81 415.11 422.17 420.54C427.05 423.09 405.17 404.4 387.62 397.93C395.479 398.545 403.183 400.454 410.42 403.58C405.507 397.487 399.888 391.998 393.68 387.23C398.74 386.55 406.8 393.85 411.68 395.49C410.51 393.76 406.49 385.24 405.32 383.49C407.27 384.66 430.24 405.22 428.53 407.86C430.96 406.89 434.75 379.33 436.68 377.54Z" fill="url(#paint51_linear)" fill-opacity="0.19" stroke="url(#paint52_linear)" stroke-width="2" stroke-linecap="round" stroke-linejoin="round"/>
<path d="M224.56 205.14C219.49 170.14 225.56 145.41 237.7 112.14" stroke="url(#paint53_linear)" stroke-width="2" stroke-linecap="round" stroke-linejoin="round"/>
<path d="M12.1604 378.88C14.3704 377.51 16.6804 376.01 17.8404 373.68C19.0004 371.35 18.3704 367.94 15.9404 367.02C18.0342 366.24 19.8366 364.834 21.1019 362.993C22.3671 361.151 23.0336 358.964 23.0104 356.73C22.8969 354.498 22.0975 352.355 20.7213 350.594C19.345 348.833 17.459 347.54 15.3204 346.89C19.5404 342.723 23.9104 338.723 28.4304 334.89C30.0404 338.37 34.6304 339.08 38.4304 339.03C43.1704 338.97 49.2904 337.1 49.3204 332.36C49.3504 327.62 43.3204 325.7 38.5504 325.19C43.6404 321.35 63.7804 311.65 63.7804 311.65C67.4304 300 84.1104 299.26 98.1404 297L77.8204 288.46C77.3406 288.328 76.8919 288.102 76.5005 287.794C76.109 287.487 75.7826 287.105 75.5404 286.67C75.0204 285.35 76.0904 283.99 77.0804 282.97C80.0804 279.9 84.0004 276.55 88.0804 277.8C79.8774 278.35 71.7501 275.933 65.1804 270.99C61.7204 268.37 58.6504 259.07 62.8004 260.33C78.5504 265.08 84.1604 258.06 93.3104 257.33C92.0687 257.149 90.9071 256.608 89.9689 255.775C89.0307 254.941 88.3568 253.852 88.0304 252.64C91.9004 252.5 92.7704 247.26 93.1304 243.41C93.4904 239.56 97.1304 234.72 100.13 237.12L95.4304 224.72C100.83 223.16 103.34 231.13 107.43 234.96C113.33 240.45 124.98 234.15 123.61 226.21C122.02 228.97 117.61 226.43 116.66 223.38C115.42 219.19 116.66 214.72 117.99 210.54L123.72 192L132.16 188.64L132.43 183.44C135.311 182.605 138.291 182.165 141.29 182.13C140.48 178.26 139.68 174.13 140.97 170.42C142.26 166.71 146.44 163.64 150.13 165.06C153.28 166.27 154.62 169.96 155.19 173.29C156.457 180.887 155.635 188.685 152.81 195.85L160.19 192.14C158.104 193.522 156.487 195.505 155.553 197.826C154.619 200.148 154.413 202.698 154.96 205.14L163.1 207.78C158.13 213.021 151.887 216.886 144.98 219C151.047 220.751 157.336 221.61 163.65 221.55C163.47 226.83 157.42 229.49 152.49 231.38C147.56 233.27 141.89 237.48 143.49 242.5C145.49 248.77 155.27 246.81 160.66 250.61L138.77 252.95C136.33 255.95 139.77 260.78 143.65 261.05C147.53 261.32 144.15 256.45 154.05 256.45C152.317 257.002 150.788 258.058 149.657 259.483C148.526 260.908 147.845 262.637 147.7 264.45C152.347 263.43 156.801 261.671 160.89 259.24C160.812 262.494 159.623 265.624 157.52 268.109C155.417 270.594 152.527 272.285 149.33 272.9C154.297 277.353 160.665 279.928 167.33 280.18C160.86 287.859 152.396 293.603 142.87 296.78C151.225 293.749 159.914 291.734 168.75 290.78C168.182 293.117 167.099 295.298 165.58 297.163C164.061 299.028 162.144 300.53 159.97 301.56L172.32 297.66C169.97 301.14 169.45 311.77 165.8 315.42C163.05 318.17 160.95 318.86 157.14 318.1C156.79 321.1 159.56 323.63 162.46 324.37C165.36 325.11 173.46 324.73 174.16 325.43C175.52 326.83 172.78 329.71 165.08 333.76C163.45 334.62 152.39 336.9 150.99 335.7C149.59 334.5 149.09 332.12 150.38 330.81L139.22 331.17C142.39 334.17 140.69 340.45 136.46 341.42L163.98 345.73C167.08 347.32 168.52 350.85 170.47 353.73C172.42 356.61 176.07 359.22 179.16 357.61C181.73 356.27 182.46 352.66 185.04 351.34C188.6 349.52 192.52 353.26 194.14 356.91C195.76 360.56 197 365.02 200.7 366.54L207.59 371.66C208.45 376.58 210.45 381.38 210.14 386.36C209.63 394.85 192.55 411.36 192.55 411.36C184.15 410.89 177.82 400.92 180.96 393.12C174.301 392.458 167.593 393.743 161.65 396.82C163.55 398.2 165.65 400.36 164.76 402.53C163.35 405.85 158.2 403.31 154.76 404.34L132.32 415.54C129 413.18 124.5 413.94 120.47 413.37C116.44 412.8 111.98 409.01 113.79 405.37C112.437 407.364 110.659 409.033 108.584 410.259C106.51 411.484 104.19 412.236 101.79 412.46C99.0304 412.7 95.8804 411.99 94.4404 409.62C93.0004 407.25 94.8304 403.32 97.5604 403.81C97.5704 403.73 55.4304 410.09 12.1604 378.88Z" fill="url(#paint54_linear)" fill-opacity="0.19" stroke="url(#paint55_linear)" stroke-width="2" stroke-linecap="round" stroke-linejoin="round"/>
<path d="M114.54 270.88L114.45 273.63C115.45 270.18 112.63 266.77 109.59 264.86C106.55 262.95 102.97 261.72 100.65 258.98C102.94 257.733 105.552 257.204 108.147 257.461C110.742 257.717 113.199 258.748 115.2 260.42C115.318 259.724 115.59 259.064 115.995 258.487C116.4 257.909 116.929 257.429 117.543 257.082C118.157 256.734 118.84 256.527 119.544 256.477C120.247 256.427 120.953 256.533 121.61 256.79L121.75 259.64" stroke="url(#paint56_linear)" stroke-width="2" stroke-linecap="round" stroke-linejoin="round"/>
<path d="M134.65 199.25C136.61 200.621 138.019 202.643 138.629 204.955C139.238 207.267 139.009 209.721 137.98 211.88" stroke="url(#paint57_linear)" stroke-width="2" stroke-linecap="round" stroke-linejoin="round"/>
<path d="M133.43 309.26L130.68 307.4L124.61 316.57L127.3 316.4" stroke="url(#paint58_linear)" stroke-width="2" stroke-linecap="round" stroke-linejoin="round"/>
<path d="M139.61 368.32L152.73 368.48L153.19 374.08L158.37 372.08C160.48 371.26 162.87 370.44 164.95 371.33C167.03 372.22 167.79 375.74 165.71 376.63" stroke="url(#paint59_linear)" stroke-width="2" stroke-linecap="round" stroke-linejoin="round"/>
<path d="M52.6803 363.34C52.5803 361.4 59.4603 357.24 59.3603 355.34C61.4302 357.413 62.7216 360.137 63.0167 363.052C63.3119 365.967 62.5926 368.894 60.9803 371.34L77.0503 371.44" stroke="url(#paint60_linear)" stroke-width="2" stroke-linecap="round" stroke-linejoin="round"/>
<path d="M83.3203 333.84C87.8103 332.84 92.4903 331.76 96.9703 332.84C101.45 333.92 105.62 337.78 105.41 342.38" stroke="url(#paint61_linear)" stroke-width="2" stroke-linecap="round" stroke-linejoin="round"/>
<defs>
<linearGradient id="paint0_linear" x1="330.267" y1="131.03" x2="330.267" y2="521.03" gradientUnits="userSpaceOnUse">
<stop stop-color="#303BB1"/>
<stop offset="0.847635" stop-color="#325FF8" stop-opacity="0.85"/>
</linearGradient>
<linearGradient id="paint1_linear" x1="152.795" y1="1.73999" x2="152.795" y2="137.85" gradientUnits="userSpaceOnUse">
<stop stop-color="white"/>
<stop offset="1" stop-color="#8991FF" stop-opacity="0"/>
</linearGradient>
<linearGradient id="paint2_linear" x1="152.795" y1="1.73999" x2="152.795" y2="137.85" gradientUnits="userSpaceOnUse">
<stop stop-color="#8991FF"/>
<stop offset="1" stop-color="white" stop-opacity="0"/>
</linearGradient>
<linearGradient id="paint3_linear" x1="169.541" y1="41.36" x2="169.541" y2="119.56" gradientUnits="userSpaceOnUse">
<stop stop-color="white"/>
<stop offset="1" stop-color="#8991FF" stop-opacity="0"/>
</linearGradient>
<linearGradient id="paint4_linear" x1="169.541" y1="41.36" x2="169.541" y2="119.56" gradientUnits="userSpaceOnUse">
<stop stop-color="#8991FF"/>
<stop offset="1" stop-color="white" stop-opacity="0"/>
</linearGradient>
<linearGradient id="paint5_linear" x1="182.315" y1="55.84" x2="182.315" y2="120.4" gradientUnits="userSpaceOnUse">
<stop stop-color="white"/>
<stop offset="1" stop-color="#8991FF" stop-opacity="0"/>
</linearGradient>
<linearGradient id="paint6_linear" x1="182.315" y1="55.84" x2="182.315" y2="120.4" gradientUnits="userSpaceOnUse">
<stop stop-color="#8991FF"/>
<stop offset="1" stop-color="white" stop-opacity="0"/>
</linearGradient>
<linearGradient id="paint7_linear" x1="136.44" y1="52.9299" x2="136.44" y2="155.65" gradientUnits="userSpaceOnUse">
<stop stop-color="white"/>
<stop offset="1" stop-color="#8991FF" stop-opacity="0"/>
</linearGradient>
<linearGradient id="paint8_linear" x1="136.44" y1="52.9299" x2="136.44" y2="155.65" gradientUnits="userSpaceOnUse">
<stop stop-color="#8991FF"/>
<stop offset="1" stop-color="white" stop-opacity="0"/>
</linearGradient>
<linearGradient id="paint9_linear" x1="120.113" y1="18.14" x2="120.113" y2="89.52" gradientUnits="userSpaceOnUse">
<stop stop-color="white"/>
<stop offset="1" stop-color="#8991FF" stop-opacity="0"/>
</linearGradient>
<linearGradient id="paint10_linear" x1="120.113" y1="18.14" x2="120.113" y2="89.52" gradientUnits="userSpaceOnUse">
<stop stop-color="#8991FF"/>
<stop offset="1" stop-color="white" stop-opacity="0"/>
</linearGradient>
<linearGradient id="paint11_linear" x1="111.237" y1="66.84" x2="111.237" y2="149.84" gradientUnits="userSpaceOnUse">
<stop stop-color="white"/>
<stop offset="1" stop-color="#8991FF" stop-opacity="0"/>
</linearGradient>
<linearGradient id="paint12_linear" x1="111.237" y1="66.84" x2="111.237" y2="149.84" gradientUnits="userSpaceOnUse">
<stop stop-color="#8991FF"/>
<stop offset="1" stop-color="white" stop-opacity="0"/>
</linearGradient>
<linearGradient id="paint13_linear" x1="120.202" y1="118.54" x2="120.202" y2="182.06" gradientUnits="userSpaceOnUse">
<stop stop-color="white"/>
<stop offset="1" stop-color="#8991FF" stop-opacity="0"/>
</linearGradient>
<linearGradient id="paint14_linear" x1="120.202" y1="118.54" x2="120.202" y2="182.06" gradientUnits="userSpaceOnUse">
<stop stop-color="#8991FF"/>
<stop offset="1" stop-color="white" stop-opacity="0"/>
</linearGradient>
<linearGradient id="paint15_linear" x1="93.8556" y1="116.54" x2="93.8556" y2="192.54" gradientUnits="userSpaceOnUse">
<stop stop-color="white"/>
<stop offset="1" stop-color="#8991FF" stop-opacity="0"/>
</linearGradient>
<linearGradient id="paint16_linear" x1="93.8556" y1="116.54" x2="93.8556" y2="192.54" gradientUnits="userSpaceOnUse">
<stop stop-color="#8991FF"/>
<stop offset="1" stop-color="white" stop-opacity="0"/>
</linearGradient>
<linearGradient id="paint17_linear" x1="74.5292" y1="95.74" x2="74.5292" y2="225" gradientUnits="userSpaceOnUse">
<stop stop-color="white"/>
<stop offset="1" stop-color="#8991FF" stop-opacity="0"/>
</linearGradient>
<linearGradient id="paint18_linear" x1="74.5292" y1="95.74" x2="74.5292" y2="225" gradientUnits="userSpaceOnUse">
<stop stop-color="#8991FF"/>
<stop offset="1" stop-color="white" stop-opacity="0"/>
</linearGradient>
<linearGradient id="paint19_linear" x1="58.6344" y1="149.64" x2="58.6344" y2="220.86" gradientUnits="userSpaceOnUse">
<stop stop-color="white"/>
<stop offset="1" stop-color="#8991FF" stop-opacity="0"/>
</linearGradient>
<linearGradient id="paint20_linear" x1="58.6344" y1="149.64" x2="58.6344" y2="220.86" gradientUnits="userSpaceOnUse">
<stop stop-color="#8991FF"/>
<stop offset="1" stop-color="white" stop-opacity="0"/>
</linearGradient>
<linearGradient id="paint21_linear" x1="41.4679" y1="114.33" x2="41.4679" y2="218.25" gradientUnits="userSpaceOnUse">
<stop stop-color="white"/>
<stop offset="1" stop-color="#8991FF" stop-opacity="0"/>
</linearGradient>
<linearGradient id="paint22_linear" x1="41.4679" y1="114.33" x2="41.4679" y2="218.25" gradientUnits="userSpaceOnUse">
<stop stop-color="#8991FF"/>
<stop offset="1" stop-color="white" stop-opacity="0"/>
</linearGradient>
<linearGradient id="paint23_linear" x1="24.2569" y1="171.81" x2="24.2569" y2="264.69" gradientUnits="userSpaceOnUse">
<stop stop-color="white"/>
<stop offset="1" stop-color="#8991FF" stop-opacity="0"/>
</linearGradient>
<linearGradient id="paint24_linear" x1="24.2569" y1="171.81" x2="24.2569" y2="264.69" gradientUnits="userSpaceOnUse">
<stop stop-color="#8991FF"/>
<stop offset="1" stop-color="white" stop-opacity="0"/>
</linearGradient>
<linearGradient id="paint25_linear" x1="573.889" y1="121" x2="573.889" y2="244.858" gradientUnits="userSpaceOnUse">
<stop stop-color="white"/>
<stop offset="1" stop-color="#8991FF" stop-opacity="0"/>
</linearGradient>
<linearGradient id="paint26_linear" x1="573.889" y1="121" x2="573.889" y2="244.858" gradientUnits="userSpaceOnUse">
<stop stop-color="#8991FF"/>
<stop offset="1" stop-color="white" stop-opacity="0"/>
</linearGradient>
<linearGradient id="paint27_linear" x1="567.135" y1="138.659" x2="567.135" y2="142.669" gradientUnits="userSpaceOnUse">
<stop stop-color="#8991FF"/>
<stop offset="1" stop-color="white" stop-opacity="0"/>
</linearGradient>
<linearGradient id="paint28_linear" x1="522.678" y1="122.639" x2="522.678" y2="130.635" gradientUnits="userSpaceOnUse">
<stop stop-color="#8991FF"/>
<stop offset="1" stop-color="white" stop-opacity="0"/>
</linearGradient>
<linearGradient id="paint29_linear" x1="602.363" y1="156.639" x2="602.363" y2="163.894" gradientUnits="userSpaceOnUse">
<stop stop-color="#8991FF"/>
<stop offset="1" stop-color="white" stop-opacity="0"/>
</linearGradient>
<linearGradient id="paint30_linear" x1="631.768" y1="188.289" x2="631.768" y2="200.539" gradientUnits="userSpaceOnUse">
<stop stop-color="#8991FF"/>
<stop offset="1" stop-color="white" stop-opacity="0"/>
</linearGradient>
<linearGradient id="paint31_linear" x1="409.706" y1="111.715" x2="409.706" y2="172.89" gradientUnits="userSpaceOnUse">
<stop stop-color="white"/>
<stop offset="1" stop-color="#8991FF" stop-opacity="0"/>
</linearGradient>
<linearGradient id="paint32_linear" x1="409.706" y1="111.715" x2="409.706" y2="172.89" gradientUnits="userSpaceOnUse">
<stop stop-color="#8991FF"/>
<stop offset="1" stop-color="white" stop-opacity="0"/>
</linearGradient>
<linearGradient id="paint33_linear" x1="296.874" y1="140.223" x2="296.874" y2="321.382" gradientUnits="userSpaceOnUse">
<stop stop-color="white"/>
<stop offset="1" stop-color="#8991FF" stop-opacity="0"/>
</linearGradient>
<linearGradient id="paint34_linear" x1="296.874" y1="140.223" x2="296.874" y2="321.382" gradientUnits="userSpaceOnUse">
<stop stop-color="#8991FF"/>
<stop offset="1" stop-color="white" stop-opacity="0"/>
</linearGradient>
<linearGradient id="paint35_linear" x1="314.781" y1="147" x2="314.781" y2="321" gradientUnits="userSpaceOnUse">
<stop stop-color="#8991FF"/>
<stop offset="1" stop-color="white" stop-opacity="0"/>
</linearGradient>
<linearGradient id="paint36_linear" x1="588.956" y1="296.369" x2="588.956" y2="384.793" gradientUnits="userSpaceOnUse">
<stop stop-color="white"/>
<stop offset="1" stop-color="#8991FF" stop-opacity="0"/>
</linearGradient>
<linearGradient id="paint37_linear" x1="588.956" y1="296.369" x2="588.956" y2="384.793" gradientUnits="userSpaceOnUse">
<stop stop-color="#8991FF"/>
<stop offset="1" stop-color="white" stop-opacity="0"/>
</linearGradient>
<linearGradient id="paint38_linear" x1="545.506" y1="301.559" x2="545.506" y2="379.881" gradientUnits="userSpaceOnUse">
<stop stop-color="white"/>
<stop offset="1" stop-color="#8991FF" stop-opacity="0"/>
</linearGradient>
<linearGradient id="paint39_linear" x1="545.506" y1="301.559" x2="545.506" y2="379.881" gradientUnits="userSpaceOnUse">
<stop stop-color="#8991FF"/>
<stop offset="1" stop-color="white" stop-opacity="0"/>
</linearGradient>
<linearGradient id="paint40_linear" x1="549.229" y1="313.479" x2="549.229" y2="377.729" gradientUnits="userSpaceOnUse">
<stop stop-color="#8991FF"/>
<stop offset="1" stop-color="white" stop-opacity="0"/>
</linearGradient>
<linearGradient id="paint41_linear" x1="589.103" y1="296.629" x2="589.103" y2="384.129" gradientUnits="userSpaceOnUse">
<stop stop-color="#8991FF"/>
<stop offset="1" stop-color="white" stop-opacity="0"/>
</linearGradient>
<linearGradient id="paint42_linear" x1="507.785" y1="274" x2="507.785" y2="377.878" gradientUnits="userSpaceOnUse">
<stop stop-color="white"/>
<stop offset="1" stop-color="#8991FF" stop-opacity="0"/>
</linearGradient>
<linearGradient id="paint43_linear" x1="507.785" y1="274" x2="507.785" y2="377.878" gradientUnits="userSpaceOnUse">
<stop stop-color="#8991FF"/>
<stop offset="1" stop-color="white" stop-opacity="0"/>
</linearGradient>
<linearGradient id="paint44_linear" x1="507.995" y1="285.089" x2="507.995" y2="377.819" gradientUnits="userSpaceOnUse">
<stop stop-color="#8991FF"/>
<stop offset="1" stop-color="white" stop-opacity="0"/>
</linearGradient>
<linearGradient id="paint45_linear" x1="229.504" y1="82.74" x2="229.504" y2="205.18" gradientUnits="userSpaceOnUse">
<stop stop-color="white"/>
<stop offset="1" stop-color="#8991FF" stop-opacity="0"/>
</linearGradient>
<linearGradient id="paint46_linear" x1="229.504" y1="82.74" x2="229.504" y2="205.18" gradientUnits="userSpaceOnUse">
<stop stop-color="#8991FF"/>
<stop offset="1" stop-color="white" stop-opacity="0"/>
</linearGradient>
<linearGradient id="paint47_linear" x1="336.28" y1="340.65" x2="336.28" y2="414.377" gradientUnits="userSpaceOnUse">
<stop stop-color="white"/>
<stop offset="1" stop-color="#8991FF" stop-opacity="0"/>
</linearGradient>
<linearGradient id="paint48_linear" x1="336.28" y1="340.65" x2="336.28" y2="414.377" gradientUnits="userSpaceOnUse">
<stop stop-color="#8991FF"/>
<stop offset="1" stop-color="white" stop-opacity="0"/>
</linearGradient>
<linearGradient id="paint49_linear" x1="449.655" y1="183.06" x2="449.655" y2="256.825" gradientUnits="userSpaceOnUse">
<stop stop-color="white"/>
<stop offset="1" stop-color="#8991FF" stop-opacity="0"/>
</linearGradient>
<linearGradient id="paint50_linear" x1="449.655" y1="183.06" x2="449.655" y2="256.825" gradientUnits="userSpaceOnUse">
<stop stop-color="#8991FF"/>
<stop offset="1" stop-color="white" stop-opacity="0"/>
</linearGradient>
<linearGradient id="paint51_linear" x1="432.815" y1="377.54" x2="432.815" y2="438.207" gradientUnits="userSpaceOnUse">
<stop stop-color="white"/>
<stop offset="1" stop-color="#8991FF" stop-opacity="0"/>
</linearGradient>
<linearGradient id="paint52_linear" x1="432.815" y1="377.54" x2="432.815" y2="438.207" gradientUnits="userSpaceOnUse">
<stop stop-color="#8991FF"/>
<stop offset="1" stop-color="white" stop-opacity="0"/>
</linearGradient>
<linearGradient id="paint53_linear" x1="230.232" y1="112.14" x2="230.232" y2="205.14" gradientUnits="userSpaceOnUse">
<stop stop-color="#8991FF"/>
<stop offset="1" stop-color="white" stop-opacity="0"/>
</linearGradient>
<linearGradient id="paint54_linear" x1="111.167" y1="164.706" x2="111.167" y2="415.54" gradientUnits="userSpaceOnUse">
<stop stop-color="white"/>
<stop offset="1" stop-color="#8991FF" stop-opacity="0"/>
</linearGradient>
<linearGradient id="paint55_linear" x1="111.167" y1="164.706" x2="111.167" y2="415.54" gradientUnits="userSpaceOnUse">
<stop stop-color="#8991FF"/>
<stop offset="1" stop-color="white" stop-opacity="0"/>
</linearGradient>
<linearGradient id="paint56_linear" x1="111.2" y1="256.465" x2="111.2" y2="273.63" gradientUnits="userSpaceOnUse">
<stop stop-color="#8991FF"/>
<stop offset="1" stop-color="white" stop-opacity="0"/>
</linearGradient>
<linearGradient id="paint57_linear" x1="136.807" y1="199.25" x2="136.807" y2="211.88" gradientUnits="userSpaceOnUse">
<stop stop-color="#8991FF"/>
<stop offset="1" stop-color="white" stop-opacity="0"/>
</linearGradient>
<linearGradient id="paint58_linear" x1="129.02" y1="307.4" x2="129.02" y2="316.57" gradientUnits="userSpaceOnUse">
<stop stop-color="#8991FF"/>
<stop offset="1" stop-color="white" stop-opacity="0"/>
</linearGradient>
<linearGradient id="paint59_linear" x1="153.276" y1="368.32" x2="153.276" y2="376.63" gradientUnits="userSpaceOnUse">
<stop stop-color="#8991FF"/>
<stop offset="1" stop-color="white" stop-opacity="0"/>
</linearGradient>
<linearGradient id="paint60_linear" x1="64.8647" y1="355.34" x2="64.8647" y2="371.44" gradientUnits="userSpaceOnUse">
<stop stop-color="#8991FF"/>
<stop offset="1" stop-color="white" stop-opacity="0"/>
</linearGradient>
<linearGradient id="paint61_linear" x1="94.3691" y1="332.391" x2="94.3691" y2="342.38" gradientUnits="userSpaceOnUse">
<stop stop-color="#8991FF"/>
<stop offset="1" stop-color="white" stop-opacity="0"/>
</linearGradient>
</defs>
</svg>
