<svg width="679" height="453" viewBox="0 0 679 453" fill="none" xmlns="http://www.w3.org/2000/svg">
<path d="M679 173.895C674.264 175.304 675.203 168.872 675.713 163.326C676.032 159.837 669.398 161.678 667.309 164.246L658.846 154.222C661.843 148.699 665.55 138.709 660.594 135.538C656.687 133.049 651.841 137.686 647.475 138.766L629.848 121.593C624.752 126.446 624.792 116.297 620.146 110.898C615.01 104.932 607.056 106.966 603.979 99.3854C600.901 91.8048 593.867 82.7582 587.881 87.5884C587.571 83.7811 589.78 78.2121 586.942 76.1551C580.377 71.3931 575.591 67.188 567.877 65.9946C561.172 64.9604 556.106 74.9049 549.801 72.1091C554.047 71.8363 553.438 62.551 549.201 63.017L517.986 65.9264C516.117 67.5289 517.986 74.9049 518.785 72.4273C521.053 65.8696 506.385 72.4273 509.253 72.4273C505.555 79.7805 495.094 80.917 490.267 74.5071C485.292 78.7894 481.98 85.1086 481.035 92.1231C474.62 92.4867 469.873 98.6807 464.867 103.261C459.861 107.841 452.687 100.988 447.541 105.318C444.813 107.648 446.901 113.149 443.704 114.501C440.506 115.853 436.969 115.058 433.592 114.569C424.812 113.369 415.909 114.283 407.46 117.251C399.011 120.219 391.205 125.176 384.55 131.799L338.256 150.313C333.26 152.301 323.408 141.289 327.894 144.403C333.34 148.176 318.631 146.482 312.286 145.801C306.481 145.175 302.983 144.323 297.148 144.05C287.945 143.618 281.45 156.427 272.537 153.79C246.058 166.191 218.052 173.858 189.512 176.521C177.601 178.464 165.57 179.292 153.54 178.998L115.69 200.831L113.991 201.808C99.3625 210.252 75.621 209.57 70.0853 227.141C69.246 229.812 72.0837 232.335 73.083 234.926C55.3728 268.405 42.2332 304.748 34.1134 342.713L27.2588 350.259C27.2182 352.566 27.7619 354.837 28.8249 356.802C29.888 358.767 31.4255 360.342 33.2541 361.34C21.753 368.159 27.8583 389.196 21.0136 401.732C16.677 409.687 7.02452 418.871 12.87 425.383C8.58664 434.588 4.29665 443.794 0 453L1.22902 452.534C124.343 443.772 247.787 443.442 371.14 443.181L497.482 442.874C557.745 442.737 618.028 442.59 678.281 441.226V176.873" fill="url(#paint0_linear)"/>
<path d="M129.36 265.11L118.16 308.75C116.16 304 113.24 300.86 109.92 296.93C108.82 295.62 107.05 294.26 105.58 295.14C104.53 295.77 104.35 297.2 104.28 298.43C103.74 308.82 91.8601 316.13 91.3301 326.52C89.9301 323.98 81.54 311.52 79.75 309.2C75.6732 304.013 72.3814 298.255 69.9801 292.11C69.4201 300.21 68.9201 308.65 72.0601 316.11C73.4001 319.31 75.3801 322.24 76.4501 325.54C77.5201 328.84 77.5201 332.82 75.2001 335.4C74.7643 335.953 74.1285 336.312 73.4301 336.4C72.3601 336.46 71.53 335.53 70.87 334.68L46.4301 303.4C46.4301 303.4 8.09005 275.45 46.4301 254.01C39.1801 244.55 26.52 233.83 14.77 235.79C15.9614 233.369 17.9889 231.461 20.4779 230.419C22.9669 229.376 25.749 229.27 28.3101 230.12C26.6901 226.12 33.8301 224.33 37.3101 226.87C40.7901 229.41 43.87 233.78 48.14 233.19C52.41 232.6 53.9201 225.98 50.4301 223.57C51.9614 223.149 53.5663 223.066 55.1328 223.329C56.6993 223.591 58.1897 224.192 59.5 225.09C58.601 221.47 58.5512 217.69 59.3544 214.048C60.1575 210.405 61.7919 206.997 64.13 204.09C51.3547 197.05 39.5547 188.37 29.03 178.27C41.03 170.67 59.61 179.91 60.79 194.04C64.87 195.11 69.4001 191.14 68.8601 186.95C69.3936 186.904 69.931 186.965 70.4404 187.13C70.9498 187.295 71.4208 187.561 71.8256 187.912C72.2303 188.262 72.5605 188.691 72.7966 189.172C73.0327 189.652 73.17 190.175 73.2001 190.71C74.6242 189.051 75.4814 186.98 75.6471 184.8C75.8128 182.619 75.2782 180.443 74.1212 178.587C72.9642 176.732 71.2451 175.294 69.2142 174.483C67.1834 173.673 64.9468 173.531 62.8301 174.08C63.3993 172.565 64.3068 171.2 65.4835 170.09C66.6602 168.979 68.075 168.151 69.62 167.67C66.03 163.57 60.4001 161.95 56.0801 158.67C51.7601 155.39 49.08 148.28 53.17 144.67L49.03 141.76C50.61 137.76 56.5 137.43 60.03 139.85C63.56 142.27 65.4601 146.34 67.8101 149.91C70.1601 153.48 73.6601 156.91 77.9301 156.81C78.9657 154.719 79.3097 152.353 78.9125 150.054C78.5152 147.755 77.3973 145.642 75.7201 144.02L80.7201 146.9C79.7401 139.32 78.7401 131.74 77.7201 124.16C80.491 124.609 83.3258 124.461 86.035 123.727C88.7443 122.992 91.2655 121.687 93.4301 119.9C94.6501 118.9 95.8401 117.67 97.4301 117.43C100 117.05 102.11 119.51 103.09 121.92C104.542 125.792 104.608 130.048 103.275 133.962C101.942 137.877 99.2934 141.209 95.78 143.39C101.55 143.39 109.14 139.18 110.99 132.65C119.43 137.89 113.89 143.65 108.64 152.13C105.55 157.13 100.19 158.83 98.17 164.33C96.15 169.83 101.49 177.85 106.5 174.83C103.11 178.83 99.68 190.08 96.29 194.13C98.2501 192.548 100.643 191.596 103.154 191.398C105.665 191.201 108.177 191.767 110.36 193.022C112.544 194.278 114.296 196.164 115.389 198.434C116.481 200.704 116.861 203.25 116.48 205.74C119.056 205.165 121.368 203.749 123.051 201.716C124.735 199.683 125.695 197.148 125.78 194.51C126.46 201.33 126.78 209.15 121.95 214C118.83 217.12 114.17 218.25 110.84 221.17C107.51 224.09 106.62 230.65 110.79 232.17C113.13 233.63 116.13 232.98 118.89 232.81C121.65 232.64 125.04 233.49 125.72 236.16C126.26 238.26 124.8 240.29 123.43 241.97L112.95 254.77C119.01 254.57 125.58 257.42 128.36 262.59C128.794 263.387 129.129 264.233 129.36 265.11Z" fill="url(#paint1_linear)" fill-opacity="0.19" stroke="url(#paint2_linear)" stroke-width="2" stroke-linecap="round" stroke-linejoin="round"/>
<path d="M460.83 188.53C461.16 192.19 466 193.15 469.67 193.16C473.34 193.17 478.19 194.28 478.36 197.95C478.336 199.151 477.961 200.32 477.28 201.31C475.81 203.731 473.82 205.795 471.454 207.351C469.088 208.908 466.405 209.919 463.6 210.31C467.15 211 471.5 212.51 471.87 216.11C472.21 219.47 468.16 222.03 464.87 221.16C461.58 220.29 468.67 224.28 469.06 231.34C472.54 231.34 476.33 233.86 481.64 225.03C481.64 234.15 475.05 238.03 471.36 239.52C467.67 241.01 463.65 241.34 459.69 241.66C461.887 244.398 464.923 246.338 468.33 247.18C467.87 249.96 463.01 249.27 461.66 251.75C459.84 255.11 466.34 259.99 463.2 262.18C462.596 262.539 461.902 262.719 461.2 262.7C454.2 263.05 450.38 261.85 445.5 261.85C441.384 258.554 436.383 256.553 431.13 256.1C430.441 260.571 431.038 265.145 432.85 269.29C427.33 260.93 414.48 264.5 405.51 268.97C406.99 264.11 399.57 260.62 395.18 263.18C390.79 265.74 387.05 275.34 385.18 280.08C383.18 274.88 373.18 263.99 368.49 260.89C367.23 260.05 365.75 259.1 365.57 257.59C365.34 255.68 367.27 254.31 368.87 253.24C372.298 250.913 375.222 247.919 377.466 244.436C379.71 240.953 381.228 237.053 381.93 232.97C382.43 229.97 382.4 226.64 380.57 224.22C378.74 221.8 374.57 221.05 372.73 223.45C372.73 223.45 373.58 210.9 371.14 209.66C368.7 208.42 365.8 208.66 363.08 209.02C364.08 200.35 368.56 200.26 375.27 186.77C373.21 190.51 366.93 190.01 364.07 186.69C361.21 183.37 360.79 178.36 360.6 173.83C358.09 172.08 354.77 174.67 353.28 177.34C351.79 180.01 350.44 183.34 347.45 184.04C343.25 184.97 338.77 179.66 335.11 183.92C334.348 184.867 333.88 186.017 333.765 187.228C333.649 188.438 333.891 189.656 334.46 190.73C336 193.93 336.04 200.86 331.84 201.22C329.63 197.9 328.26 194.09 326.21 190.67C323.8 186.67 320.06 182.98 315.1 183.15C314.54 183.17 313.983 183.25 313.44 183.39C310.83 177.98 309.17 174.78 308.85 174.71C307.166 174.342 305.644 173.447 304.503 172.156C303.362 170.864 302.662 169.243 302.505 167.526C302.348 165.81 302.742 164.089 303.629 162.611C304.516 161.134 305.851 159.977 307.44 159.31C308.175 160.793 309.404 161.974 310.915 162.649C312.426 163.324 314.125 163.452 315.72 163.01C316.147 161.608 316.055 160.1 315.46 158.761C314.865 157.422 313.807 156.342 312.48 155.72L315.97 157L316.63 152.91C320.04 156.25 325.42 159.72 329.07 156.65C331.28 154.78 328.31 154.3 326.99 151.72C325.67 149.14 320.3 147.6 317.99 145.85C320.41 144.59 329.68 141.74 331.59 143.69C332.528 144.685 333.134 145.947 333.324 147.301C333.514 148.655 333.278 150.035 332.65 151.25C334.189 150.508 335.443 149.282 336.22 147.759C336.996 146.237 337.252 144.502 336.95 142.82C336.647 141.139 335.801 139.602 334.543 138.446C333.284 137.291 331.682 136.579 329.98 136.42C325.98 136.04 321.28 138.56 318.29 135.87C317.517 135.129 317.039 134.133 316.945 133.066C316.851 131.999 317.148 130.934 317.78 130.07C318.158 129.587 318.644 129.199 319.2 128.94C318.06 128.31 317.31 126.83 317.96 125.72C316.24 126.07 314.27 126.32 312.96 125.22C311.65 124.12 312.09 121.22 313.83 121.37C310.58 120.12 310.97 114.37 314.35 113.53C314.158 112.973 313.81 112.484 313.347 112.12C312.884 111.757 312.326 111.534 311.74 111.48C314.2 109.48 317.5 112.65 318.91 115.48C320.32 118.31 322.91 121.78 325.78 120.48C328.03 119.48 328.16 116.15 326.83 114.07C325.5 111.99 323.28 110.7 321.53 108.97C319.78 107.24 318.53 104.53 319.63 102.35C322.71 103.55 323.36 101.93 323.22 105.24C324.49 104.07 327.22 107.8 328.53 106.63L330.1 110.02C331.723 103.478 331.037 96.5756 328.16 90.48C330.09 90.3413 332.013 90.8354 333.637 91.8874C335.261 92.9394 336.498 94.4919 337.16 96.31C337.81 98.23 337.93 100.61 339.62 101.74C341.31 102.87 344 101.82 345.14 100C345.633 99.1854 345.972 98.2871 346.14 97.35C346.265 98.2069 346.558 99.0308 347.002 99.7739C347.447 100.517 348.034 101.165 348.73 101.68C349.952 102.516 351.446 102.855 352.909 102.626C354.372 102.397 355.692 101.619 356.6 100.45C358.26 98 357.03 94.04 354.19 93.22C353.657 90.82 353.12 88.4133 352.58 86C348.673 85.1866 344.813 84.1866 341 83C340.557 82.9744 340.127 82.8421 339.746 82.6143C339.366 82.3865 339.046 82.07 338.814 81.6917C338.582 81.3135 338.445 80.8848 338.415 80.4422C338.385 79.9996 338.462 79.5562 338.64 79.15C339.427 74.6633 340.223 70.1733 341.03 65.68C344.304 67.0289 347.211 69.1369 349.51 71.83C348.827 72.077 348.209 72.4752 347.702 72.9946C347.194 73.5141 346.811 74.1415 346.58 74.83C349.223 76.0107 352.206 76.1884 354.97 75.33C354.35 72.44 351.44 70.76 349.24 68.78C347.04 66.8 345.51 63.02 347.76 61.1C347.17 61.0537 346.597 60.886 346.075 60.6074C345.553 60.3288 345.095 59.9453 344.728 59.4811C344.362 59.0168 344.095 58.4818 343.945 57.9096C343.796 57.3374 343.766 56.7404 343.858 56.1561C343.95 55.5718 344.162 55.0129 344.48 54.5143C344.798 54.0158 345.216 53.5885 345.708 53.2593C346.199 52.93 346.753 52.7059 347.335 52.6011C347.917 52.4962 348.515 52.5129 349.09 52.65C346.16 49.36 348.92 44.1 347.83 39.83C347.25 37.57 345.63 35.76 344.49 33.72C343.35 31.68 342.75 28.97 344.2 27.14C346.338 27.6669 348.233 28.9032 349.577 30.6469C350.922 32.3906 351.635 34.5386 351.6 36.74C351.489 37.4111 351.551 38.0995 351.78 38.74C352.35 39.87 354.11 39.91 355.07 39.07C356.03 38.23 356.55 40.07 357.07 40.9L359.43 39C360.88 37.57 361 35.23 360.43 33.28C359.708 31.3803 358.863 29.5297 357.9 27.74C356.723 25.0057 356.24 22.0227 356.494 19.0566C356.749 16.0905 357.734 13.2334 359.36 10.74C361.696 14.1329 363.26 17.9971 363.94 22.06C363.957 21.4722 364.159 20.9049 364.519 20.4395C364.878 19.9742 365.376 19.6347 365.94 19.47C366.927 22.85 367.927 26.2333 368.94 29.62C371.65 26.86 370.73 22.36 369.94 18.62C369.15 14.88 369.21 9.93997 372.68 8.24997C376.38 14.25 373.68 32.8 374.68 34.82C375.68 36.84 383.58 25.53 384.84 24.82C386.1 24.11 387.94 24.2 388.72 25.41C388.954 25.8558 389.087 26.3476 389.109 26.8505C389.132 27.3534 389.043 27.8551 388.85 28.32C387.36 32.92 382.35 35.18 378.17 37.62C374.89 39.54 371.74 42 370.02 45.39C368.3 48.78 367.02 51.34 369.64 54.12C371.74 56.38 377.51 55.2 380.64 52.92C378.08 55.92 374.87 60.65 372.7 62.52C371.91 63.3689 370.85 63.9168 369.7 64.07C368.55 64.07 368.56 73.61 370.55 75.13C372.54 76.65 376.36 75.48 377.35 77.82C377.571 78.5708 377.571 79.3692 377.35 80.12C376.877 82.8733 376.403 85.6166 375.93 88.35C379.83 87.03 379.72 93.59 377.4 97.2C376.206 98.9937 374.53 100.414 372.565 101.299C370.599 102.183 368.425 102.495 366.29 102.2C366.277 103.236 366.487 104.264 366.906 105.212C367.324 106.16 367.942 107.007 368.717 107.696C369.492 108.384 370.406 108.898 371.397 109.203C372.387 109.507 373.432 109.595 374.46 109.46C378.6 108.67 372.54 117.4 380.38 119.89C377.61 124.32 374 124.58 369.8 127.7C370.43 129.7 373.73 128.78 375.42 130.06C377.53 131.66 375.73 135 373.74 136.73C371.75 138.46 369.38 141.09 370.74 143.33C371.74 144.95 374.26 144.96 375.81 143.85C377.36 142.74 378.2 140.92 378.97 139.17C379.65 140.69 387.41 129.77 385.77 130.06C386.1 124.85 384.71 118.57 387.95 114.48C384.777 109.744 382.97 104.225 382.73 98.53C382.65 96.53 382.99 94.08 384.78 93.12C386.73 92.12 389.27 93.57 390.13 95.61C390.99 97.65 390.67 99.97 390.33 102.16C393.11 105.07 398.48 101.61 398.66 97.59C398.84 93.57 395.99 90.13 393.3 87.14C393.882 86.4078 394.666 85.8636 395.556 85.5754C396.445 85.2872 397.4 85.2679 398.3 85.52C398.241 85.0415 398.286 84.5558 398.433 84.0966C398.579 83.6373 398.824 83.2154 399.15 82.86C398.183 83.2695 397.102 83.3228 396.099 83.0105C395.096 82.6982 394.236 82.0404 393.672 81.1541C393.109 80.2677 392.878 79.2103 393.02 78.1696C393.162 77.1289 393.669 76.1723 394.45 75.47C392.57 76.54 389.79 74.08 389.36 71.64C388.88 68.95 389.36 65.78 387.46 63.83C385.91 62.25 383.26 62.21 381.29 63.23C379.32 64.25 382.53 55.13 386.54 54.67C390.55 54.21 394.63 57.67 394.54 61.74C394.54 62.8 394.27 63.94 394.78 64.86C395.73 66.56 398.35 66.11 399.91 64.96C401.63 63.6706 402.889 61.8611 403.5 59.8C404.06 62.26 406.73 64.44 409.23 63.54C413.31 62.05 412.75 55.45 409.23 52.98C405.71 50.51 400.91 50.98 396.61 51.51C397.756 48.9764 399.771 46.9367 402.29 45.76L397.62 41.47C399.36 40.3205 401.445 39.8108 403.518 40.0278C405.592 40.2449 407.526 41.1752 408.99 42.66C410.51 44.28 412.44 46.74 414.32 45.57C416.2 44.4 414.88 41.57 413.2 40.21C410.601 38.165 407.406 37.0239 404.1 36.96C406.774 34.4098 410.288 32.9234 413.98 32.78L412.82 30.51C414.503 30.0883 416.282 30.2982 417.82 31.1C413.58 21.82 409.43 10.64 414.82 1.96997L416.32 7.77997C417.623 5.63853 419.501 3.90606 421.74 2.77997C422.979 6.22232 423.091 9.9697 422.06 13.48C424.21 15.81 428.5 14.57 430.06 11.79C431.62 9.00997 430.97 5.52997 429.71 2.62997C431.827 4.23083 433.556 6.28864 434.768 8.65023C435.98 11.0118 436.644 13.6164 436.71 16.27C436.979 16.0123 437.338 15.8689 437.71 15.87C438.389 15.9433 439.014 16.2748 439.455 16.7961C439.896 17.3173 440.12 17.9883 440.08 18.67C439.954 20.0404 439.398 21.3357 438.49 22.37C434.973 27.0959 430.084 30.6228 424.49 32.47C425.574 33.7597 427.018 34.6969 428.637 35.1618C430.256 35.6267 431.977 35.5982 433.58 35.08L423.35 41.94H434.18C433.279 43.5485 432.024 44.931 430.51 45.9827C428.996 47.0343 427.262 47.7276 425.44 48.01C426.55 49.47 429.57 48.27 430.34 49.93C430.98 51.32 429.15 52.49 427.7 52.93L418.12 55.81C419.22 59.25 423.6 60.7 427.12 59.81C430.64 58.92 433.41 56.35 436.05 53.88C437.11 57.53 435.16 61.53 432.24 63.98C429.32 66.43 425.6 67.65 421.97 68.82C423.06 74.53 433.11 71.82 438.61 73.66C433.47 77.66 421.13 80.47 419.46 81.15C417.79 81.83 432.14 84.21 412.66 92.54C411.9 92.87 424.78 90.94 425.33 91.54C426.69 93.08 416.57 97.89 416.85 99.93C417.13 101.97 415.94 104.32 413.92 104.64C416.98 105.014 420.076 104.337 422.7 102.72C422.123 107.28 420.349 111.606 417.56 115.26L424.16 116.98C422.932 119.056 421.276 120.846 419.3 122.23L426.73 122.52L416.73 126.14C416.048 126.318 415.428 126.681 414.94 127.19C413.76 128.69 415.26 130.73 416.24 132.37C417.012 133.677 417.465 135.148 417.562 136.663C417.66 138.178 417.398 139.695 416.8 141.09C419.73 139.86 417.13 149.69 423.11 149.69C426.29 149.69 416.79 131.46 430.41 125.69C442.05 120.8 430.07 107.97 430.07 104.59C430.07 99.39 445.5 89.48 449.2 89.27C452.9 89.06 437.02 87.19 437.27 84.1C437.4 82.54 437.84 80.6 439.37 80.28C441.27 79.89 442.37 82.34 443.98 83.42C446.35 85.03 449.8 83.22 450.98 80.59C452.16 77.96 451.63 74.95 451.12 72.13L460.22 82.21C461.195 83.1597 461.985 84.282 462.55 85.52C462.897 86.4414 463.034 87.4289 462.95 88.41C462.65 92.41 459.48 95.48 456.11 97.56C452.74 99.64 448.95 101.09 446.01 103.74C449.915 103.627 453.821 103.963 457.65 104.74L454.56 106.41C455.368 106.317 456.186 106.383 456.968 106.606C457.749 106.829 458.48 107.204 459.117 107.709C459.754 108.214 460.285 108.84 460.68 109.551C461.075 110.261 461.327 111.042 461.42 111.85C461.513 112.658 461.447 113.476 461.224 114.258C461.001 115.039 460.626 115.77 460.121 116.407C459.616 117.044 458.99 117.575 458.28 117.97C457.569 118.365 456.788 118.617 455.98 118.71C456.635 119.261 457.402 119.663 458.228 119.888C459.053 120.113 459.918 120.155 460.762 120.013C461.606 119.87 462.409 119.545 463.115 119.061C463.821 118.577 464.413 117.946 464.85 117.21C465.78 115.41 466.52 112.59 468.51 112.99C471.69 116.34 468.76 121.73 465.99 125.43C463.22 129.13 460.9 135.05 464.66 137.76C466.74 139.26 469.73 138.76 471.97 140.02C474.97 141.72 475.48 146.21 473.65 149.14L474.24 148.86C474.88 147.33 475.916 145.998 477.24 145C478.66 144.13 480.82 144.24 481.66 145.67C481.985 146.32 482.127 147.046 482.07 147.77C481.99 154.11 477.31 159.46 472.25 163.29C471.292 163.902 470.472 164.705 469.84 165.65C468 168.99 471.79 172.7 475.36 174.03C478.93 175.36 483.36 176.47 484.57 180.08C485.57 182.88 483.87 186.08 481.46 187.77C479.05 189.46 476.05 190.12 473.14 190.7C472.07 187.86 470.14 185.05 467.25 184.19C464.36 183.33 460.56 185.51 460.83 188.53Z" fill="url(#paint3_linear)" fill-opacity="0.19" stroke="url(#paint4_linear)" stroke-width="2" stroke-linecap="round" stroke-linejoin="round"/>
<path d="M644.33 280.51C643.7 283.51 639.39 284.62 636.33 284.84C633.27 285.06 630.28 283.94 627.44 282.76C621.82 280.42 615.97 277.47 613.02 272.14C610.38 267.36 610.59 261.59 609.6 256.22C608.61 250.85 605.47 244.99 600.05 244.22C607.54 244.4 615.19 244.6 622.21 247.22C629.23 249.84 635.62 255.35 637.21 262.66C637.55 264.21 637.71 265.89 638.7 267.13C639.69 268.37 641.26 268.87 642.53 269.77C644.141 270.988 645.224 272.778 645.555 274.77C645.886 276.763 645.441 278.806 644.31 280.48" fill="url(#paint5_linear)" fill-opacity="0.19"/>
<path d="M644.33 280.51C643.7 283.51 639.39 284.62 636.33 284.84C633.27 285.06 630.28 283.94 627.44 282.76C621.82 280.42 615.97 277.47 613.02 272.14C610.38 267.36 610.59 261.59 609.6 256.22C608.61 250.85 605.47 244.99 600.05 244.22C607.54 244.4 615.19 244.6 622.21 247.22C629.23 249.84 635.62 255.35 637.21 262.66C637.55 264.21 637.71 265.89 638.7 267.13C639.69 268.37 641.26 268.87 642.53 269.77C644.141 270.988 645.224 272.778 645.555 274.77C645.886 276.763 645.441 278.806 644.31 280.48" stroke="url(#paint6_linear)" stroke-width="2" stroke-linecap="round" stroke-linejoin="round"/>
<path d="M633.6 320.06C638.17 321.31 638.6 324.31 639.36 329C639.7 331.355 639.371 333.757 638.411 335.934C637.451 338.111 635.898 339.973 633.93 341.31C632.525 342.037 631.212 342.93 630.02 343.97C628.965 345.291 628.23 346.838 627.87 348.49C625.62 355.97 630.08 394.19 627.87 401.66" stroke="url(#paint7_linear)" stroke-width="2" stroke-linecap="round" stroke-linejoin="round"/>
<path d="M665.88 366.29C648.5 372.82 644.34 373.99 637.05 382.42C631.58 388.74 628.32 398.11 627.83 401.66C625.43 382.58 605.99 372.59 592.11 373.95C617.43 357.24 627.96 398.1 628.59 398.45C628.59 398.45 636.43 355.65 665.88 366.29Z" fill="url(#paint8_linear)" fill-opacity="0.19" stroke="url(#paint9_linear)" stroke-width="2" stroke-linecap="round" stroke-linejoin="round"/>
<path d="M639.89 308.59C635.15 291.76 643.05 289.89 644.33 280.51C638.23 281.85 632.52 279.51 627.99 275.18C626.64 273.9 625.11 272.83 623.86 271.46C615.86 262.74 631.72 253.18 600.05 244.26" stroke="url(#paint10_linear)" stroke-width="2" stroke-linecap="round" stroke-linejoin="round"/>
<path d="M633.6 320.06C639.69 317.97 651.04 325.65 653.76 324.7C656.437 323.616 658.928 322.117 661.14 320.26L672.79 311.51C669.583 310.359 666.751 308.353 664.6 305.71C663.36 304.18 662.33 302.43 660.73 301.29C658.94 300.02 656.66 299.68 654.48 299.38C650.12 298.79 644.96 298.47 642.09 301.81C640.52 303.64 640.09 306.18 639.89 308.59C639.69 311 639.73 313.48 638.89 315.74C638.05 318 636.03 320.05 633.61 320.06" fill="url(#paint11_linear)" fill-opacity="0.19"/>
<path d="M633.6 320.06C639.69 317.97 651.04 325.65 653.76 324.7C656.437 323.616 658.928 322.117 661.14 320.26L672.79 311.51C669.583 310.359 666.751 308.353 664.6 305.71C663.36 304.18 662.33 302.43 660.73 301.29C658.94 300.02 656.66 299.68 654.48 299.38C650.12 298.79 644.96 298.47 642.09 301.81C640.52 303.64 640.09 306.18 639.89 308.59C639.69 311 639.73 313.48 638.89 315.74C638.05 318 636.03 320.05 633.61 320.06" stroke="url(#paint12_linear)" stroke-width="2" stroke-linecap="round" stroke-linejoin="round"/>
<path d="M633.6 320.06C633.6 320.06 654.22 312.18 672.79 311.51" stroke="url(#paint13_linear)" stroke-width="2" stroke-linecap="round" stroke-linejoin="round"/>
<path d="M160.31 195.31C164.17 160.79 164.46 125.83 170.65 91.65C169.13 96.78 161.88 131.52 160 143.76C156.39 167.2 153 222.86 153 227.76C153.01 227.77 159.1 206 160.31 195.31Z" fill="url(#paint14_linear)" fill-opacity="0.19" stroke="url(#paint15_linear)" stroke-width="2" stroke-linecap="round" stroke-linejoin="round"/>
<path d="M148.93 132.43C149.36 119.73 149.48 104.18 149.93 91.48C145.599 117.314 143.521 143.476 143.72 169.67C143.72 169.67 148.79 136.92 148.93 132.43Z" fill="url(#paint16_linear)" fill-opacity="0.19" stroke="url(#paint17_linear)" stroke-width="2" stroke-linecap="round" stroke-linejoin="round"/>
<path d="M127.29 156.4C132.44 136.23 135.21 112.65 135.7 91.84C134.01 98.84 132.89 105.9 131.88 113.01C129.853 127.41 128.323 141.873 127.29 156.4Z" fill="url(#paint18_linear)" fill-opacity="0.19" stroke="url(#paint19_linear)" stroke-width="2" stroke-linecap="round" stroke-linejoin="round"/>
<path d="M185.33 234.11C183.54 200.78 181.71 164.75 182.87 131.4C192.18 159.52 186.18 220.65 185.33 234.11Z" fill="url(#paint20_linear)" fill-opacity="0.19" stroke="url(#paint21_linear)" stroke-width="2" stroke-linecap="round" stroke-linejoin="round"/>
<path d="M190.77 130.57C190.92 106.22 192.47 82.57 199.25 59.2C200.68 79 191.57 126.43 190.77 130.57Z" fill="url(#paint22_linear)" fill-opacity="0.19" stroke="url(#paint23_linear)" stroke-width="2" stroke-linecap="round" stroke-linejoin="round"/>
<path d="M218.87 165.64C215.06 137.64 212.67 110.82 213.39 82.64C215.26 90.64 215.67 98.91 216.06 107.12C216.973 126.613 217.91 146.12 218.87 165.64Z" fill="url(#paint24_linear)" fill-opacity="0.19" stroke="url(#paint25_linear)" stroke-width="2" stroke-linecap="round" stroke-linejoin="round"/>
<path d="M207.51 212.08C205.51 190.813 202.743 169.64 199.21 148.56C197.14 170.65 201.55 190.71 207.51 212.08Z" fill="url(#paint26_linear)" fill-opacity="0.19" stroke="url(#paint27_linear)" stroke-width="2" stroke-linecap="round" stroke-linejoin="round"/>
<path d="M229.99 193.49C227.634 168.202 227.822 142.741 230.55 117.49C231.84 132.88 233.78 144.49 233.75 163.72C233.74 169.77 231.3 187.61 229.99 193.49Z" fill="url(#paint28_linear)" fill-opacity="0.19" stroke="url(#paint29_linear)" stroke-width="2" stroke-linecap="round" stroke-linejoin="round"/>
<path d="M246.89 173.57C243.83 162.69 238.5 89.0699 245.17 44.3099C251.43 95.7899 248.73 145.85 246.89 173.57Z" fill="url(#paint30_linear)" fill-opacity="0.19" stroke="url(#paint31_linear)" stroke-width="2" stroke-linecap="round" stroke-linejoin="round"/>
<path d="M264.71 207.41C259.194 184.023 258.853 159.713 263.71 136.18C264.58 159.35 264.72 184.22 264.71 207.41Z" fill="url(#paint32_linear)" fill-opacity="0.19" stroke="url(#paint33_linear)" stroke-width="2" stroke-linecap="round" stroke-linejoin="round"/>
<path d="M276.35 158C278.56 123.35 280.75 88.3799 275.35 54.0699L274.05 74.9999C273.08 90.1799 274.63 142.89 276.35 158Z" fill="url(#paint34_linear)" fill-opacity="0.19" stroke="url(#paint35_linear)" stroke-width="2" stroke-linecap="round" stroke-linejoin="round"/>
<path d="M292.43 159.71C290.43 128.05 302.64 102.01 299.3 66.83C296.64 71.4 285.08 132.88 292.43 159.71Z" fill="url(#paint36_linear)" fill-opacity="0.19" stroke="url(#paint37_linear)" stroke-width="2" stroke-linecap="round" stroke-linejoin="round"/>
<path d="M128.36 262.56C128.796 263.366 129.132 264.223 129.36 265.11C128.965 264.286 128.631 263.433 128.36 262.56Z" fill="url(#paint38_linear)" fill-opacity="0.19" stroke="url(#paint39_linear)" stroke-width="2" stroke-linecap="round" stroke-linejoin="round"/>
<path d="M544.59 387.85C545.45 383.18 558.96 363.68 554.24 348.77C552.24 342.33 549.92 321.85 564.34 301.27" stroke="url(#paint40_linear)" stroke-width="2" stroke-linecap="round" stroke-linejoin="round"/>
<path d="M564.43 300.39C564.43 300.68 564.36 300.98 564.32 301.27C565.03 295.87 551 272.55 546.1 270.22C541.2 267.89 537.78 261.55 540.53 256.87C537.69 257.515 535.097 258.969 533.065 261.056C531.033 263.143 529.649 265.773 529.08 268.63C526.86 267.96 524.42 267.05 523.45 264.95C522.48 262.85 524.55 259.69 526.64 260.7L518.8 256.39L524.01 244.78C518.51 247.26 512.72 249.78 506.71 249.37C500.7 248.96 494.5 244.45 494.41 238.37C499.397 236.515 504.561 235.175 509.82 234.37C501.209 235.024 492.641 232.635 485.61 227.62C499.71 220.31 524.41 219.62 533.79 232.42C533.79 217.72 508.18 219.86 514.38 214.42C528.55 202.04 507.46 207.07 501.93 203.62C498.5 201.48 499.1 196.49 498.79 192.47C498.502 189.267 497.386 186.194 495.552 183.552C493.719 180.911 491.23 178.791 488.33 177.4C497.983 181.616 506.188 188.569 511.93 197.4C513.42 196.29 530.33 195.17 531.81 194.06C525.87 192.61 512.33 184.16 510.95 178.2C508.7 168.49 503.22 160.2 503.95 150.2C504.29 145.72 504.67 140.5 501.34 137.48C510.062 139.531 518.617 142.239 526.93 145.58L508.45 135.37C509.545 130.547 509.036 125.498 507 120.99C511.593 121.274 516.169 120.205 520.159 117.913C524.15 115.622 527.38 112.21 529.45 108.1C532.03 102.75 532.45 96.64 534.39 91.04C536.33 85.44 540.8 79.94 546.73 79.79C547.73 79.79 566.12 100.95 580.12 101.88C580.218 106.014 579.421 110.121 577.783 113.919C576.145 117.716 573.705 121.114 570.63 123.88C569.34 125.03 567.86 126.2 567.48 127.88C566.87 130.61 569.73 133.12 572.48 133.26C575.23 133.4 577.87 131.93 580.29 130.51C579.29 125.82 584.68 121.79 589.45 122.26C594.22 122.73 598.14 126.08 601.72 129.26C590.094 135.548 577.912 140.75 565.33 144.8C566.622 146.974 567.357 149.433 567.468 151.96C567.58 154.486 567.065 157.001 565.97 159.28L571.97 161.63C575.41 144.63 597.37 134.55 612.5 142.94L607.7 174.23C606.7 181.07 604.77 189.03 598.4 191.72C588.72 195.82 579.99 184.38 570.13 180.72L563.61 188.46C572.57 187.909 581.433 190.568 588.61 195.96C593.06 199.33 605.76 190.12 614.61 194.2C605.55 195.1 571.77 217.44 581.85 214.41C593.16 211.01 597.85 206.76 602.32 205.02C606.39 203.42 610.88 203.45 615.23 203.02C629.302 201.661 642.511 195.618 652.74 185.86C643.716 192.541 636.069 200.905 630.22 210.49C626.93 215.89 624.03 221.88 618.79 225.43C613.55 228.98 605 228.62 602.27 222.91C598.74 224.44 600.16 229.82 598.63 233.35C595.75 240 585.43 237.05 579.43 241C572.31 245.65 569.43 273.14 564.36 301.32" fill="url(#paint41_linear)" fill-opacity="0.19"/>
<path d="M564.43 300.39C564.43 300.68 564.36 300.98 564.32 301.27C565.03 295.87 551 272.55 546.1 270.22C541.2 267.89 537.78 261.55 540.53 256.87C537.69 257.515 535.097 258.969 533.065 261.056C531.033 263.143 529.649 265.773 529.08 268.63C526.86 267.96 524.42 267.05 523.45 264.95C522.48 262.85 524.55 259.69 526.64 260.7L518.8 256.39L524.01 244.78C518.51 247.26 512.72 249.78 506.71 249.37C500.7 248.96 494.5 244.45 494.41 238.37C499.397 236.515 504.561 235.175 509.82 234.37C501.209 235.024 492.641 232.635 485.61 227.62C499.71 220.31 524.41 219.62 533.79 232.42C533.79 217.72 508.18 219.86 514.38 214.42C528.55 202.04 507.46 207.07 501.93 203.62C498.5 201.48 499.1 196.49 498.79 192.47C498.502 189.267 497.386 186.194 495.552 183.552C493.719 180.911 491.23 178.791 488.33 177.4C497.983 181.616 506.188 188.569 511.93 197.4C513.42 196.29 530.33 195.17 531.81 194.06C525.87 192.61 512.33 184.16 510.95 178.2C508.7 168.49 503.22 160.2 503.95 150.2C504.29 145.72 504.67 140.5 501.34 137.48C510.062 139.531 518.617 142.239 526.93 145.58L508.45 135.37C509.545 130.547 509.036 125.498 507 120.99C511.593 121.274 516.169 120.205 520.159 117.913C524.15 115.622 527.38 112.21 529.45 108.1C532.03 102.75 532.45 96.64 534.39 91.04C536.33 85.44 540.8 79.94 546.73 79.79C547.73 79.79 566.12 100.95 580.12 101.88C580.218 106.014 579.421 110.121 577.783 113.919C576.145 117.716 573.705 121.114 570.63 123.88C569.34 125.03 567.86 126.2 567.48 127.88C566.87 130.61 569.73 133.12 572.48 133.26C575.23 133.4 577.87 131.93 580.29 130.51C579.29 125.82 584.68 121.79 589.45 122.26C594.22 122.73 598.14 126.08 601.72 129.26C590.094 135.548 577.912 140.75 565.33 144.8C566.622 146.974 567.357 149.433 567.468 151.96C567.58 154.486 567.065 157.001 565.97 159.28L571.97 161.63C575.41 144.63 597.37 134.55 612.5 142.94L607.7 174.23C606.7 181.07 604.77 189.03 598.4 191.72C588.72 195.82 579.99 184.38 570.13 180.72L563.61 188.46C572.57 187.909 581.433 190.568 588.61 195.96C593.06 199.33 605.76 190.12 614.61 194.2C605.55 195.1 571.77 217.44 581.85 214.41C593.16 211.01 597.85 206.76 602.32 205.02C606.39 203.42 610.88 203.45 615.23 203.02C629.302 201.661 642.511 195.618 652.74 185.86C643.716 192.541 636.069 200.905 630.22 210.49C626.93 215.89 624.03 221.88 618.79 225.43C613.55 228.98 605 228.62 602.27 222.91C598.74 224.44 600.16 229.82 598.63 233.35C595.75 240 585.43 237.05 579.43 241C572.31 245.65 569.43 273.14 564.36 301.32" stroke="url(#paint42_linear)" stroke-width="2" stroke-linecap="round" stroke-linejoin="round"/>
<path d="M564.34 301.27C571.34 291.27 603.34 300.51 609.83 281.89C601.72 281.89 569.64 261.56 564.45 300.39L564.34 301.27Z" fill="url(#paint43_linear)" fill-opacity="0.19" stroke="url(#paint44_linear)" stroke-width="2" stroke-linecap="round" stroke-linejoin="round"/>
<path d="M552.55 334.79C530.55 334.79 508.401 315.84 495.741 305.24C495.222 304.885 494.822 304.384 494.591 303.8C494.131 302.19 496.201 301.07 497.851 300.8C501.213 300.288 504.645 300.467 507.936 301.326C511.227 302.186 514.308 303.708 516.991 305.8C522.641 310.22 526.83 317.33 533.89 318.59C536.16 319 539.331 319.48 539.331 321.78C539.262 322.403 539.114 323.015 538.89 323.6C538.08 326.72 540.681 329.78 543.571 331.22C546.461 332.66 549.781 333.16 552.571 334.83" fill="url(#paint45_linear)" fill-opacity="0.19"/>
<path d="M552.55 334.79C530.55 334.79 508.401 315.84 495.741 305.24C495.222 304.885 494.822 304.384 494.591 303.8C494.131 302.19 496.201 301.07 497.851 300.8C501.213 300.288 504.645 300.467 507.936 301.326C511.227 302.186 514.308 303.708 516.991 305.8C522.641 310.22 526.83 317.33 533.89 318.59C536.16 319 539.331 319.48 539.331 321.78C539.262 322.403 539.114 323.015 538.89 323.6C538.08 326.72 540.681 329.78 543.571 331.22C546.461 332.66 549.781 333.16 552.571 334.83" stroke="url(#paint46_linear)" stroke-width="2" stroke-linecap="round" stroke-linejoin="round"/>
<path d="M563.01 298.29C569.01 302.4 531.1 311.62 528.73 302.51C528.526 301.859 528.526 301.161 528.73 300.51C529.23 299.24 530.87 298.85 532.23 298.93C536.53 299.16 541.45 301.83 544.7 299C546.83 297.14 546.93 293.72 548.92 291.7C550.91 289.68 554.74 289.76 557.3 291.37C559.86 292.98 561.52 295.65 563.03 298.27" fill="url(#paint47_linear)" fill-opacity="0.19"/>
<path d="M563.01 298.29C569.01 302.4 531.1 311.62 528.73 302.51C528.526 301.859 528.526 301.161 528.73 300.51C529.23 299.24 530.87 298.85 532.23 298.93C536.53 299.16 541.45 301.83 544.7 299C546.83 297.14 546.93 293.72 548.92 291.7C550.91 289.68 554.74 289.76 557.3 291.37C559.86 292.98 561.52 295.65 563.03 298.27" stroke="url(#paint48_linear)" stroke-width="2" stroke-linecap="round" stroke-linejoin="round"/>
<path d="M521.92 349.66C527.15 353.36 532.61 355.33 538.85 357.66C542.85 359.18 553.32 370.1 550.94 371.81C548.05 373.89 544.61 373.52 541.28 373.81C536.88 374.17 532.42 375.52 528.07 374.72C496.69 368.96 486.74 340.5 491.83 337.81C498.01 334.55 515.2 344.31 519.83 348.07C520.52 348.64 521.22 349.17 521.92 349.66Z" fill="url(#paint49_linear)" fill-opacity="0.19" stroke="url(#paint50_linear)" stroke-width="2" stroke-linecap="round" stroke-linejoin="round"/>
<path d="M555.94 353.84C555.01 355.71 569.46 357.7 571.54 357.89C574.69 358.18 577.94 358.45 580.98 357.56C584.02 356.67 586.85 354.32 587.35 351.19C587.55 349.96 587.35 348.62 588.02 347.54C589.44 345.1 593.16 346.08 595.63 347.44C600.178 349.95 604.545 352.774 608.7 355.89C609.332 356.474 610.143 356.827 611 356.89C611.875 356.738 612.667 356.276 613.23 355.59C615.74 353.16 618.31 350.65 619.77 347.48C621.23 344.31 621.34 340.26 619.13 337.56C616.72 334.62 611.94 333.56 611.07 329.83C610.854 328.397 610.981 326.934 611.44 325.56L615.54 309.34C615.936 308.228 615.995 307.025 615.71 305.88C614.77 303.27 610.95 303.31 608.49 304.59C606.03 305.87 603.68 307.92 600.91 307.74C597.7 307.55 595.25 304.38 592.04 304.21C587.19 303.96 584.85 310.09 580.75 312.69C578.27 314.27 574.91 314.69 573.2 317.05C572.468 318.245 571.994 319.58 571.81 320.97C569.63 331.84 560.21 352.45 555.94 353.82" fill="url(#paint51_linear)" fill-opacity="0.19"/>
<path d="M555.94 353.84C555.01 355.71 569.46 357.7 571.54 357.89C574.69 358.18 577.94 358.45 580.98 357.56C584.02 356.67 586.85 354.32 587.35 351.19C587.55 349.96 587.35 348.62 588.02 347.54C589.44 345.1 593.16 346.08 595.63 347.44C600.178 349.95 604.545 352.774 608.7 355.89C609.332 356.474 610.143 356.827 611 356.89C611.875 356.738 612.667 356.276 613.23 355.59C615.74 353.16 618.31 350.65 619.77 347.48C621.23 344.31 621.34 340.26 619.13 337.56C616.72 334.62 611.94 333.56 611.07 329.83C610.854 328.397 610.981 326.934 611.44 325.56L615.54 309.34C615.936 308.228 615.995 307.025 615.71 305.88C614.77 303.27 610.95 303.31 608.49 304.59C606.03 305.87 603.68 307.92 600.91 307.74C597.7 307.55 595.25 304.38 592.04 304.21C587.19 303.96 584.85 310.09 580.75 312.69C578.27 314.27 574.91 314.69 573.2 317.05C572.468 318.245 571.994 319.58 571.81 320.97C569.63 331.84 560.21 352.45 555.94 353.82" stroke="url(#paint52_linear)" stroke-width="2" stroke-linecap="round" stroke-linejoin="round"/>
<path d="M564.48 300.51C564.48 300.51 560.82 284.43 559.48 254.92" stroke="url(#paint53_linear)" stroke-width="2" stroke-linecap="round" stroke-linejoin="round"/>
<path d="M540.43 148.68C547.43 147.97 551.53 143.31 554.52 155.68C557.71 168.85 532.13 230.78 565.23 300.55" stroke="url(#paint54_linear)" stroke-width="2" stroke-linecap="round" stroke-linejoin="round"/>
<path d="M540.43 148.68C539.12 146.11 526.09 147.78 524.95 150.43C523.956 153.143 523.386 155.993 523.26 158.88L521.88 173.38C524.894 171.795 528.28 171.055 531.68 171.24C533.68 171.36 534.92 174.62 536.84 174.24C538.99 173.77 541.48 169.48 543.17 168.08C546.55 165.26 550.26 161.66 549.73 157.29C549.43 154.85 541.52 150.83 540.43 148.68Z" fill="url(#paint55_linear)" fill-opacity="0.19" stroke="url(#paint56_linear)" stroke-width="2" stroke-linecap="round" stroke-linejoin="round"/>
<path d="M508.01 381.45C502.01 390.31 488.601 385.89 477.931 385.27C453.271 383.82 434.771 407.64 411.201 415.05C393.581 420.58 374.441 416.5 356.851 410.89C339.261 405.28 318.801 407.01 300.351 406.36L59.3506 405.12C44.9006 403.64 29.0506 401.47 19.3506 390.64C28.8806 391.14 42.1706 388.64 39.3506 388.64C40.3506 386.64 39.0106 384.36 37.7006 382.57C33.1606 376.383 28.6172 370.19 24.0706 363.99C31.6006 362.53 35.2106 351.68 30.0706 345.99L46.9806 345.19C48.0221 347.656 49.842 349.713 52.1622 351.047C54.4825 352.381 57.1756 352.92 59.8306 352.58C60.3815 352.549 60.9187 352.395 61.403 352.131C61.8872 351.866 62.3065 351.497 62.6305 351.05C63.2505 349.94 62.7905 348.56 62.2505 347.41C59.0284 340.566 53.4269 335.128 46.4906 332.11C44.4906 331.24 42.1205 330.34 41.3905 328.27C41.0772 327.004 41.1152 325.676 41.5005 324.43C43.0405 317.31 44.5773 310.183 46.1106 303.05L70.5405 334.39C71.2005 335.24 72.0306 336.17 73.1006 336.11C73.799 336.022 74.4347 335.663 74.8705 335.11C77.1905 332.53 77.1905 328.55 76.1205 325.25C75.0505 321.95 73.0706 319.02 71.7306 315.82C68.5906 308.34 69.0905 299.9 69.6505 291.82C72.0518 297.965 75.3437 303.723 79.4205 308.91C81.2105 311.19 89.6005 323.69 91.0005 326.23C91.5305 315.84 103.41 308.53 104 298.14C104.07 296.91 104.251 295.48 105.301 294.85C106.771 293.97 108.541 295.33 109.641 296.64C112.961 300.57 115.89 303.71 117.88 308.46L129.081 264.82C128.852 263.933 128.516 263.076 128.081 262.27C125.631 254.62 127.381 244.85 131.821 238.35C133.921 235.15 129.121 229.65 132.331 227.56C133.841 226.56 135.821 227.56 137.331 228.49L148.991 235.76C151.727 237.293 154.238 239.197 156.451 241.42C158.434 243.814 160.079 246.469 161.341 249.31L174.741 276.1C174.641 272.29 174.74 268.1 177.13 265.19C179.52 262.28 185.231 262.04 186.551 265.61C184.998 259.539 184.574 253.234 185.301 247.01C190.231 245.86 194.801 249.53 199.211 252.01C203.621 254.49 210.511 255.21 212.581 250.59C213.521 248.49 213.011 246.06 213.301 243.78C213.591 241.5 215.461 238.96 217.681 239.58C222.871 249.45 220.571 243.28 225.771 253.15C226.591 250.15 227.461 247 229.431 244.56C230.661 243.02 232.291 241.81 233.431 240.17C234.571 238.53 232.521 234.12 232.681 233.31C233.033 231.358 232.755 229.344 231.887 227.561C231.018 225.777 229.605 224.316 227.851 223.39C226.041 222.48 223.461 221.45 223.851 219.47C225.053 218.775 226.426 218.432 227.814 218.479C229.202 218.527 230.549 218.964 231.701 219.74C231.181 217.86 230.701 215.98 230.13 214.1C229.85 213.1 229.571 212.03 230.421 211.1C230.791 210.729 231.263 210.475 231.777 210.37C232.291 210.265 232.824 210.314 233.311 210.51C234.562 211.05 235.568 212.038 236.13 213.28C235.27 211.442 234.732 209.47 234.541 207.45C235.647 207.397 236.753 207.565 237.793 207.945C238.834 208.324 239.788 208.907 240.601 209.66L244.981 206.25C245.129 212.751 243.039 219.106 239.061 224.25C242.16 225.613 245.586 226.057 248.931 225.53C250.121 227.29 247.3 229.53 247.87 231.58C248.56 234.02 253.091 233.48 253.331 236.38C253.36 237.083 253.148 237.775 252.73 238.341C252.311 238.907 251.712 239.312 251.031 239.49L237.441 243.34C239.651 245 241.911 246.71 243.361 249.07C244.811 251.43 245.281 254.59 243.791 256.92C247.351 258.13 286.971 267.6 288.551 259.92C288.822 258.164 288.788 256.374 288.451 254.63C286.779 243.162 283.12 232.072 277.641 221.86C276.949 220.893 276.652 219.698 276.811 218.52C277.029 217.995 277.357 217.523 277.773 217.135C278.189 216.747 278.682 216.452 279.221 216.27C281.752 215.116 284.519 214.574 287.298 214.687C290.077 214.8 292.791 215.565 295.221 216.92C294.771 210.562 293.72 204.26 292.081 198.1C289.621 188.83 286.181 177.8 292.481 170.58C300.291 173.99 302.481 183.77 303.961 192.17C305.441 200.57 308.231 210.37 316.321 213.04C317.151 207.483 315.823 201.819 312.611 197.21C310.611 194.32 307.681 191.49 308.441 187.81C308.71 186.632 309.305 185.554 310.16 184.699C311.014 183.845 312.092 183.249 313.271 182.98C313.814 182.84 314.37 182.76 314.931 182.74C319.931 182.57 323.631 186.25 326.041 190.26C328.041 193.68 329.461 197.49 331.671 200.81C335.871 200.45 335.831 193.52 334.291 190.32C333.721 189.246 333.48 188.028 333.595 186.818C333.711 185.607 334.178 184.457 334.941 183.51C338.601 179.25 343.081 184.51 347.281 183.63C350.281 182.96 351.631 179.63 353.111 176.93C354.591 174.23 357.921 171.67 360.431 173.42C360.621 177.95 360.941 182.85 363.901 186.28C366.861 189.71 373.041 190.1 375.101 186.36C368.391 199.85 363.921 199.94 362.911 208.61C365.631 208.3 368.531 208.01 370.971 209.25C373.411 210.49 372.561 223.04 372.561 223.04C374.421 220.64 378.561 221.39 380.401 223.81C382.241 226.23 382.26 229.56 381.76 232.56C381.059 236.643 379.541 240.543 377.297 244.026C375.053 247.509 372.129 250.504 368.701 252.83C367.101 253.9 365.171 255.27 365.401 257.18C365.581 258.69 367.061 259.64 368.321 260.48C372.971 263.58 382.98 274.48 385.01 279.67C386.85 274.93 390.59 265.33 395.01 262.77C399.431 260.21 406.821 263.7 405.341 268.56C414.341 264.09 427.161 260.56 432.681 268.88C430.868 264.735 430.272 260.161 430.961 255.69C436.022 256.154 440.851 258.03 444.898 261.104C448.945 264.179 452.047 268.328 453.851 273.08C456.851 281.46 457.641 293.38 466.401 294.99C473.641 296.32 479.041 288.7 482.401 282.16L483.63 309.38C483.701 311.04 483.87 312.89 485.12 313.97C486.37 315.05 487.8 314.97 489.25 314.97C493.804 314.923 498.347 314.667 502.88 314.2C506.1 322.99 496.821 331.53 496.361 340.88C496.001 348.24 501.09 354.57 505.12 360.76C509.15 366.95 512.13 375.33 508.01 381.45Z" fill="url(#paint57_linear)" fill-opacity="0.19" stroke="url(#paint58_linear)" stroke-width="2" stroke-linecap="round" stroke-linejoin="round"/>
<path d="M299.871 345.93C299.536 343.986 298.786 342.137 297.671 340.51C296.923 339.677 296.416 338.658 296.201 337.56C296.101 335.73 297.961 334.41 299.711 333.88C302.521 333.112 305.511 333.342 308.171 334.531C310.832 335.72 312.998 337.794 314.301 340.4C314.671 336.4 312.211 330.76 307.751 329.04C311.981 323.46 315.691 327.72 321.261 331.95C324.551 334.44 325.411 338.31 329.141 340.08C332.871 341.85 338.841 338.63 337.041 334.92C339.671 337.56 347.301 340.69 349.921 343.33C348.939 341.853 348.427 340.113 348.452 338.34C348.476 336.566 349.036 334.842 350.057 333.392C351.079 331.942 352.515 330.835 354.177 330.215C355.839 329.596 357.649 329.493 359.371 329.92C359.136 328.076 358.294 326.362 356.978 325.049C355.661 323.737 353.946 322.9 352.101 322.67C356.931 322.67 362.431 322.91 365.521 326.67C367.521 329.06 368.001 332.4 369.831 334.92C371.661 337.44 376.211 338.5 377.521 335.67C378.701 334.13 378.441 331.98 378.521 330.04C378.601 328.1 379.401 325.76 381.321 325.46C382.821 325.22 384.161 326.37 385.241 327.46L393.551 335.64C393.831 330.73 397.021 325.64 401.881 324.81C406.741 323.98 413.881 334.71 415.131 338.81C417.445 332.143 418.487 325.101 418.201 318.05C422.769 320.733 426.379 324.784 428.521 329.63C429.438 328.036 429.899 326.219 429.851 324.38C430.991 327.99 432.151 331.73 431.761 335.5" stroke="url(#paint59_linear)" stroke-width="2" stroke-linecap="round" stroke-linejoin="round"/>
<path d="M145.78 381.64C145.78 381.64 135.78 349.76 166.45 353.64C166.3 345.24 163.6 333.88 156.12 330.07C157.803 329.209 159.74 328.983 161.576 329.433C163.413 329.883 165.025 330.979 166.12 332.52C166.88 329.58 171.67 331.52 172.59 334.45C173.51 337.38 173.42 341.11 176.09 342.56C178.76 344.01 182.38 340.89 181.41 338.07C182.452 338.473 183.394 339.098 184.171 339.901C184.948 340.704 185.541 341.666 185.91 342.72C186.913 340.289 188.464 338.122 190.441 336.387C192.418 334.653 194.769 333.398 197.31 332.72C193.014 323.388 189.955 313.535 188.21 303.41C198.21 304.11 204.85 317.13 199.61 325.63C200.106 326.167 200.718 326.584 201.399 326.848C202.081 327.112 202.813 327.218 203.542 327.156C204.27 327.094 204.974 326.867 205.602 326.492C206.229 326.116 206.762 325.603 207.16 324.99C207.482 325.186 207.762 325.445 207.981 325.751C208.201 326.057 208.357 326.405 208.439 326.773C208.521 327.141 208.528 327.521 208.46 327.892C208.391 328.263 208.248 328.616 208.04 328.93C209.542 328.587 210.896 327.773 211.903 326.607C212.91 325.441 213.518 323.983 213.639 322.447C213.759 320.911 213.386 319.376 212.573 318.067C211.76 316.758 210.55 315.743 209.12 315.17C210.077 314.551 211.162 314.158 212.294 314.021C213.425 313.884 214.573 314.007 215.65 314.38C215.33 310.55 212.82 307.28 211.76 303.59C210.7 299.9 212.13 294.77 215.96 294.45L214.83 291.07C217.38 289.48 220.83 291.74 221.83 294.58C222.83 297.42 222.2 300.58 222.04 303.58C221.88 306.58 222.41 310.01 224.89 311.72C226.346 310.963 227.526 309.765 228.262 308.299C228.999 306.832 229.253 305.17 228.99 303.55L230.59 307.26L238.43 293.13C239.808 294.544 241.477 295.643 243.32 296.35" stroke="url(#paint60_linear)" stroke-width="2" stroke-linecap="round" stroke-linejoin="round"/>
<path d="M559.51 254.92C560.15 253.77 567.42 250.85 568.51 250.03C570.17 248.894 571.602 247.455 572.73 245.79C573.282 244.95 573.591 243.975 573.622 242.97C573.654 241.966 573.408 240.973 572.91 240.1C572.371 239.514 571.941 238.837 571.64 238.1C571.24 236.36 573.37 235.2 575.11 234.76C578.292 233.949 581.527 233.361 584.79 233C585.338 233.004 585.871 232.821 586.3 232.48C586.641 232.031 586.805 231.472 586.76 230.91C587.006 228.709 586.839 226.481 586.27 224.34C585.971 223.272 585.385 222.307 584.576 221.549C583.767 220.791 582.765 220.269 581.68 220.04C579.29 219.72 576.62 221.29 574.61 219.96C573.89 219.395 573.317 218.664 572.94 217.83L567.81 208.57C567.511 207.886 567.017 207.306 566.39 206.9C564.82 206.11 563.08 207.78 562.49 209.43C561.9 211.08 561.72 213.05 560.37 214.17C558.8 215.47 556.3 215.07 554.74 216.38C552.4 218.38 553.97 222.2 553.21 225.18C552.75 226.98 551.36 228.62 551.61 230.46C551.77 231.325 552.111 232.146 552.61 232.87C556.31 238.85 560.88 252.44 559.51 254.92Z" fill="url(#paint61_linear)" fill-opacity="0.19" stroke="url(#paint62_linear)" stroke-width="2" stroke-linecap="round" stroke-linejoin="round"/>
<defs>
<linearGradient id="paint0_linear" x1="339.5" y1="63" x2="339.5" y2="453" gradientUnits="userSpaceOnUse">
<stop stop-color="#303BB1"/>
<stop offset="0.847635" stop-color="#325FF8" stop-opacity="0.85"/>
</linearGradient>
<linearGradient id="paint1_linear" x1="72.0651" y1="117.391" x2="72.0651" y2="336.403" gradientUnits="userSpaceOnUse">
<stop stop-color="white"/>
<stop offset="1" stop-color="#8991FF" stop-opacity="0"/>
</linearGradient>
<linearGradient id="paint2_linear" x1="72.0651" y1="117.391" x2="72.0651" y2="336.403" gradientUnits="userSpaceOnUse">
<stop stop-color="#8991FF"/>
<stop offset="1" stop-color="white" stop-opacity="0"/>
</linearGradient>
<linearGradient id="paint3_linear" x1="393.667" y1="1.96997" x2="393.667" y2="280.08" gradientUnits="userSpaceOnUse">
<stop stop-color="white"/>
<stop offset="1" stop-color="#8991FF" stop-opacity="0"/>
</linearGradient>
<linearGradient id="paint4_linear" x1="393.667" y1="1.96997" x2="393.667" y2="280.08" gradientUnits="userSpaceOnUse">
<stop stop-color="#8991FF"/>
<stop offset="1" stop-color="white" stop-opacity="0"/>
</linearGradient>
<linearGradient id="paint5_linear" x1="622.856" y1="244.22" x2="622.856" y2="284.868" gradientUnits="userSpaceOnUse">
<stop stop-color="white"/>
<stop offset="1" stop-color="#8991FF" stop-opacity="0"/>
</linearGradient>
<linearGradient id="paint6_linear" x1="622.856" y1="244.22" x2="622.856" y2="284.868" gradientUnits="userSpaceOnUse">
<stop stop-color="#8991FF"/>
<stop offset="1" stop-color="white" stop-opacity="0"/>
</linearGradient>
<linearGradient id="paint7_linear" x1="633.353" y1="320.06" x2="633.353" y2="401.66" gradientUnits="userSpaceOnUse">
<stop stop-color="#8991FF"/>
<stop offset="1" stop-color="white" stop-opacity="0"/>
</linearGradient>
<linearGradient id="paint8_linear" x1="628.995" y1="364.591" x2="628.995" y2="401.66" gradientUnits="userSpaceOnUse">
<stop stop-color="white"/>
<stop offset="1" stop-color="#8991FF" stop-opacity="0"/>
</linearGradient>
<linearGradient id="paint9_linear" x1="628.995" y1="364.591" x2="628.995" y2="401.66" gradientUnits="userSpaceOnUse">
<stop stop-color="#8991FF"/>
<stop offset="1" stop-color="white" stop-opacity="0"/>
</linearGradient>
<linearGradient id="paint10_linear" x1="622.19" y1="244.26" x2="622.19" y2="308.59" gradientUnits="userSpaceOnUse">
<stop stop-color="#8991FF"/>
<stop offset="1" stop-color="white" stop-opacity="0"/>
</linearGradient>
<linearGradient id="paint11_linear" x1="653.195" y1="299.005" x2="653.195" y2="324.782" gradientUnits="userSpaceOnUse">
<stop stop-color="white"/>
<stop offset="1" stop-color="#8991FF" stop-opacity="0"/>
</linearGradient>
<linearGradient id="paint12_linear" x1="653.195" y1="299.005" x2="653.195" y2="324.782" gradientUnits="userSpaceOnUse">
<stop stop-color="#8991FF"/>
<stop offset="1" stop-color="white" stop-opacity="0"/>
</linearGradient>
<linearGradient id="paint13_linear" x1="653.195" y1="311.51" x2="653.195" y2="320.06" gradientUnits="userSpaceOnUse">
<stop stop-color="#8991FF"/>
<stop offset="1" stop-color="white" stop-opacity="0"/>
</linearGradient>
<linearGradient id="paint14_linear" x1="161.825" y1="91.65" x2="161.825" y2="227.76" gradientUnits="userSpaceOnUse">
<stop stop-color="white"/>
<stop offset="1" stop-color="#8991FF" stop-opacity="0"/>
</linearGradient>
<linearGradient id="paint15_linear" x1="161.825" y1="91.65" x2="161.825" y2="227.76" gradientUnits="userSpaceOnUse">
<stop stop-color="#8991FF"/>
<stop offset="1" stop-color="white" stop-opacity="0"/>
</linearGradient>
<linearGradient id="paint16_linear" x1="146.819" y1="91.48" x2="146.819" y2="169.67" gradientUnits="userSpaceOnUse">
<stop stop-color="white"/>
<stop offset="1" stop-color="#8991FF" stop-opacity="0"/>
</linearGradient>
<linearGradient id="paint17_linear" x1="146.819" y1="91.48" x2="146.819" y2="169.67" gradientUnits="userSpaceOnUse">
<stop stop-color="#8991FF"/>
<stop offset="1" stop-color="white" stop-opacity="0"/>
</linearGradient>
<linearGradient id="paint18_linear" x1="131.495" y1="91.84" x2="131.495" y2="156.4" gradientUnits="userSpaceOnUse">
<stop stop-color="white"/>
<stop offset="1" stop-color="#8991FF" stop-opacity="0"/>
</linearGradient>
<linearGradient id="paint19_linear" x1="131.495" y1="91.84" x2="131.495" y2="156.4" gradientUnits="userSpaceOnUse">
<stop stop-color="#8991FF"/>
<stop offset="1" stop-color="white" stop-opacity="0"/>
</linearGradient>
<linearGradient id="paint20_linear" x1="185.26" y1="131.4" x2="185.26" y2="234.11" gradientUnits="userSpaceOnUse">
<stop stop-color="white"/>
<stop offset="1" stop-color="#8991FF" stop-opacity="0"/>
</linearGradient>
<linearGradient id="paint21_linear" x1="185.26" y1="131.4" x2="185.26" y2="234.11" gradientUnits="userSpaceOnUse">
<stop stop-color="#8991FF"/>
<stop offset="1" stop-color="white" stop-opacity="0"/>
</linearGradient>
<linearGradient id="paint22_linear" x1="195.086" y1="59.2" x2="195.086" y2="130.57" gradientUnits="userSpaceOnUse">
<stop stop-color="white"/>
<stop offset="1" stop-color="#8991FF" stop-opacity="0"/>
</linearGradient>
<linearGradient id="paint23_linear" x1="195.086" y1="59.2" x2="195.086" y2="130.57" gradientUnits="userSpaceOnUse">
<stop stop-color="#8991FF"/>
<stop offset="1" stop-color="white" stop-opacity="0"/>
</linearGradient>
<linearGradient id="paint24_linear" x1="216.066" y1="82.64" x2="216.066" y2="165.64" gradientUnits="userSpaceOnUse">
<stop stop-color="white"/>
<stop offset="1" stop-color="#8991FF" stop-opacity="0"/>
</linearGradient>
<linearGradient id="paint25_linear" x1="216.066" y1="82.64" x2="216.066" y2="165.64" gradientUnits="userSpaceOnUse">
<stop stop-color="#8991FF"/>
<stop offset="1" stop-color="white" stop-opacity="0"/>
</linearGradient>
<linearGradient id="paint26_linear" x1="203.101" y1="148.56" x2="203.101" y2="212.08" gradientUnits="userSpaceOnUse">
<stop stop-color="white"/>
<stop offset="1" stop-color="#8991FF" stop-opacity="0"/>
</linearGradient>
<linearGradient id="paint27_linear" x1="203.101" y1="148.56" x2="203.101" y2="212.08" gradientUnits="userSpaceOnUse">
<stop stop-color="#8991FF"/>
<stop offset="1" stop-color="white" stop-opacity="0"/>
</linearGradient>
<linearGradient id="paint28_linear" x1="231.052" y1="117.49" x2="231.052" y2="193.49" gradientUnits="userSpaceOnUse">
<stop stop-color="white"/>
<stop offset="1" stop-color="#8991FF" stop-opacity="0"/>
</linearGradient>
<linearGradient id="paint29_linear" x1="231.052" y1="117.49" x2="231.052" y2="193.49" gradientUnits="userSpaceOnUse">
<stop stop-color="#8991FF"/>
<stop offset="1" stop-color="white" stop-opacity="0"/>
</linearGradient>
<linearGradient id="paint30_linear" x1="245.522" y1="44.3099" x2="245.522" y2="173.57" gradientUnits="userSpaceOnUse">
<stop stop-color="white"/>
<stop offset="1" stop-color="#8991FF" stop-opacity="0"/>
</linearGradient>
<linearGradient id="paint31_linear" x1="245.522" y1="44.3099" x2="245.522" y2="173.57" gradientUnits="userSpaceOnUse">
<stop stop-color="#8991FF"/>
<stop offset="1" stop-color="white" stop-opacity="0"/>
</linearGradient>
<linearGradient id="paint32_linear" x1="262.507" y1="136.18" x2="262.507" y2="207.41" gradientUnits="userSpaceOnUse">
<stop stop-color="white"/>
<stop offset="1" stop-color="#8991FF" stop-opacity="0"/>
</linearGradient>
<linearGradient id="paint33_linear" x1="262.507" y1="136.18" x2="262.507" y2="207.41" gradientUnits="userSpaceOnUse">
<stop stop-color="#8991FF"/>
<stop offset="1" stop-color="white" stop-opacity="0"/>
</linearGradient>
<linearGradient id="paint34_linear" x1="276.236" y1="54.0699" x2="276.236" y2="158" gradientUnits="userSpaceOnUse">
<stop stop-color="white"/>
<stop offset="1" stop-color="#8991FF" stop-opacity="0"/>
</linearGradient>
<linearGradient id="paint35_linear" x1="276.236" y1="54.0699" x2="276.236" y2="158" gradientUnits="userSpaceOnUse">
<stop stop-color="#8991FF"/>
<stop offset="1" stop-color="white" stop-opacity="0"/>
</linearGradient>
<linearGradient id="paint36_linear" x1="294.951" y1="66.83" x2="294.951" y2="159.71" gradientUnits="userSpaceOnUse">
<stop stop-color="white"/>
<stop offset="1" stop-color="#8991FF" stop-opacity="0"/>
</linearGradient>
<linearGradient id="paint37_linear" x1="294.951" y1="66.83" x2="294.951" y2="159.71" gradientUnits="userSpaceOnUse">
<stop stop-color="#8991FF"/>
<stop offset="1" stop-color="white" stop-opacity="0"/>
</linearGradient>
<linearGradient id="paint38_linear" x1="128.86" y1="262.56" x2="128.86" y2="265.11" gradientUnits="userSpaceOnUse">
<stop stop-color="white"/>
<stop offset="1" stop-color="#8991FF" stop-opacity="0"/>
</linearGradient>
<linearGradient id="paint39_linear" x1="128.86" y1="262.56" x2="128.86" y2="265.11" gradientUnits="userSpaceOnUse">
<stop stop-color="#8991FF"/>
<stop offset="1" stop-color="white" stop-opacity="0"/>
</linearGradient>
<linearGradient id="paint40_linear" x1="554.465" y1="301.27" x2="554.465" y2="387.85" gradientUnits="userSpaceOnUse">
<stop stop-color="#8991FF"/>
<stop offset="1" stop-color="white" stop-opacity="0"/>
</linearGradient>
<linearGradient id="paint41_linear" x1="569.175" y1="79.79" x2="569.175" y2="301.32" gradientUnits="userSpaceOnUse">
<stop stop-color="white"/>
<stop offset="1" stop-color="#8991FF" stop-opacity="0"/>
</linearGradient>
<linearGradient id="paint42_linear" x1="569.175" y1="79.79" x2="569.175" y2="301.32" gradientUnits="userSpaceOnUse">
<stop stop-color="#8991FF"/>
<stop offset="1" stop-color="white" stop-opacity="0"/>
</linearGradient>
<linearGradient id="paint43_linear" x1="587.085" y1="276.571" x2="587.085" y2="301.27" gradientUnits="userSpaceOnUse">
<stop stop-color="white"/>
<stop offset="1" stop-color="#8991FF" stop-opacity="0"/>
</linearGradient>
<linearGradient id="paint44_linear" x1="587.085" y1="276.571" x2="587.085" y2="301.27" gradientUnits="userSpaceOnUse">
<stop stop-color="#8991FF"/>
<stop offset="1" stop-color="white" stop-opacity="0"/>
</linearGradient>
<linearGradient id="paint45_linear" x1="523.548" y1="300.515" x2="523.548" y2="334.83" gradientUnits="userSpaceOnUse">
<stop stop-color="white"/>
<stop offset="1" stop-color="#8991FF" stop-opacity="0"/>
</linearGradient>
<linearGradient id="paint46_linear" x1="523.548" y1="300.515" x2="523.548" y2="334.83" gradientUnits="userSpaceOnUse">
<stop stop-color="#8991FF"/>
<stop offset="1" stop-color="white" stop-opacity="0"/>
</linearGradient>
<linearGradient id="paint47_linear" x1="546.115" y1="290.172" x2="546.115" y2="306.396" gradientUnits="userSpaceOnUse">
<stop stop-color="white"/>
<stop offset="1" stop-color="#8991FF" stop-opacity="0"/>
</linearGradient>
<linearGradient id="paint48_linear" x1="546.115" y1="290.172" x2="546.115" y2="306.396" gradientUnits="userSpaceOnUse">
<stop stop-color="#8991FF"/>
<stop offset="1" stop-color="white" stop-opacity="0"/>
</linearGradient>
<linearGradient id="paint49_linear" x1="520.928" y1="337.154" x2="520.928" y2="374.969" gradientUnits="userSpaceOnUse">
<stop stop-color="white"/>
<stop offset="1" stop-color="#8991FF" stop-opacity="0"/>
</linearGradient>
<linearGradient id="paint50_linear" x1="520.928" y1="337.154" x2="520.928" y2="374.969" gradientUnits="userSpaceOnUse">
<stop stop-color="#8991FF"/>
<stop offset="1" stop-color="white" stop-opacity="0"/>
</linearGradient>
<linearGradient id="paint51_linear" x1="588.366" y1="303.738" x2="588.366" y2="358.168" gradientUnits="userSpaceOnUse">
<stop stop-color="white"/>
<stop offset="1" stop-color="#8991FF" stop-opacity="0"/>
</linearGradient>
<linearGradient id="paint52_linear" x1="588.366" y1="303.738" x2="588.366" y2="358.168" gradientUnits="userSpaceOnUse">
<stop stop-color="#8991FF"/>
<stop offset="1" stop-color="white" stop-opacity="0"/>
</linearGradient>
<linearGradient id="paint53_linear" x1="561.98" y1="254.92" x2="561.98" y2="300.51" gradientUnits="userSpaceOnUse">
<stop stop-color="#8991FF"/>
<stop offset="1" stop-color="white" stop-opacity="0"/>
</linearGradient>
<linearGradient id="paint54_linear" x1="552.83" y1="147.234" x2="552.83" y2="300.55" gradientUnits="userSpaceOnUse">
<stop stop-color="#8991FF"/>
<stop offset="1" stop-color="white" stop-opacity="0"/>
</linearGradient>
<linearGradient id="paint55_linear" x1="535.831" y1="147.4" x2="535.831" y2="174.271" gradientUnits="userSpaceOnUse">
<stop stop-color="white"/>
<stop offset="1" stop-color="#8991FF" stop-opacity="0"/>
</linearGradient>
<linearGradient id="paint56_linear" x1="535.831" y1="147.4" x2="535.831" y2="174.271" gradientUnits="userSpaceOnUse">
<stop stop-color="#8991FF"/>
<stop offset="1" stop-color="white" stop-opacity="0"/>
</linearGradient>
<linearGradient id="paint57_linear" x1="264.669" y1="170.58" x2="264.669" y2="417.676" gradientUnits="userSpaceOnUse">
<stop stop-color="white"/>
<stop offset="1" stop-color="#8991FF" stop-opacity="0"/>
</linearGradient>
<linearGradient id="paint58_linear" x1="264.669" y1="170.58" x2="264.669" y2="417.676" gradientUnits="userSpaceOnUse">
<stop stop-color="#8991FF"/>
<stop offset="1" stop-color="white" stop-opacity="0"/>
</linearGradient>
<linearGradient id="paint59_linear" x1="364.017" y1="318.05" x2="364.017" y2="345.93" gradientUnits="userSpaceOnUse">
<stop stop-color="#8991FF"/>
<stop offset="1" stop-color="white" stop-opacity="0"/>
</linearGradient>
<linearGradient id="paint60_linear" x1="193.771" y1="290.544" x2="193.771" y2="381.64" gradientUnits="userSpaceOnUse">
<stop stop-color="#8991FF"/>
<stop offset="1" stop-color="white" stop-opacity="0"/>
</linearGradient>
<linearGradient id="paint61_linear" x1="569.225" y1="206.698" x2="569.225" y2="254.92" gradientUnits="userSpaceOnUse">
<stop stop-color="white"/>
<stop offset="1" stop-color="#8991FF" stop-opacity="0"/>
</linearGradient>
<linearGradient id="paint62_linear" x1="569.225" y1="206.698" x2="569.225" y2="254.92" gradientUnits="userSpaceOnUse">
<stop stop-color="#8991FF"/>
<stop offset="1" stop-color="white" stop-opacity="0"/>
</linearGradient>
</defs>
</svg>
