<svg width="1920" height="793" viewBox="0 0 1920 793" fill="none" xmlns="http://www.w3.org/2000/svg">
<path d="M773.11 27.8758L753.5 57.9927C752.832 66.4261 749.971 74.5493 745.19 81.583C742.217 79.5096 738.591 78.5444 734.96 78.8603L734.14 86.9301C719.71 91.7956 704.33 83.9814 691.14 76.4325C694.14 72.6482 694.45 64.4211 689.77 65.7776C692.23 62.6519 691.77 53.8546 689 52.5965C691.17 52.3464 693.156 51.2761 694.537 49.6121C695.918 47.9481 696.586 45.821 696.4 43.6813C683.54 31.8861 652.92 26.3818 627.4 56.2726C626.265 55.8959 625.058 55.7824 623.871 55.941C622.684 56.0996 621.551 56.526 620.56 57.1868C620.999 59.6277 620.824 62.1371 620.05 64.4962C619.276 66.8554 617.927 68.9926 616.12 70.7216C603.323 69.8673 590.516 72.2355 578.91 77.6021C569.961 81.7392 560.19 83.8743 550.3 83.8536C531.66 85.4361 513.19 108.427 515.88 113.508C511.7 113.067 507.494 114.077 503.993 116.364C500.491 118.652 497.914 122.072 496.71 126.031C490.54 124.403 484.094 124.056 477.78 125.013C471.467 125.969 465.425 128.207 460.04 131.585C461.12 130.896 449.3 121.067 448.18 120.369C441.77 116.379 441.65 119.2 435.29 120.369C435.092 120.427 434.883 120.44 434.678 120.408C434.474 120.376 434.28 120.299 434.11 120.183C433.856 119.913 433.704 119.566 433.68 119.2C432.92 114.619 426.5 108.289 423.68 107.562C420.86 106.834 418.68 104.731 416.56 102.726L404.81 91.3435C400.47 87.1464 395.2 82.6151 389.16 83.3916C387.47 83.598 385.35 84.0698 384.4 82.6839C383.83 81.8484 384.03 80.718 384.01 79.7351C384.01 76.7863 381.74 74.1225 379.07 72.6875C369.07 67.3207 355.02 64.8241 343.96 62.0227C344.19 56.1252 335.9 54.0315 329.96 55.1422C325.12 56.017 316.69 58.5432 313.22 53.6678C314.16 53.3533 315.14 52.4589 314.78 51.3481C314.552 50.8226 314.165 50.3791 313.671 50.0782C313.177 49.7773 312.6 49.6338 312.02 49.6674C310.866 49.7448 309.737 50.0314 308.69 50.5127C298.51 54.3166 270.32 57.8748 269.41 58.612C270.22 55.6632 267.19 52.2525 263.93 53.1371C260.19 54.1201 258.15 57.9632 255.52 60.7645C252.923 63.4288 249.584 65.2801 245.921 66.0862C242.258 66.8923 238.435 66.6174 234.93 65.296L215.28 82.9887C216.87 81.4848 214.43 78.9487 212.23 78.8504C210.03 78.7522 207.56 79.5385 205.77 78.2706C203.98 77.0026 199.85 76.3047 196.02 76.9436C190.02 77.9266 183.58 78.9094 178.02 76.3735C174.449 80.1743 170.454 83.5672 166.11 86.4878C165.842 83.8256 164.796 81.2962 163.101 79.2038C161.405 77.1114 159.13 75.5449 156.55 74.6927L151.25 80.2561L144.48 70.8592L130.5 72.7367C132.5 73.582 134.44 70.7708 133.67 68.805C132.9 66.8391 130.75 65.7186 128.77 64.8732L108.1 55.5059C105.6 54.3755 82.69 49.6083 84.47 53.5401C80.3518 49.2539 75.0469 46.247 69.21 44.8904C62.201 47.1391 55.604 50.4775 49.67 54.7786C51.67 52.7439 49.67 49.0383 46.95 48.2716C44.23 47.5049 41.29 48.6746 38.67 49.8148L17.24 58.9757C15.89 56.7444 4.87 58.9757 0.61 56.312L0 58.6415V789.291C65.44 791.355 138.87 787.109 216.72 789.291C345.92 792.898 487.3 785.988 624.59 789.291C970.94 797.636 1101.17 789.291 1268 789.291C1341.89 789.291 1385.12 789.291 1487.17 789.291C1674.73 790.598 1731.1 789.183 1920 789.291V17.447L1919.27 18.5872C1917.59 19.7471 1915.99 21.4376 1913.94 21.3492C1908.94 21.1133 1907.27 10.8712 1902.78 13.1417C1901.25 14.7393 1900.1 16.6499 1899.4 18.7367C1898.71 20.8235 1898.5 23.0348 1898.78 25.2121C1894.78 25.969 1892.65 31.5324 1895.23 34.6876C1891.89 31.6208 1886.7 34.6875 1882.63 36.7123C1878.62 38.6832 1874.16 39.6164 1869.68 39.4238C1865.21 39.2312 1860.85 37.9191 1857.03 35.6115C1855.43 31.9156 1856.63 21.2804 1858.03 17.2111C1862.17 15.5204 1841.43 -0.147415 1825.82 0.638927C1822 0.825683 1817.43 1.86759 1816.21 5.43562L1811.41 6.41855C1812.06 10.7631 1811.99 16.4444 1807.83 18.0662C1806.49 18.5872 1804.96 18.5184 1803.62 19.0491C1796.44 21.9979 1802.49 36.8205 1794.92 38.6291C1793.62 36.4863 1789.26 38.7274 1789.34 41.0569C1785.74 41.9612 1781.8 45.2245 1783.43 45.9716C1781.23 48.027 1778.63 49.6286 1775.79 50.682C1772.95 51.7354 1769.92 52.2192 1766.89 52.105L1765.01 44.5365C1759.42 46.5024 1753.55 48.5567 1749.71 52.9897C1748.9 54.1562 1747.88 55.174 1746.71 55.9974C1743.55 57.7568 1739.78 55.388 1736.25 54.5427C1732.72 53.6973 1727.72 57.2064 1730.18 59.8407L1708.57 72.2058L1690.5 82.5659C1687.61 82.2514 1684.99 84.119 1682.7 85.8882L1671.22 94.7346C1668.88 96.5432 1666.37 98.4305 1663.4 98.7155C1660.43 99.0005 1657.05 96.897 1657.17 93.9777C1655.44 92.061 1652.08 93.211 1650.42 95.1867C1648.76 97.1624 1647.96 99.7574 1646.09 101.536C1640.9 106.52 1632.34 102.215 1626.61 97.8505L1622.45 94.6854C1618.58 91.7366 1604.21 86.3699 1601.7 83.0377C1599.19 79.7056 1597.96 75.253 1594.41 73.0316C1590.19 76.9633 1581.81 72.4123 1582.87 66.8194C1576.87 66.5639 1572.02 59.939 1573.72 54.238L1560.5 52.6849C1559.91 44.5463 1551.27 37.941 1543.08 39.2974C1537.97 33.6432 1531.41 29.4408 1524.08 27.1288C1521.91 29.6058 1518.17 25.7822 1517.79 22.5288C1517.41 19.2753 1516.79 14.8324 1513.49 14.6161C1507.43 14.2328 1511.09 27.0501 1505.29 28.8391C1503.39 29.4288 1501.41 28.3673 1499.7 27.3548C1495.44 24.8091 1487.17 22.0962 1487.17 22.0962C1484.7 20.5539 1481.81 19.7881 1478.88 19.9005C1475.95 20.0128 1473.13 20.9981 1470.79 22.7253L1469.6 12.2374C1461.84 13.2025 1454.41 15.9319 1447.91 20.2091C1447.89 21.9826 1447.4 23.7202 1446.48 25.2472C1445.56 26.7741 1444.25 28.0367 1442.68 28.9079C1441.8 22.3125 1431.29 19.7372 1427.37 25.1531L1428.96 32.1614L1397.05 42.6197C1399.43 44.3988 1396.91 48.4289 1393.93 48.7926C1390.95 49.1562 1388.1 47.6229 1385.12 47.3182C1378.12 46.6006 1372.46 52.3998 1365.97 54.9849C1359.48 57.57 1349.1 52.4982 1352.49 46.4827C1350.64 45.6528 1348.54 45.5123 1346.59 46.0872C1344.64 46.6622 1342.97 47.9134 1341.89 49.6083C1339.4 48.1831 1325.54 48.9891 1319.84 46.4237C1319.75 44.3497 1303.89 34.953 1304.91 27.4532C1303.08 29.1947 1300.9 30.5288 1298.5 31.365C1296.1 32.2012 1293.55 32.5198 1291.01 32.299C1279.37 20.1221 1263.28 12.9817 1246.29 12.4439C1241.29 12.3063 1235.06 13.6529 1233.75 18.4201C1231.82 17.0734 1232.75 13.8396 1230.91 12.3554C1222.46 5.47486 1209.91 18.3414 1199.36 21.3393C1194.43 22.7449 1191.92 17.4666 1186.79 17.4076C1183.15 17.329 1184.17 24.2882 1180.79 25.7134C1176.48 21.5753 1168.61 19.8158 1167 21.8898C1165.39 23.9638 1162 22.8727 1159.69 21.5949C1156.69 19.9534 1154.02 15.6973 1150.69 16.6803C1145.75 18.0858 1141.69 22.8039 1137.39 20.1107C1139.67 16.6606 1136.27 11.2644 1132.1 11.6969C1131.73 13.0654 1130.94 14.2887 1129.84 15.1999C1128.74 16.1111 1127.37 16.6657 1125.94 16.7884C1124 13.7511 1126.68 8.92494 1123.94 6.46762C1118.19 1.34657 1108.88 10.193 1101.17 11.1071C1101.37 10.1548 1101.37 9.17189 1101.17 8.22014C1100.96 7.2684 1100.56 6.36819 1099.99 5.57588C1099.41 4.78358 1098.68 4.11621 1097.83 3.61555C1096.98 3.11489 1096.04 2.79169 1095.06 2.66622C1094.08 2.54074 1093.08 2.61573 1092.13 2.88639C1091.18 3.15705 1090.29 3.61762 1089.53 4.23924C1088.77 4.86086 1088.15 5.6302 1087.71 6.49906C1087.26 7.36792 1087 8.31751 1086.95 9.28862C1085.39 7.2883 1083.12 5.94525 1080.59 5.53113C1078.06 5.11701 1075.46 5.66285 1073.33 7.0582C1071.19 8.45354 1069.68 10.594 1069.09 13.0466C1068.5 15.4991 1068.88 18.0805 1070.15 20.268C1069.11 19.5216 1067.92 18.997 1066.66 18.7277C1065.39 18.4584 1064.09 18.4502 1062.83 18.7037C1061.56 18.9572 1060.36 19.467 1059.31 20.2003C1058.26 20.9336 1057.37 21.8745 1056.71 22.963C1056.05 24.0515 1055.62 25.2636 1055.46 26.5223C1055.3 27.7809 1055.41 29.0584 1055.78 30.2734C1056.16 31.4883 1056.78 32.614 1057.62 33.5788C1058.45 34.5435 1059.49 35.3262 1060.65 35.8769C1049.03 35.5918 1040.85 21.015 1029.35 22.7155C1024.69 23.4035 1022.3 29.3503 1017.61 28.8981C1020.28 28.4951 1018.61 24.3373 1016.25 23.0005C1009.67 19.3539 999.44 19.9141 996.65 26.8143L985.76 22.7253C985.356 24.1905 984.601 25.5391 983.556 26.6577C982.512 27.7763 981.21 28.6323 979.76 29.1537C979.317 27.7497 978.471 26.5015 977.323 25.5597C976.175 24.6179 974.774 24.0227 973.29 23.8458C974.96 20.9855 975.89 14.2918 972.54 14.5572C966.71 15.0094 965.94 13.7315 961.62 9.84896C957.62 6.2711 951.01 12.2865 945.79 10.9989L930.42 0L904.33 5.89757C896.058 1.56606 886.491 0.256594 877.33 2.20175L855.33 6.19249C847.86 1.03212 836.01 3.97098 831.92 11.9917C827.92 8.66938 821.24 3.86291 817.47 7.37196C814.89 9.78013 813.7 13.702 810.14 13.7315L807.2 7.01812C794.26 -0.992742 774.2 10.134 774.54 25.1629" fill="url(#paint0_linear)"/>
<defs>
<linearGradient id="paint0_linear" x1="60" y1="192.681" x2="1920" y2="192.681" gradientUnits="userSpaceOnUse">
<stop stop-color="#303BB1"/>
<stop offset="0.475269" stop-color="#303BB1" stop-opacity="0.1"/>
<stop offset="1" stop-color="#303BB1"/>
</linearGradient>
</defs>
</svg>
