<svg width="173" height="45" viewBox="0 0 173 45" fill="none" xmlns="http://www.w3.org/2000/svg">
<g clip-path="url(#clip0)">
<path d="M43.74 6.67997L45.5457 7.00021L47.386 7.35507C48.1204 5.76252 48.6907 4.43827 49.114 3.4083C49.4396 2.67283 49.6718 1.89937 49.8052 1.10602C49.8052 0.880985 50.0817 0.785778 50.5569 0.829054C51.0887 0.884466 51.5959 1.08173 52.0257 1.4003C52.5679 1.80603 52.9916 2.35001 53.2526 2.97554C53.5697 3.82983 53.588 4.76664 53.3044 5.63269C53.1576 6.2299 53.028 6.69728 52.9329 7.03483C52.8239 7.38445 52.697 7.72822 52.5528 8.0648C54.109 8.19261 55.6749 8.13742 57.2184 7.90035C58.7932 7.64342 60.2954 7.05331 61.6248 6.16931C61.7769 6.04295 61.9721 5.98086 62.1691 5.99621C62.2266 6.01701 62.2756 6.05633 62.3084 6.10801C62.3413 6.1597 62.3561 6.22082 62.3505 6.28183C62.3655 6.45094 62.3479 6.62137 62.2987 6.78383C62.2585 6.94809 62.1944 7.10556 62.1086 7.25121C61.459 8.33329 60.523 9.21404 59.4043 9.79584C58.4368 10.2433 57.3854 10.4793 56.3198 10.4883C55.1862 10.4925 54.0557 10.3677 52.9502 10.1161C51.7838 9.85643 50.6088 9.62274 49.4337 9.42367C49.7793 9.54484 50.1854 9.67467 50.652 9.81315L51.5764 10.0988C50.9457 11.2932 50.2459 12.6953 49.4683 14.3398C48.6907 15.9843 47.8958 17.6374 47.1009 19.3425C46.8677 19.8618 46.5998 20.5456 46.2888 21.3938C45.9777 22.242 45.6926 23.1248 45.4248 23.9904C45.1569 24.8559 44.9755 25.6608 44.8372 26.3792C44.7035 26.8693 44.7035 27.3864 44.8372 27.8766C45.0878 28.4824 45.4248 28.6901 45.8395 28.517C46.384 28.2276 46.8542 27.8159 47.2132 27.314C47.7736 26.6023 48.2763 25.8468 48.7166 25.055C49.2177 24.1721 49.6929 23.3239 50.1422 22.5103C50.6001 21.6967 51.0062 21.0043 51.2913 20.4331C51.5764 19.8618 51.8097 19.5676 51.9134 19.6108C52.214 19.6406 52.4994 19.758 52.7342 19.9484C52.8908 20.0759 53.0102 20.2434 53.0798 20.4331C53.1177 20.6507 53.1177 20.8733 53.0798 21.0909C53.0798 21.0909 52.9156 21.4457 52.6651 22.0776C52.4145 22.7094 52.0603 23.4797 51.611 24.3798C51.1617 25.28 50.6174 26.2407 49.9953 27.262C49.3878 28.2534 48.6751 29.1762 47.8699 30.0144C47.1182 30.7967 46.2424 31.4489 45.2779 31.9445C44.3549 32.4112 43.3023 32.5544 42.2885 32.3513C41.7211 32.2696 41.1945 32.0089 40.7851 31.6069C40.396 31.0884 40.1894 30.4553 40.1976 29.8067C40.1123 28.7109 40.1325 27.6095 40.258 26.5177C40.4017 25.1339 40.6471 23.7627 40.9925 22.4151C41.3568 20.9307 41.8542 19.4823 42.4785 18.0875L46.5825 9.1467C45.656 9.19468 44.7389 9.35749 43.8523 9.63139C42.8967 9.95103 42.0151 10.4603 41.2603 11.1287C41.145 11.2349 41.0099 11.3172 40.8629 11.3711C40.773 11.4002 40.6762 11.4002 40.5864 11.3711C40.4997 11.343 40.4221 11.2922 40.3617 11.2239C40.1801 11.0708 40.0335 10.8801 39.9321 10.665C39.8307 10.4499 39.7769 10.2155 39.7742 9.9776C39.7593 9.39672 39.9091 8.8235 40.2062 8.32446C40.5193 7.7848 40.9656 7.33478 41.5022 7.01752C42.1865 6.64857 42.9775 6.52925 43.74 6.67997Z" fill="#9AF5E3"/>
<path d="M66.5582 11.3971C66.8595 11.311 67.1761 11.2928 67.4853 11.3437C67.7945 11.3945 68.0886 11.5133 68.3466 11.6913C68.771 12.0357 69.101 12.4825 69.3057 12.9896C69.5007 13.4845 69.6144 14.0077 69.6426 14.5389C69.6835 14.9013 69.6571 15.268 69.5649 15.6208C69.4871 15.8026 69.2798 16.218 68.9255 16.8758C68.5713 17.5336 68.1652 18.3126 67.7073 19.1954C67.2494 20.0782 66.7655 21.013 66.273 21.991C65.7806 22.9691 65.409 23.8519 65.0548 24.6655C64.7764 25.3061 64.5734 25.9771 64.45 26.6648C64.3722 27.1841 64.5018 27.4351 64.8215 27.4092C65.2379 27.2904 65.62 27.0738 65.9361 26.7774C66.5561 26.2776 67.1341 25.7276 67.6641 25.1329C68.3569 24.3524 69.0032 23.5316 69.5994 22.6748C70.2709 21.7167 70.8495 20.6965 71.3274 19.6282C71.4052 19.481 71.5175 19.481 71.6817 19.6282C71.8819 19.8221 72.0535 20.0436 72.1914 20.286C72.3607 20.5611 72.5053 20.8507 72.6234 21.1515C72.7269 21.3604 72.7603 21.5972 72.7185 21.8266C72.0534 23.6232 71.099 25.2985 69.8932 26.786C68.9067 28.0116 67.7785 29.1157 66.5322 30.075C65.598 30.8056 64.5799 31.4216 63.4996 31.9099C62.9319 32.1971 62.3225 32.3928 61.6938 32.4898C61.1817 32.4733 60.6958 32.2594 60.3374 31.8926C59.8971 31.4705 59.5957 30.924 59.4734 30.326C59.3293 29.4839 59.3293 28.6234 59.4734 27.7814C59.6194 26.7656 59.8271 25.7597 60.0954 24.7693C60.3719 23.7307 60.6743 22.7181 61.0113 21.7141C61.3482 20.7101 61.6506 19.8186 61.8753 19.0223C62.091 18.3833 62.2727 17.7332 62.4196 17.0749C62.5233 16.5729 62.4801 16.3132 62.3073 16.2873C61.6633 16.4745 61.0717 16.8094 60.5793 17.2653C59.9209 17.8442 59.3191 18.4847 58.7822 19.1781C58.1774 19.9311 57.5898 20.736 57.0542 21.5929C56.5185 22.4498 55.9828 23.272 55.5335 24.0423C55.257 25.1963 55.0497 26.2696 54.9114 27.262C54.7732 28.2574 54.6868 29.1316 54.6436 29.8586C54.6004 30.5856 54.5918 31.1742 54.5918 31.5896V32.2821C54.4441 32.4051 54.2567 32.4697 54.0647 32.4638C53.7499 32.4877 53.4333 32.4703 53.123 32.4119C52.7622 32.3472 52.409 32.2457 52.0689 32.109C51.745 31.9959 51.45 31.8127 51.2049 31.5723C50.8158 31.0538 50.6092 30.4207 50.6174 29.772C50.5321 28.6763 50.5524 27.5749 50.6779 26.4831C50.8215 25.0993 51.0669 23.7281 51.4123 22.3805C51.7766 20.8961 52.274 19.4477 52.8983 18.0529C55.0756 13.3214 56.8036 9.52466 58.0823 6.66267C58.9961 4.86879 59.7089 2.97911 60.2078 1.02814C60.2078 0.803104 60.4842 0.707897 60.9594 0.751173C61.4912 0.806585 61.9984 1.00385 62.4282 1.32242C62.9705 1.72815 63.3941 2.27213 63.6551 2.89766C63.9723 3.75195 63.9905 4.68877 63.707 5.55481C63.4679 6.51103 63.1589 7.44832 62.7825 8.35909C62.4196 9.22461 62.0308 10.0901 61.5988 10.9557C61.1668 11.8212 60.7348 12.6867 60.2078 13.5522C59.6807 14.4177 59.1969 15.3785 58.6698 16.3738C59.2556 15.7618 59.8758 15.1838 60.5274 14.6428C61.1927 14.0975 61.8666 13.5955 62.5406 13.1454C63.1889 12.7184 63.8675 12.3395 64.571 12.0116C65.2065 11.7281 65.8737 11.5218 66.5582 11.3971ZM53.7191 27.6342C53.708 27.5858 53.708 27.5355 53.7191 27.4871C53.6919 27.5639 53.6602 27.6391 53.6241 27.7121C53.6241 27.7121 53.6241 27.7121 53.6846 27.7121L53.7191 27.6342Z" fill="#9AF5E3"/>
<path d="M78.7406 10.0468C78.94 10.0954 79.1299 10.1773 79.3022 10.2892C79.5354 10.4277 79.7774 10.5921 80.0366 10.7825C80.318 10.9778 80.5838 11.1948 80.8314 11.4317C81.0906 11.6827 81.3412 11.9337 81.5658 12.1847C81.9427 12.0301 82.3332 11.9113 82.7322 11.8298C83.1522 11.7404 83.5824 11.7083 84.011 11.7346C84.3202 11.7714 84.6163 11.8812 84.875 12.0549C85.1881 12.2498 85.4562 12.5095 85.6612 12.8165C85.9033 13.1664 86.0899 13.5518 86.2142 13.959C86.353 14.4278 86.3826 14.9223 86.3006 15.4044C86.1989 16.5394 86.0112 17.6649 85.739 18.7713C86.3697 18.6155 86.9831 18.4597 87.5879 18.2779L89.2382 17.7932L90.5169 17.4038C90.7242 17.3264 90.9382 17.2685 91.1562 17.2307C91.196 17.2283 91.2358 17.2339 91.2734 17.247C91.3109 17.2601 91.3456 17.2805 91.3753 17.307C91.405 17.3335 91.4291 17.3657 91.4464 17.4016C91.4637 17.4375 91.4737 17.4765 91.4759 17.5163C91.5114 17.7312 91.5114 17.9505 91.4759 18.1654C91.4544 18.4225 91.3992 18.6757 91.3118 18.9184C91.2568 19.104 91.1722 19.2793 91.0612 19.4377C90.7791 19.656 90.4716 19.8391 90.1454 19.983C89.5155 20.3045 88.8695 20.5934 88.21 20.8485C87.3452 21.1772 86.459 21.4461 85.5575 21.6535C84.5523 21.8961 83.524 22.0296 82.4903 22.0516C82.3334 22.0808 82.1746 22.0982 82.0151 22.1035C81.7852 22.1243 81.5539 22.1243 81.3239 22.1035C81.6088 22.1623 81.8975 22.1999 82.1879 22.2161C82.5162 22.2161 82.8446 22.2766 83.1729 22.3286C83.4676 22.3746 83.7571 22.45 84.0369 22.5536C84.1426 22.5865 84.2387 22.6447 84.317 22.7231C84.3953 22.8015 84.4533 22.8978 84.4862 23.0037C84.0433 24.3033 83.5032 25.5677 82.8705 26.786C82.278 27.9306 81.5308 28.9878 80.65 29.9278C79.8194 30.8058 78.8202 31.5064 77.7124 31.9878C76.2426 32.6372 74.5929 32.7535 73.0468 32.3167C72.5828 32.1887 72.1424 31.9871 71.7422 31.7195C71.2663 31.402 70.8581 30.9931 70.5412 30.5164C70.1455 29.8995 69.9053 29.1956 69.8414 28.4651C69.6671 26.9671 69.7313 25.4509 70.0314 23.9731C70.3284 22.4883 70.7772 21.0381 71.3706 19.6455C71.9389 18.3158 72.6121 17.0337 73.3838 15.8112C74.053 14.7389 74.7888 13.7098 75.587 12.73C76.1644 11.9931 76.8126 11.3147 77.5223 10.7046C78.1185 10.2459 78.5159 10.0209 78.7406 10.0468ZM77.8766 19.0309C77.7888 18.4341 77.7888 17.8275 77.8766 17.2307C77.7446 17.5073 77.6432 17.7975 77.5742 18.0962L77.3668 19.1088C77.3063 19.4464 77.2458 19.7493 77.1854 20.0263C77.1386 20.2284 77.0809 20.4277 77.0126 20.6235C76.5029 21.7024 76.0698 22.8159 75.7166 23.9558C75.4107 24.9133 75.1853 25.8947 75.0426 26.8899C74.941 27.5843 74.941 28.2899 75.0426 28.9844C75.129 29.521 75.3278 29.8067 75.6302 29.8499C75.777 29.8499 76.0276 29.6509 76.3818 29.1575C76.7361 28.6642 77.1335 28.041 77.6001 27.2707C78.0666 26.5004 78.5591 25.6349 79.0689 24.6741C79.5786 23.7134 80.0711 22.8046 80.5204 21.9045C79.9402 21.7389 79.4053 21.4429 78.9566 21.0389C78.3621 20.5208 77.9677 19.8102 77.842 19.0309H77.8766ZM80.961 17.9837C80.9469 18.2389 81.0272 18.4904 81.1866 18.69C81.3461 18.8896 81.5734 19.0234 81.825 19.0656C82.005 18.703 82.1637 18.3302 82.3002 17.949C82.3867 17.715 82.456 17.4749 82.5076 17.2307C82.5854 16.6335 82.5076 16.2786 82.3953 16.1661C82.283 16.0536 82.067 16.0882 81.8682 16.2613C81.631 16.4835 81.4324 16.7439 81.2807 17.0316C81.0831 17.3133 80.9611 17.6411 80.9265 17.9837H80.961Z" fill="#9AF5E3"/>
<path d="M101.291 12.0722C101.343 11.9395 101.533 11.8702 101.861 11.8644C102.249 11.8608 102.636 11.9103 103.01 12.0116C103.467 12.1335 103.912 12.2957 104.341 12.4963C104.764 12.6967 105.157 12.9561 105.507 13.2666C105.818 13.5415 106.046 13.8984 106.164 14.2966C106.217 14.5088 106.226 14.7297 106.19 14.9456C106.154 15.1614 106.075 15.3677 105.957 15.5516C105.165 16.9336 104.45 18.3581 103.814 19.8186C103.166 21.3159 102.613 22.6748 102.155 23.9125C101.697 25.1502 101.377 26.1628 101.161 26.9678C100.945 27.7727 100.919 28.1449 101.066 28.1276C101.454 27.9858 101.799 27.7475 102.069 27.4351C102.529 26.9676 102.962 26.4734 103.365 25.9551C103.814 25.3839 104.28 24.7607 104.756 24.1029C105.231 23.4451 105.671 22.8392 106.069 22.2853L107.088 20.9178C107.365 20.5629 107.538 20.3812 107.615 20.3812C107.775 20.3906 107.934 20.4137 108.091 20.4504C108.302 20.504 108.503 20.5917 108.687 20.7101C108.875 20.8376 109.024 21.0142 109.119 21.2207C109.224 21.4787 109.224 21.7677 109.119 22.0256C108.941 22.4775 108.739 22.9195 108.514 23.3499C108.128 24.1279 107.701 24.8848 107.235 25.6175C106.708 26.4831 106.121 27.3486 105.455 28.2141C104.82 29.0672 104.099 29.8531 103.304 30.5597C102.603 31.1806 101.81 31.6887 100.954 32.0657C100.209 32.4074 99.3607 32.4477 98.5866 32.1782C98.1729 32.0515 97.7963 31.8257 97.4893 31.5204C97.2366 31.2593 97.0161 30.9687 96.8327 30.6549C96.6861 30.3789 96.5674 30.089 96.4784 29.7894C96.4007 29.5124 96.3575 29.3133 96.3316 29.1921V28.6642C96.4266 28.4911 96.634 28.1622 96.945 27.6775C97.2485 27.2264 97.4707 26.7254 97.6016 26.1974C97.6016 26.1974 97.6016 26.1974 97.5325 26.1974C96.9987 27.0318 96.4219 27.8378 95.8045 28.6122C95.1913 29.3884 94.5056 30.1043 93.7568 30.7501C93.1034 31.3188 92.3585 31.7725 91.5536 32.0916C90.8338 32.3833 90.033 32.4048 89.2986 32.1522C88.8735 32.0499 88.4812 31.8414 88.1581 31.5464C87.9002 31.2877 87.6766 30.9968 87.4928 30.6808C87.3404 30.4097 87.227 30.1183 87.1559 29.8153L87.0263 29.2181C86.9597 28.5117 87.0034 27.7992 87.1559 27.1062C87.32 26.1715 87.562 25.1155 87.873 23.9644C88.184 22.8133 88.5469 21.5929 88.9616 20.3465C89.3764 19.1002 89.7738 17.9231 90.1712 16.8152C90.5687 15.7074 90.9143 14.7207 91.2426 13.8724C91.461 13.2622 91.7119 12.6641 91.9943 12.0808C92.0375 11.951 92.2276 11.8818 92.5559 11.8731C92.9438 11.8691 93.3305 11.9186 93.705 12.0202C94.1623 12.1409 94.6077 12.3032 95.0356 12.5049C95.457 12.699 95.8448 12.959 96.1847 13.2752C96.4879 13.5535 96.709 13.9097 96.824 14.3052C96.879 14.5173 96.889 14.7386 96.8532 14.9547C96.8175 15.1709 96.7369 15.3772 96.6167 15.5602C95.8621 16.9104 95.1536 18.3328 94.4912 19.8272C93.826 21.3246 93.273 22.6834 92.8237 23.9211C92.4407 24.9211 92.1119 25.941 91.8388 26.9764C91.64 27.7727 91.6141 28.1535 91.7696 28.1362C92.3252 27.9203 92.8203 27.5729 93.2125 27.1236C93.8673 26.467 94.4874 25.7765 95.0701 25.055C95.7095 24.2847 96.3143 23.497 96.8759 22.7007C97.326 22.0941 97.7442 21.4643 98.1287 20.8139C98.4311 19.8445 98.7421 18.9011 99.0532 17.975C99.3642 17.0489 99.6666 16.244 99.9172 15.3785C100.168 14.5129 100.47 13.9071 100.703 13.3185C100.937 12.73 101.17 12.3405 101.291 12.0722Z" fill="#9AF5E3"/>
<path d="M117.448 12.0289C117.704 12.1069 117.942 12.2351 118.148 12.406C118.354 12.5768 118.524 12.787 118.649 13.0242C118.875 13.461 119.015 13.9369 119.064 14.4264C119.193 13.9503 119.305 13.5089 119.4 13.0935C119.5 12.7178 119.575 12.3362 119.625 11.951C119.634 11.8252 119.686 11.7064 119.773 11.6148C119.86 11.5233 119.975 11.4647 120.1 11.449C120.442 11.3771 120.795 11.3771 121.137 11.449C122.032 11.6617 122.867 12.0728 123.582 12.6521C123.908 12.909 124.18 13.2264 124.386 13.5868C124.475 13.7264 124.534 13.8836 124.558 14.0478C124.582 14.2121 124.57 14.3795 124.524 14.5389C123.893 16.3392 123.271 18.1568 122.64 20.0003C122.01 21.8439 121.344 23.6701 120.627 25.4704C119.91 27.2707 119.141 29.0104 118.312 30.6635C117.508 32.3459 116.59 33.9712 115.564 35.5278C116.717 35.9285 117.779 36.5519 118.692 37.3627C119.288 37.9858 119.556 38.4099 119.556 38.635C119.556 38.86 119.418 39.0071 119.141 39.1629C118.834 39.3219 118.505 39.4356 118.165 39.5005C117.781 39.573 117.389 39.602 116.999 39.587C116.666 39.5915 116.335 39.5358 116.022 39.4226C115.761 39.3068 115.528 39.1355 115.34 38.9206C114.997 38.5928 114.621 38.3026 114.216 38.0551C113.585 37.6527 112.91 37.3245 112.203 37.077C111.12 36.7108 110.003 36.4556 108.868 36.3154C109.646 36.6097 110.449 36.9039 111.262 37.1809C112.045 37.4566 112.767 37.8829 113.387 38.4359C112.508 39.3131 111.585 40.1451 110.622 40.9286C109.709 41.6724 108.725 42.3246 107.685 42.876C106.665 43.4122 105.594 43.8442 104.488 44.1656C103.306 44.4957 102.086 44.6703 100.859 44.685C99.4375 44.7564 98.0124 44.6751 96.6081 44.4426C95.651 44.2837 94.7205 43.9924 93.8433 43.5771C93.2307 43.2957 92.69 42.8784 92.2622 42.3567C91.949 41.953 91.7118 41.4954 91.5624 41.0065C91.4446 40.6021 91.395 40.1809 91.4155 39.7601C91.4256 39.4493 91.4749 39.1411 91.5624 38.8427C91.7658 38.1696 92.1138 37.5492 92.5819 37.0251C93.1587 36.3816 93.8539 35.8555 94.6296 35.4758C95.6385 34.9736 96.7068 34.6014 97.8091 34.368C99.2706 34.0559 100.757 33.8734 102.25 33.8227C103.909 33.7534 105.412 33.7534 106.76 33.8227C108.01 33.8867 109.256 34.0138 110.493 34.2035C110.529 34.1661 110.559 34.122 110.579 34.0737L110.64 33.9352C110.756 33.7175 110.901 33.5166 111.072 33.338C111.358 32.9923 111.605 32.6147 111.806 32.2128C111.894 32.0538 112.008 31.9105 112.143 31.7887C112.298 31.6502 112.463 31.4771 112.653 31.2781C112.893 31.0063 113.112 30.717 113.309 30.4125C113.63 29.9723 113.919 29.5095 114.173 29.0277L114.398 28.4738C114.001 29.0598 113.568 29.6206 113.102 30.1529C112.711 30.606 112.283 31.0258 111.823 31.4079C111.468 31.7088 111.068 31.9539 110.64 32.1349C110.319 32.278 109.959 32.3055 109.62 32.2128C108.852 32.0319 108.133 31.6865 107.512 31.2002C107.077 30.8547 106.735 30.4053 106.518 29.8932C106.331 29.4313 106.234 28.9377 106.233 28.4391C106.232 27.9505 106.258 27.4622 106.311 26.9764C106.38 25.8619 106.53 24.754 106.76 23.6615C107.017 22.4092 107.364 21.177 107.797 19.9744C108.235 18.7732 108.763 17.6071 109.378 16.4863C109.933 15.4359 110.644 14.4758 111.486 13.6388C112.248 12.8963 113.166 12.3344 114.173 11.9943C115.242 11.6688 116.386 11.6809 117.448 12.0289ZM108.903 36.2634C107.88 36.125 106.85 36.0441 105.818 36.0211C104.669 36.0211 103.339 36.0211 101.835 36.073C100.521 36.1044 99.2142 36.2814 97.9387 36.601C97.1641 36.7915 96.4176 37.0825 95.7182 37.4665C95.3195 37.6665 94.9777 37.9642 94.7246 38.332C94.6094 38.508 94.5301 38.7051 94.4913 38.9119C94.5 39.0873 94.5379 39.2599 94.6037 39.4226C94.762 39.6717 95.0041 39.8559 95.2862 39.9419C95.8439 40.1515 96.4237 40.2967 97.0142 40.3747C98.0999 40.5143 99.1943 40.5751 100.289 40.5564C101.168 40.5594 102.042 40.4281 102.881 40.1669C103.698 39.908 104.486 39.5628 105.231 39.137C105.947 38.7302 106.627 38.261 107.261 37.7348C107.832 37.2686 108.377 36.7717 108.894 36.2461L108.903 36.2634ZM117.482 15.0063C117.137 14.9284 116.713 15.1967 116.221 15.7939C115.657 16.5087 115.16 17.2735 114.735 18.0789C114.205 19.0651 113.734 20.0825 113.327 21.1255C112.925 22.121 112.579 23.1381 112.29 24.1721C112.066 24.9018 111.947 25.6594 111.936 26.4225C111.936 26.9937 112.152 27.2274 112.558 27.1322C112.939 27.0213 113.287 26.8159 113.568 26.535C113.952 26.1752 114.3 25.7779 114.605 25.3492C114.966 24.8534 115.287 24.3295 115.564 23.7826C115.867 23.1941 116.152 22.5796 116.428 21.9304L116.653 21.4198C116.734 21.2479 116.798 21.0681 116.843 20.8832C117.094 20.1821 117.318 19.4897 117.508 18.8059C117.676 18.204 117.8 17.5908 117.88 16.971C117.935 16.5227 117.935 16.0691 117.88 15.6208C117.845 15.2486 117.707 15.0409 117.482 14.989V15.0063Z" fill="#9AF5E3"/>
<path d="M138.806 11.3971C139.107 11.311 139.424 11.2928 139.733 11.3436C140.042 11.3945 140.336 11.5132 140.594 11.6913C141.029 12.0405 141.36 12.5012 141.553 13.0242C141.748 13.5191 141.862 14.0423 141.89 14.5735C141.928 14.9355 141.905 15.3012 141.821 15.6554C141.743 15.8372 141.527 16.2526 141.182 16.9104L139.998 19.1954C139.532 20.0609 139.056 21.013 138.573 21.991C138.089 22.9691 137.709 23.8519 137.346 24.6655C137.067 25.3061 136.864 25.9771 136.741 26.6648C136.672 27.1841 136.793 27.4351 137.121 27.4092C137.535 27.2894 137.914 27.0728 138.227 26.7773C138.851 26.2821 139.429 25.7318 139.955 25.1329C140.651 24.3526 141.3 23.5318 141.899 22.6748C142.571 21.7168 143.149 20.6966 143.627 19.6281C143.708 19.4781 143.829 19.4781 143.99 19.6281C144.184 19.8249 144.353 20.046 144.491 20.2859C144.667 20.5574 144.812 20.8477 144.923 21.1515C145.03 21.3592 145.064 21.5972 145.018 21.8266C144.352 23.6211 143.401 25.2959 142.201 26.786C141.21 28.0102 140.079 29.114 138.832 30.075C137.9 30.8052 136.885 31.4213 135.808 31.9099C135.237 32.198 134.625 32.3937 133.993 32.4898C133.483 32.4747 133 32.2604 132.646 31.8926C132.202 31.4729 131.9 30.9254 131.782 30.326C131.633 29.4843 131.633 28.623 131.782 27.7813C131.928 26.7656 132.135 25.7597 132.404 24.7693C132.68 23.7307 132.991 22.7181 133.328 21.7141C133.665 20.71 133.967 19.8186 134.192 19.0223C134.414 18.3845 134.599 17.7343 134.745 17.0749C134.84 16.5729 134.806 16.3132 134.624 16.2872C133.98 16.4745 133.389 16.8093 132.896 17.2653C132.231 17.8425 131.621 18.4799 131.073 19.1694C130.468 19.9224 129.889 20.7274 129.345 21.5842C128.801 22.4411 128.274 23.2633 127.816 24.0336C127.539 25.1877 127.332 26.2609 127.194 27.2534C127.055 28.2487 126.969 29.1229 126.935 29.8499C126.9 30.577 126.874 31.1655 126.874 31.581V32.2734C126.727 32.3979 126.539 32.4627 126.347 32.4552C126.032 32.4791 125.716 32.4616 125.405 32.4032C125.045 32.3374 124.692 32.2359 124.351 32.1003C124.029 31.9829 123.735 31.8002 123.487 31.5637C123.102 31.0437 122.898 30.4109 122.908 29.7634C122.824 28.6678 122.841 27.5668 122.96 26.4744C123.108 25.0912 123.353 23.7203 123.695 22.3718C124.063 20.8886 124.56 19.4406 125.181 18.0442C127.369 13.3127 129.097 9.51599 130.365 6.65401C131.276 4.85791 131.991 2.96887 132.499 1.01947C132.499 0.794437 132.775 0.69923 133.25 0.742506C133.782 0.799557 134.289 0.996662 134.719 1.31375C135.261 1.71751 135.683 2.26231 135.937 2.889C136.258 3.74216 136.279 4.67922 135.998 5.54614C135.759 6.50236 135.45 7.43965 135.073 8.35043C134.711 9.21595 134.313 10.0815 133.89 10.947C133.466 11.8125 133.026 12.678 132.499 13.5435C131.972 14.4091 131.479 15.3698 130.952 16.3651C131.543 15.7552 132.166 15.1773 132.818 14.6341C133.484 14.0888 134.149 13.5868 134.823 13.1367C135.474 12.7097 136.156 12.3307 136.862 12.0029C137.484 11.7249 138.136 11.5216 138.806 11.3971ZM125.975 27.6342C125.965 27.5857 125.965 27.5356 125.975 27.4871L125.88 27.7121C125.88 27.7121 125.88 27.7121 125.932 27.7121L125.975 27.6342Z" fill="#9AF5E3"/>
<path d="M145.96 6.67997L147.774 6.96559L149.623 7.32045C150.349 5.72789 150.919 4.40365 151.351 3.37368C151.673 2.63673 151.905 1.86377 152.042 1.0714C152.042 0.846363 152.319 0.751156 152.794 0.794432C153.326 0.849844 153.833 1.04711 154.263 1.36567C154.805 1.77141 155.229 2.31538 155.49 2.94092C155.807 3.7952 155.825 4.73202 155.542 5.59807C155.395 6.19527 155.265 6.66266 155.17 7.00021C155.065 7.35112 154.938 7.69511 154.79 8.03018C156.346 8.15799 157.912 8.1028 159.455 7.86573C161.03 7.6088 162.532 7.01869 163.862 6.13469C164.014 6.00833 164.209 5.94624 164.406 5.96158C164.518 5.96158 164.579 6.09141 164.596 6.24721C164.604 6.41673 164.583 6.58632 164.536 6.74921C164.496 6.91347 164.431 7.07093 164.346 7.21659C163.688 8.3142 162.736 9.20485 161.598 9.78718C160.631 10.2357 159.579 10.4717 158.514 10.4796C157.38 10.4839 156.25 10.359 155.144 10.1074C153.978 9.84777 152.803 9.61408 151.628 9.41501C151.973 9.53618 152.379 9.66601 152.846 9.80449L153.77 10.0901C153.14 11.2845 152.44 12.6867 151.662 14.3312L149.295 19.3339C149.07 19.8532 148.794 20.5369 148.483 21.3851C148.172 22.2334 147.886 23.1162 147.619 23.9817C147.351 24.8472 147.169 25.6522 147.04 26.3705C146.907 26.8608 146.907 27.3776 147.04 27.8679C147.29 28.4738 147.627 28.6815 148.042 28.5084C148.588 28.2214 149.059 27.8091 149.416 27.3053C149.976 26.5936 150.479 25.8382 150.919 25.0463C151.42 24.1635 151.895 23.3153 152.345 22.5017C152.803 21.6881 153.209 20.9957 153.494 20.4244C153.779 19.8532 154.012 19.5589 154.116 19.6022C154.408 19.6454 154.683 19.7681 154.911 19.957C155.062 20.0873 155.178 20.2541 155.248 20.4417C155.286 20.6593 155.286 20.8819 155.248 21.0995C155.248 21.0995 155.084 21.4544 154.833 22.0862C154.582 22.718 154.228 23.4884 153.779 24.3885C153.33 25.2886 152.794 26.2494 152.163 27.2707C151.556 28.2621 150.843 29.1849 150.038 30.023C149.286 30.8054 148.41 31.4576 147.446 31.9531C146.523 32.4205 145.47 32.5638 144.456 32.3599C143.889 32.2782 143.362 32.0175 142.953 31.6156C142.564 31.0975 142.36 30.4635 142.374 29.8153C142.281 28.72 142.299 27.6181 142.426 26.5263C142.574 25.1431 142.819 23.7722 143.16 22.4238C143.525 20.9394 144.022 19.491 144.646 18.0962L148.75 9.15535C147.824 9.20333 146.907 9.36614 146.02 9.64004C145.065 9.95968 144.183 10.4689 143.428 11.1374C143.314 11.2413 143.183 11.3234 143.039 11.3797C142.947 11.409 142.847 11.409 142.754 11.3797C142.669 11.3496 142.592 11.2991 142.53 11.2326C142.348 11.0687 142.205 10.8665 142.111 10.6405C142.017 10.4144 141.974 10.1703 141.985 9.92566C141.97 9.34478 142.12 8.77156 142.417 8.27252C142.738 7.72676 143.197 7.27582 143.748 6.96559C144.431 6.6203 145.212 6.51951 145.96 6.67997Z" fill="#9AF5E3"/>
<path d="M162.816 10.1247C163.338 10.1282 163.857 10.1921 164.363 10.3152C164.907 10.4315 165.423 10.6519 165.884 10.9643C166.363 11.2938 166.742 11.7489 166.981 12.2799C167.259 12.959 167.343 13.7022 167.223 14.4264C167.186 14.7371 167.122 15.0441 167.033 15.3438C166.924 15.7426 166.779 16.1307 166.601 16.5036C166.405 16.9342 166.164 17.3432 165.884 17.724C165.589 18.1318 165.226 18.486 164.812 18.7713C164.415 19.0831 163.926 19.2536 163.421 19.256C162.962 19.2648 162.506 19.1671 162.091 18.9704C161.738 18.8221 161.449 18.5518 161.279 18.2087C161.208 18.034 161.188 17.8429 161.222 17.6575C161.256 17.4721 161.341 17.3001 161.469 17.1614C161.553 17.0211 161.648 16.888 161.754 16.7633C161.909 16.5556 162.082 16.3219 162.255 16.0709C162.428 15.8199 162.592 15.5775 162.747 15.3438C162.863 15.1777 162.951 14.9935 163.007 14.7985C163.084 14.3744 162.894 14.1494 162.428 14.1234C161.876 14.1252 161.333 14.2619 160.847 14.5216C160.222 14.8377 159.671 15.2832 159.231 15.8285C158.743 16.409 158.482 17.1471 158.496 17.9058C158.603 18.4177 158.888 18.8749 159.3 19.1954L161.028 20.8658C162.16 20.2686 163.257 19.7493 164.337 19.3079C165.417 18.8665 166.385 18.503 167.257 18.2087C168.13 17.9144 168.83 17.6807 169.383 17.5336C169.704 17.4654 170.016 17.3639 170.316 17.2307C170.444 17.184 170.581 17.1684 170.716 17.1849C170.851 17.2014 170.981 17.2497 171.094 17.3259C171.344 17.4807 171.561 17.6837 171.733 17.9231C171.887 18.1325 171.977 18.382 171.992 18.6415C172.001 18.6906 171.999 18.7409 171.987 18.7893C171.976 18.8378 171.954 18.8833 171.924 18.9231C171.894 18.9628 171.856 18.996 171.813 19.0205C171.77 19.045 171.722 19.0604 171.672 19.0656C171.396 19.1175 170.86 19.2473 170.057 19.4637C169.094 19.7205 168.145 20.0267 167.214 20.3811C166.126 20.7793 164.951 21.2467 163.698 21.8525C162.44 22.4414 161.242 23.1516 160.121 23.9731L160.855 23.6701L161.719 23.3153L162.471 23.0123L162.903 22.8479C163.37 23.3913 163.749 24.0046 164.026 24.6655C164.284 25.3376 164.375 26.062 164.294 26.7773C164.197 28.0435 163.905 29.2872 163.43 30.4645C163.034 31.3876 162.501 32.2455 161.849 33.0091C161.291 33.6717 160.621 34.2312 159.87 34.6622C159.252 35.0079 158.604 35.2976 157.935 35.5277C157.414 35.7044 156.879 35.8376 156.336 35.9259C155.87 35.9865 155.559 36.0211 155.412 36.0211C154.638 36.072 153.864 35.9104 153.174 35.5537C152.647 35.2469 152.202 34.8162 151.878 34.2987C151.583 33.8154 151.403 33.2705 151.351 32.7062C151.284 32.2151 151.284 31.7172 151.351 31.2261C151.644 29.7253 152.273 28.3106 153.192 27.0889C154.147 25.8327 155.263 24.7067 156.509 23.7394C156.123 23.4774 155.757 23.1881 155.412 22.8738C155.06 22.5748 154.752 22.2281 154.496 21.8439C154.213 21.4225 154.008 20.9533 153.891 20.459C153.747 19.8409 153.715 19.2018 153.796 18.5722C153.876 17.2701 154.299 16.0125 155.023 14.9284C155.693 13.908 156.532 13.0094 157.503 12.2712C158.37 11.5938 159.334 11.051 160.363 10.6614C161.143 10.3386 161.973 10.1569 162.816 10.1247ZM159.058 28.7248C159.189 28.0706 159.189 27.3969 159.058 26.7427C158.947 26.2404 158.729 25.768 158.419 25.3579C157.776 25.9507 157.197 26.6092 156.691 27.3226C156.177 28.027 155.739 28.7843 155.386 29.5816C155.017 30.5048 154.974 31.128 155.256 31.4511C155.405 31.6139 155.599 31.7282 155.813 31.7792C156.027 31.8301 156.252 31.8153 156.457 31.7368C157.114 31.5048 157.699 31.1048 158.154 30.5764C158.608 30.048 158.917 29.4097 159.049 28.7248H159.058Z" fill="#9AF5E3"/>
<path d="M0.842285 9.06016C1.65107 8.83639 2.50199 8.81263 3.32196 8.99092C4.18009 9.19108 4.99041 9.55872 5.7066 10.0728C7.08036 11.0768 8.19492 12.1674 9.24036 12.5915C9.73671 12.8072 10.2718 12.9191 10.8128 12.9204C11.3576 12.9304 11.9004 12.8514 12.4199 12.6867C13.5048 12.2237 14.445 11.4762 15.1415 10.5229C15.7351 9.86155 16.3824 9.2507 17.0768 8.69664C17.9123 8.05816 18.8763 7.60926 19.9021 7.38105C20.894 7.16677 21.9178 7.1462 22.9175 7.32046C23.9227 7.4928 24.8764 7.88916 25.7082 8.48026C27.3584 9.66602 28.0842 11.1807 28.9568 12.2885C29.7894 13.5015 31.0274 14.3764 32.4474 14.7553C31.6362 14.9809 30.7827 15.0077 29.9591 14.8332C29.1035 14.6254 28.2946 14.2584 27.5744 13.7513C26.192 12.7473 25.0861 11.6567 24.0407 11.2326C23.5517 11.0233 23.0258 10.9144 22.4941 10.9124C21.9498 10.8996 21.407 10.9756 20.8871 11.1374C19.9021 11.423 19.1936 12.1587 18.1741 13.3012C17.5803 13.9596 16.9329 14.5675 16.2388 15.1188C15.4093 15.7564 14.451 16.2054 13.4308 16.4344C12.4334 16.6534 11.4024 16.6711 10.3981 16.4863C9.38971 16.321 8.43227 15.9273 7.59876 15.3352C5.95716 14.1494 5.22276 12.6348 4.35012 11.5269C3.51718 10.3067 2.27092 9.43029 0.842285 9.06016Z" fill="#9AF5E3"/>
<path d="M0.842285 17.5422C1.65107 17.3185 2.50199 17.2947 3.32196 17.473C4.1788 17.677 4.98842 18.0443 5.7066 18.5549C7.08036 19.5589 8.19492 20.6495 9.24037 21.0736C9.73671 21.2893 10.2718 21.4012 10.8128 21.4025C11.3576 21.4125 11.9004 21.3335 12.4199 21.1688C13.5048 20.7058 14.445 19.9583 15.1415 19.005C15.7351 18.3436 16.3824 17.7328 17.0768 17.1787C17.9123 16.5402 18.8763 16.0913 19.9021 15.8631C20.894 15.6489 21.9178 15.6283 22.9175 15.8025C23.9227 15.9749 24.8764 16.3712 25.7082 16.9623C27.3584 18.1481 28.0842 19.6628 28.9568 20.7706C29.7922 21.9902 31.0371 22.8687 32.4647 23.246C31.6535 23.4717 30.8 23.4984 29.9764 23.3239C29.1208 23.1162 28.3119 22.7492 27.5917 22.242C26.2093 21.238 25.1034 20.1475 24.058 19.7234C23.5643 19.5088 23.0323 19.3969 22.4941 19.3945C21.9498 19.3817 21.407 19.4577 20.8871 19.6195C19.9021 19.9484 19.1936 20.6235 18.1741 21.7833C17.5825 22.4439 16.935 23.052 16.2388 23.6009C15.4093 24.2385 14.451 24.6875 13.4308 24.9165C12.4423 25.1349 11.4205 25.1555 10.424 24.9771C9.41563 24.8118 8.45819 24.418 7.62469 23.8259C5.98309 22.6402 5.24869 21.1255 4.37605 20.0176C3.53825 18.789 2.28176 17.9089 0.842285 17.5422Z" fill="#9AF5E3"/>
<path d="M0.842285 26.007C1.65107 25.7833 2.50199 25.7595 3.32196 25.9378C4.1788 26.1417 4.98842 26.5091 5.7066 27.0197C7.08036 28.0237 8.19492 29.1229 9.24036 29.5383C9.73671 29.7541 10.2718 29.866 10.8128 29.8672C11.3576 29.8772 11.9004 29.7983 12.4199 29.6336C13.5048 29.1705 14.445 28.423 15.1415 27.4698C15.7351 26.8084 16.3824 26.1976 17.0768 25.6435C17.9138 25.0112 18.8777 24.5683 19.9021 24.3452C20.8879 24.1303 21.9056 24.1068 22.9002 24.276C23.9054 24.4483 24.8591 24.8447 25.6909 25.4358C27.3412 26.6215 28.0669 28.1362 28.9396 29.2441C29.7749 30.4637 31.0198 31.3421 32.4474 31.7195C31.6362 31.9451 30.7827 31.9718 29.9591 31.7974C29.1035 31.5896 28.2946 31.2226 27.5744 30.7155C26.192 29.7201 25.0861 28.6036 24.0407 28.2054C23.5524 27.9932 23.0264 27.8813 22.4941 27.8765C21.9498 27.8638 21.407 27.9398 20.8871 28.1016C19.954 28.3872 19.2196 29.1056 18.1655 30.2654C17.5649 30.9211 16.9087 31.5235 16.2042 32.0657C15.3747 32.7033 14.4165 33.1523 13.3962 33.3813C12.4077 33.5997 11.3859 33.6203 10.3895 33.4418C9.38107 33.2765 8.42363 32.8828 7.59012 32.2907C5.94852 31.1049 5.21412 29.5903 4.34148 28.4824C3.50992 27.2629 2.26773 26.3841 0.842285 26.007Z" fill="#9AF5E3"/>
</g>
<defs>
<clipPath id="clip0">
<rect width="172" height="45" fill="white" transform="translate(0.430176)"/>
</clipPath>
</defs>
</svg>
